<svg xmlns="http://www.w3.org/2000/svg" xmlns:xlink="http://www.w3.org/1999/xlink" width="500" zoomAndPan="magnify" viewBox="0 0 375 374.999991" height="500" preserveAspectRatio="xMidYMid meet" version="1.2"><defs><clipPath id="14d17be9b6"><path d="M 23.183594 0 L 351.683594 0 L 351.683594 375 L 23.183594 375 Z M 23.183594 0 "/></clipPath></defs><g id="0d786ba339"><g clip-rule="nonzero" clip-path="url(#14d17be9b6)"><path style=" stroke:none;fill-rule:nonzero;fill:#000000;fill-opacity:1;" d="M 115.433594 2.828125 Z M 135.671875 354.464844 L 135.691406 354.464844 C 135.691406 354.464844 135.671875 354.464844 135.671875 354.464844 Z M 351.574219 300.265625 C 351.574219 301.433594 351.277344 302.542969 350.746094 303.546875 C 350.214844 304.542969 349.425781 305.453125 348.367188 306.109375 L 348.296875 306.152344 L 348.246094 306.183594 C 346.839844 306.960938 345.425781 307.269531 344.199219 307.453125 C 342.96875 307.628906 341.871094 307.679688 341.019531 307.792969 L 340.992188 307.792969 C 340.992188 307.792969 340.960938 307.792969 340.960938 307.792969 C 338.039062 308.109375 335.179688 308.273438 332.382812 308.476562 C 319.183594 310.015625 306.261719 308.828125 293.820312 309.894531 C 287.457031 310.640625 281.175781 311.203125 275.097656 312.28125 C 275.097656 312.28125 275.027344 312.28125 275.027344 312.28125 C 271.523438 312.835938 268.019531 313.203125 264.542969 313.511719 C 264.625 314.886719 264.738281 316.25 264.863281 317.613281 L 264.863281 317.644531 C 264.863281 317.644531 264.863281 317.683594 264.863281 317.683594 C 265.324219 323.894531 265.597656 330.128906 265.597656 336.394531 C 265.597656 339.039062 265.546875 341.683594 265.445312 344.335938 C 265.34375 348.171875 265.167969 351.996094 264.972656 355.800781 C 264.914062 358.84375 264.769531 361.980469 264.238281 365.167969 C 264.042969 366.800781 263.210938 368.234375 262.085938 369.199219 C 260.894531 370.222656 259.390625 370.796875 257.78125 370.796875 L 257.648438 370.796875 C 257.648438 370.796875 258.035156 371.371094 258.035156 371.371094 L 250.925781 370.089844 C 247.289062 369.433594 243.402344 369.257812 239.367188 368.941406 C 238.546875 368.902344 237.789062 368.695312 237.121094 368.378906 C 236.855469 368.253906 236.621094 368.089844 236.382812 367.9375 C 234.949219 367.886719 233.515625 367.835938 232.078125 367.792969 L 232.109375 367.792969 C 232.109375 367.792969 232.058594 367.792969 232.058594 367.792969 C 230.339844 367.722656 228.605469 367.691406 226.875 367.691406 C 219.648438 367.691406 212.40625 368.246094 205.128906 369.011719 L 205.066406 369.011719 C 205.066406 369.011719 205.007812 369.023438 205.007812 369.023438 C 201.992188 369.21875 199 369.300781 196.03125 369.300781 C 186.34375 369.300781 176.816406 368.519531 167.460938 368.519531 C 164.4375 368.519531 161.421875 368.601562 158.441406 368.808594 L 158.410156 368.808594 C 148.53125 369.402344 138.621094 370.398438 128.632812 371.136719 L 128.601562 371.136719 C 128.601562 371.136719 128.582031 371.136719 128.582031 371.136719 C 113.730469 371.984375 98.945312 372.148438 84.269531 372.941406 C 69.6875 374.058594 55.066406 375.019531 40.320312 375.019531 L 40.269531 375.019531 C 40.269531 375.019531 40.132812 375.019531 40.132812 375.019531 C 36.8125 375.019531 33.976562 373.402344 32.695312 370.847656 C 32.273438 369.996094 32.019531 369.042969 32.019531 368.058594 C 32.019531 367.742188 32.050781 367.425781 32.101562 367.105469 C 32.058594 366.921875 32.027344 366.726562 32.007812 366.511719 C 31.207031 359.429688 31.261719 352.46875 31.035156 345.691406 C 30.726562 339.109375 29.753906 332.496094 28.761719 325.78125 C 27.777344 319.089844 26.773438 312.292969 26.453125 305.332031 C 25.5625 294.09375 24.640625 282.777344 24.640625 271.335938 C 24.640625 270.835938 24.640625 270.332031 24.640625 269.828125 L 24.640625 269.789062 C 24.640625 269.789062 24.640625 269.746094 24.640625 269.746094 C 25.164062 255.363281 25.777344 240.953125 26.855469 226.546875 C 26.957031 223.769531 27.019531 220.992188 27.019531 218.222656 C 27.019531 214.972656 26.945312 211.722656 26.78125 208.484375 C 25.972656 197.8125 23.644531 186.976562 23.289062 175.617188 L 23.289062 175.566406 C 23.214844 173.917969 23.175781 172.246094 23.175781 170.574219 C 23.175781 160.824219 24.324219 150.859375 25.132812 141.808594 C 25.304688 138.742188 25.367188 135.648438 25.367188 132.542969 C 25.367188 127.332031 25.203125 122.066406 25.203125 116.734375 C 25.203125 112.304688 25.316406 107.847656 25.738281 103.335938 L 25.738281 103.304688 C 25.738281 103.304688 25.738281 103.285156 25.738281 103.285156 C 25.921875 100.914062 26.167969 98.597656 26.394531 96.300781 C 26.125 96.027344 25.878906 95.730469 25.664062 95.402344 C 25.019531 94.425781 24.621094 93.207031 24.621094 91.925781 C 24.621094 91.546875 24.660156 91.167969 24.734375 90.789062 C 24.886719 86.972656 25.808594 83.292969 27.007812 79.910156 C 27.007812 79.910156 27.019531 79.871094 27.019531 79.871094 C 27.519531 78.414062 28.207031 77.121094 29.066406 76.046875 C 29.929688 74.960938 30.964844 74.085938 32.070312 73.453125 C 34.28125 72.171875 36.648438 71.761719 38.894531 71.574219 C 40.390625 71.453125 41.867188 71.433594 43.28125 71.402344 L 43.300781 71.402344 C 51.058594 71.257812 58.980469 70.429688 67.117188 70.355469 L 67.15625 70.355469 C 67.496094 70.355469 67.832031 70.355469 68.171875 70.355469 C 78.605469 70.355469 89.179688 69.660156 99.878906 69.648438 C 102.183594 69.648438 104.5 69.699219 106.824219 69.78125 C 106.230469 65.40625 106.027344 61.039062 106.027344 56.699219 C 106.027344 53.574219 106.128906 50.457031 106.28125 47.363281 C 106.394531 44.429688 106.457031 39.367188 106.753906 33.738281 C 107.0625 28.089844 107.59375 21.867188 108.699219 16.402344 C 109.449219 12.761719 110.421875 9.460938 111.9375 6.765625 C 112.820312 5.226562 113.894531 3.855469 115.382812 2.851562 C 116.652344 1.988281 118.003906 1.628906 119.171875 1.464844 C 120.351562 1.300781 121.398438 1.300781 122.246094 1.28125 C 123.046875 1.261719 123.835938 1.25 124.613281 1.25 C 127.730469 1.25 130.761719 1.375 133.714844 1.375 C 134.574219 1.375 135.4375 1.375 136.285156 1.34375 L 136.308594 1.34375 C 144.699219 1.160156 153.144531 0.613281 161.640625 0.175781 L 161.699219 0.175781 C 164.386719 0.0820312 167.070312 0.03125 169.753906 0.03125 C 179.316406 0.03125 188.867188 0.605469 198.34375 1.691406 C 203.039062 1.988281 207.761719 2.070312 212.527344 2.070312 C 217.742188 2.070312 223.011719 1.980469 228.308594 1.980469 C 232.347656 1.980469 236.40625 2.039062 240.484375 2.234375 C 240.484375 2.234375 240.535156 2.234375 240.535156 2.234375 C 253.917969 2.6875 267.074219 5.023438 279.742188 5.011719 C 279.988281 5.011719 280.222656 5.011719 280.46875 5.011719 L 280.519531 5.011719 C 280.519531 5.011719 280.582031 5.011719 280.582031 5.011719 C 281.246094 5.035156 282.386719 5.054688 283.695312 5.144531 C 284.023438 4.921875 284.382812 4.714844 284.761719 4.550781 L 285.132812 4.386719 L 285.53125 4.324219 C 285.910156 4.265625 286.289062 4.234375 286.667969 4.234375 C 287.171875 4.234375 287.683594 4.285156 288.195312 4.429688 C 288.707031 4.5625 289.210938 4.777344 289.660156 5.074219 C 290.582031 5.667969 291.207031 6.550781 291.546875 7.371094 L 291.628906 7.605469 L 291.824219 7.78125 C 292.253906 8.230469 292.664062 8.835938 292.898438 9.542969 C 293.050781 10.015625 293.132812 10.519531 293.132812 11.011719 L 293.132812 11.0625 C 296.667969 15.734375 300.636719 20.238281 304.664062 24.746094 L 304.703125 24.796875 L 304.746094 24.851562 C 310.84375 32.300781 317.308594 39.539062 323.519531 47.117188 L 323.558594 47.167969 L 323.601562 47.21875 C 326.296875 50.804688 328.488281 54.570312 330.652344 58.199219 C 332.453125 61.230469 334.257812 64.152344 336.246094 66.851562 L 336.214844 66.410156 L 342.679688 75.554688 C 342.84375 75.789062 343 76.015625 343.140625 76.210938 C 344.074219 77.542969 344.996094 78.863281 345.929688 80.1875 C 346.964844 81.671875 348.011719 83.148438 349.054688 84.605469 C 349.578125 85.304688 350.121094 86 350.675781 86.71875 L 351.339844 87.578125 L 351.320312 88.664062 C 351.289062 90.050781 351.238281 91.414062 351.175781 92.765625 C 351.359375 93.503906 351.453125 94.242188 351.453125 94.96875 C 351.453125 96.085938 351.246094 97.175781 350.898438 98.210938 C 350.878906 98.566406 350.859375 98.9375 350.839844 99.328125 L 350.839844 99.359375 C 350.839844 99.359375 350.839844 99.398438 350.839844 99.398438 C 350.242188 106.226562 350.039062 113.042969 350.039062 119.871094 C 350.039062 135.679688 351.164062 151.539062 351.164062 167.601562 C 351.164062 172.175781 351.074219 176.757812 350.839844 181.359375 L 350.839844 181.410156 C 350.839844 181.410156 350.839844 181.453125 350.839844 181.453125 C 350.511719 185.519531 350.398438 189.621094 350.398438 193.734375 C 350.398438 205.171875 351.339844 216.777344 351.339844 228.558594 L 351.339844 228.628906 C 351.339844 229.007812 351.339844 229.386719 351.339844 229.777344 C 351.339844 240.121094 349.84375 250.136719 349.261719 259.96875 C 349.148438 262.273438 349.097656 264.582031 349.097656 266.90625 C 349.097656 275.292969 349.691406 283.824219 349.699219 292.507812 L 349.699219 292.699219 C 349.691406 292.804688 349.679688 292.96875 349.679688 293.171875 C 349.679688 293.828125 349.722656 294.8125 349.75 295.929688 C 350.316406 296.484375 350.757812 297.128906 351.042969 297.804688 C 351.402344 298.625 351.546875 299.488281 351.546875 300.308594 Z M 282.261719 85.824219 C 283.082031 86.265625 284.035156 86.613281 285.121094 86.921875 C 286.566406 87.34375 288.207031 87.679688 289.9375 88.171875 L 290 88.195312 L 290.039062 88.195312 C 292.152344 88.902344 294.363281 89.148438 296.730469 89.148438 C 298.792969 89.148438 300.953125 88.953125 303.199219 88.738281 L 303.238281 88.738281 C 303.238281 88.738281 303.28125 88.738281 303.28125 88.738281 C 304.039062 88.6875 304.796875 88.65625 305.542969 88.65625 C 308.042969 88.65625 310.433594 88.910156 312.707031 89.148438 C 314.980469 89.382812 317.164062 89.609375 319.234375 89.609375 C 319.664062 89.609375 320.085938 89.597656 320.503906 89.578125 C 322.472656 89.382812 324.707031 88.984375 327.003906 88.550781 C 327.945312 88.378906 328.898438 88.195312 329.851562 88.019531 C 327.054688 81.890625 324.050781 75.996094 320.199219 70.714844 L 320.136719 70.632812 L 320.085938 70.550781 C 315.136719 62.769531 309.941406 55.246094 304.222656 48.101562 L 304.160156 48.027344 L 304.109375 47.957031 C 300.800781 43.273438 298.382812 38.257812 295.921875 33.523438 C 294.035156 29.871094 292.121094 26.398438 289.824219 23.269531 C 288.453125 30.960938 287.066406 38.742188 284.988281 46.460938 C 282.980469 55.5625 282.683594 65.167969 282.46875 74.847656 C 282.46875 75.921875 282.476562 77.019531 282.476562 78.125 C 282.476562 78.988281 282.476562 79.859375 282.445312 80.742188 C 282.40625 82.515625 282.304688 84.207031 282.25 85.824219 Z M 256.652344 179.390625 C 256.652344 175.710938 256.222656 171.929688 255.84375 167.992188 C 249.871094 169.3125 243.886719 169.621094 238.011719 169.621094 C 233.769531 169.621094 229.578125 169.457031 225.46875 169.375 L 225.410156 169.375 C 225.410156 169.375 225.347656 169.375 225.347656 169.375 C 223.617188 169.273438 221.875 169.222656 220.109375 169.222656 C 214.023438 169.222656 207.761719 169.746094 201.335938 169.746094 C 199.257812 169.746094 197.15625 169.683594 195.046875 169.539062 L 194.984375 169.539062 C 194.984375 169.539062 194.933594 169.539062 194.933594 169.539062 C 190.96875 169.109375 187.65625 168.136719 184.929688 166.628906 C 182.207031 165.121094 180.113281 163.058594 178.679688 160.683594 C 177.71875 159.101562 177.039062 157.402344 176.589844 155.636719 C 175.984375 153.289062 175.75 150.851562 175.75 148.359375 C 175.75 142.402344 177.050781 136.160156 178.199219 130.449219 C 180.03125 119.480469 182.6875 108.882812 183.824219 98.25 L 183.824219 98.15625 C 183.824219 98.15625 183.84375 98.074219 183.84375 98.074219 C 184.316406 95.277344 184.675781 92.5625 184.675781 89.96875 C 184.675781 89.792969 184.675781 89.628906 184.664062 89.453125 C 181.128906 88.234375 177.234375 87.445312 173.28125 86.585938 C 162.417969 84.347656 151.257812 83.929688 139.945312 83.929688 C 134.433594 83.929688 128.886719 84.03125 123.324219 84.0625 L 123.394531 84.0625 C 123.394531 84.0625 123.34375 84.0625 123.34375 84.0625 C 114.460938 84.164062 105.554688 84.296875 96.640625 84.296875 C 84.394531 84.296875 72.128906 84.050781 59.839844 83.160156 C 55.628906 82.914062 50.894531 82.667969 46.816406 82.546875 C 45.277344 82.503906 43.761719 82.464844 42.285156 82.464844 C 41.242188 82.464844 40.226562 82.484375 39.222656 82.546875 C 38.882812 83.210938 38.628906 83.960938 38.445312 84.800781 C 38.1875 85.957031 38.085938 87.261719 38.085938 88.5625 C 38.085938 88.789062 38.085938 89.003906 38.085938 89.230469 C 38.105469 90.007812 38.257812 90.871094 38.453125 91.882812 L 38.484375 92.070312 L 38.484375 92.253906 C 38.503906 92.398438 38.515625 92.53125 38.515625 92.671875 C 38.515625 93.351562 38.390625 94.015625 38.15625 94.621094 C 37.921875 95.226562 37.59375 95.757812 37.214844 96.210938 C 37.070312 96.382812 36.917969 96.527344 36.761719 96.671875 C 37.039062 99.089844 37.335938 101.53125 37.582031 104.011719 C 38.238281 109.097656 38.433594 114.140625 38.433594 119.121094 C 38.433594 126.625 38.003906 134.027344 38.003906 141.296875 C 38.003906 143.191406 38.035156 145.070312 38.105469 146.945312 C 38.976562 157.402344 39.253906 167.847656 39.253906 178.261719 C 39.253906 184.566406 39.152344 190.863281 39.015625 197.136719 L 39.015625 197.175781 C 38.71875 205.441406 38.175781 213.609375 38.175781 221.6875 C 38.175781 224.035156 38.21875 226.375 38.332031 228.699219 C 39.039062 238.6875 39.550781 250.09375 39.859375 259.703125 C 41.199219 275.746094 42.59375 291.902344 42.59375 308.203125 C 42.59375 309.863281 42.574219 311.523438 42.542969 313.195312 C 42.933594 319.191406 43.035156 325.300781 43.035156 331.378906 C 43.035156 337.367188 42.941406 343.332031 42.941406 349.136719 C 42.941406 351.105469 42.953125 353.050781 42.984375 354.980469 C 43.105469 357.152344 43.25 359.324219 43.445312 361.457031 C 44.050781 361.457031 44.652344 361.4375 45.246094 361.4375 C 52.484375 361.4375 59.523438 362.105469 66.378906 362.105469 C 67.207031 362.105469 68.039062 362.105469 68.859375 362.074219 C 77.84375 361.785156 86.832031 360.484375 95.890625 359.027344 L 95.910156 359.027344 C 95.910156 359.027344 95.933594 359.027344 95.933594 359.027344 C 108.9375 357.132812 122.113281 354.761719 135.671875 354.496094 C 136.605469 354.476562 137.527344 354.464844 138.449219 354.464844 C 146.0625 354.464844 153.492188 355.144531 160.738281 355.144531 C 162.242188 355.144531 163.75 355.113281 165.246094 355.050781 C 171.394531 354.734375 177.65625 354.128906 184.070312 354.027344 C 184.070312 354.027344 184.101562 354.027344 184.101562 354.027344 L 184.121094 354.027344 C 185.421875 353.984375 186.726562 353.964844 188.015625 353.964844 C 203.140625 353.964844 217.804688 356.496094 232.304688 357.253906 C 233.03125 357.273438 233.769531 357.273438 234.507812 357.273438 C 237.808594 357.273438 241.191406 357.132812 244.652344 357.132812 C 246.230469 357.132812 247.839844 357.171875 249.460938 357.253906 C 249.550781 356.609375 249.65625 355.972656 249.757812 355.367188 C 250.023438 353.800781 250.257812 352.363281 250.289062 351.328125 C 250.527344 345.136719 251.398438 339.109375 252.195312 333.203125 C 252.984375 327.289062 253.703125 321.496094 253.703125 315.796875 C 253.703125 313.972656 253.628906 312.160156 253.464844 310.34375 L 253.464844 310.324219 C 253.464844 310.324219 253.445312 310.160156 253.445312 310.160156 C 253.3125 309.011719 253.199219 307.851562 253.097656 306.714844 C 253.066406 306.398438 253.046875 306.109375 253.027344 305.84375 C 252.953125 304.980469 252.882812 304.121094 252.8125 303.25 C 252.78125 302.839844 252.75 302.441406 252.730469 302.039062 C 252.675781 301.28125 252.625 300.511719 252.574219 299.753906 C 252.554688 299.34375 252.523438 298.921875 252.503906 298.511719 C 252.484375 298.207031 252.460938 297.867188 252.441406 297.519531 L 252.296875 294.773438 L 252.339844 294.773438 C 252.132812 290.160156 252 285.574219 251.859375 281.015625 C 251.703125 277.796875 251.558594 274.535156 251.558594 271.234375 C 251.558594 268.199219 251.683594 265.125 252.050781 262.019531 C 252.757812 256.234375 253.96875 250.832031 254.113281 245.617188 C 254.03125 240.714844 253.300781 235.652344 252.964844 230.332031 C 252.863281 228.558594 252.8125 226.785156 252.8125 225.03125 C 252.8125 220.714844 253.078125 216.460938 253.382812 212.257812 C 253.785156 201.328125 255.957031 190.914062 256.632812 180.652344 C 256.644531 180.242188 256.652344 179.832031 256.652344 179.421875 Z M 191.550781 149.109375 C 191.949219 151.25 192.554688 153.105469 193.324219 154.59375 C 193.621094 154.828125 193.949219 155.042969 194.347656 155.21875 C 194.890625 155.445312 195.546875 155.628906 196.304688 155.75 C 197.792969 155.996094 199.617188 156.027344 201.523438 156.171875 C 202.503906 156.210938 203.488281 156.234375 204.472656 156.234375 C 211.75 156.234375 219.066406 155.1875 226.515625 154.007812 C 232.921875 152.992188 239.417969 151.898438 246.066406 151.332031 C 246.117188 150.984375 246.199219 150.65625 246.304688 150.328125 C 239.253906 144.742188 231.945312 139.019531 226.1875 131.363281 C 223.328125 127.691406 220.765625 123.980469 218 120.609375 C 215.632812 117.984375 212.980469 115.523438 210.253906 112.972656 C 206 109.105469 202.238281 104.925781 198.5 100.875 C 198.335938 105.910156 197.0625 110.632812 195.324219 115.0625 C 194.234375 118.28125 193.117188 122.546875 192.289062 127.148438 C 191.460938 131.761719 190.90625 136.722656 190.90625 141.316406 C 190.90625 144.105469 191.109375 146.761719 191.550781 149.097656 Z M 334.699219 162.976562 C 334.699219 161.914062 334.699219 160.847656 334.730469 159.78125 C 334.730469 159.78125 334.730469 159.730469 334.730469 159.730469 C 335.242188 144.84375 337.9375 130.429688 338.746094 116.140625 C 338.890625 113.71875 338.949219 111.300781 338.949219 108.882812 C 338.949219 107.40625 338.921875 105.929688 338.878906 104.453125 C 337.609375 104.421875 336.359375 104.402344 335.117188 104.402344 C 333.007812 104.402344 330.90625 104.460938 328.652344 104.667969 C 321.109375 105.664062 313.609375 105.980469 306.109375 105.980469 L 305.984375 105.980469 C 304.222656 106.125 302.367188 106.421875 300.410156 106.699219 C 298.421875 106.984375 296.320312 107.242188 294.109375 107.25 C 292.847656 107.25 291.535156 107.160156 290.214844 106.933594 L 290.132812 106.933594 C 290.132812 106.933594 290.050781 106.902344 290.050781 106.902344 C 287.476562 106.308594 284.332031 105.632812 281.226562 104.535156 C 278.132812 103.425781 275.007812 101.898438 272.546875 99.335938 C 270.917969 97.636719 269.648438 95.441406 269.09375 92.847656 L 269.074219 92.753906 L 269.074219 92.683594 C 268.898438 91.679688 268.835938 90.707031 268.835938 89.742188 C 268.835938 87.84375 269.074219 86.0625 269.328125 84.390625 C 269.585938 82.71875 269.84375 81.152344 269.953125 79.714844 L 269.953125 79.683594 C 269.953125 79.683594 269.953125 79.652344 269.953125 79.652344 C 270.253906 76.792969 270.375 73.863281 270.496094 70.859375 L 270.496094 70.816406 C 270.496094 70.816406 270.496094 70.777344 270.496094 70.777344 C 270.660156 68.367188 270.691406 65.917969 270.691406 63.425781 C 270.691406 61.4375 270.671875 59.417969 270.671875 57.378906 C 270.671875 53.6875 270.742188 49.925781 271.214844 46.109375 L 271.214844 46.082031 C 271.214844 46.082031 271.214844 46.058594 271.214844 46.058594 C 271.992188 40.421875 273.335938 35.007812 274.597656 29.707031 L 274.617188 29.636719 L 274.636719 29.554688 C 274.875 28.753906 275.148438 27.523438 275.457031 26.101562 C 275.765625 24.664062 276.09375 23.015625 276.472656 21.28125 C 276.933594 19.171875 277.464844 16.957031 278.113281 14.824219 C 273.335938 14.433594 268.601562 14.15625 263.898438 14.15625 C 260.957031 14.15625 258.035156 14.269531 255.125 14.527344 C 247.59375 15.449219 239.878906 16.585938 231.9375 16.597656 C 230.890625 16.597656 229.835938 16.578125 228.769531 16.535156 L 228.761719 16.535156 C 228.761719 16.535156 228.730469 16.535156 228.730469 16.535156 C 218.777344 16.25 209.003906 15.378906 199.359375 15.386719 C 196.847656 15.386719 194.347656 15.449219 191.859375 15.582031 L 191.828125 15.582031 C 186.292969 15.828125 180.699219 16.0625 175.074219 16.0625 C 170.421875 16.0625 165.75 15.898438 161.054688 15.449219 L 161.074219 15.449219 C 154.660156 14.875 148.328125 13.820312 142.078125 12.90625 C 135.835938 12.003906 129.675781 11.257812 123.640625 11.257812 L 123.363281 11.257812 C 123.28125 11.769531 123.242188 12.324219 123.242188 12.925781 C 123.242188 14.640625 123.539062 16.667969 123.652344 18.863281 C 123.90625 23.28125 124.625 27.84375 125.003906 32.609375 C 125.402344 37.40625 125.609375 42.226562 125.609375 47.066406 C 125.609375 51.390625 125.445312 55.71875 125.085938 60.042969 L 125.085938 60.011719 C 124.828125 63.445312 124.789062 66.960938 124.71875 70.53125 C 134.945312 71.351562 144.957031 72.777344 154.894531 73.277344 C 164.109375 73.371094 173.496094 73.09375 183.027344 74.058594 L 183.003906 74.058594 C 185.371094 74.28125 187.839844 74.589844 190.332031 75.152344 C 192.8125 75.726562 195.3125 76.558594 197.691406 77.890625 L 197.792969 77.941406 L 197.882812 78.003906 C 202.371094 80.964844 206.09375 84.605469 209.433594 88.460938 C 212.753906 92.292969 215.703125 96.355469 218.636719 100.230469 C 220.859375 102.988281 223.636719 105.394531 226.597656 107.898438 C 229.550781 110.398438 232.664062 112.972656 235.441406 116.171875 C 235.441406 116.171875 235.453125 116.191406 235.453125 116.191406 L 235.460938 116.191406 C 235.460938 116.191406 235.460938 116.199219 235.460938 116.199219 C 238.742188 119.910156 241.671875 123.765625 244.683594 127.363281 C 249.808594 133.199219 255.054688 139.132812 259.453125 145.917969 C 260.128906 146.605469 260.824219 147.3125 261.53125 148.019531 C 262.011719 148.175781 262.472656 148.390625 262.90625 148.65625 C 263.714844 149.167969 264.421875 149.878906 264.953125 150.757812 L 265.015625 150.851562 L 265.066406 150.953125 C 265.382812 151.589844 265.601562 152.214844 265.761719 152.820312 C 266.144531 153.261719 266.511719 153.742188 266.859375 154.316406 C 267.382812 155.1875 267.804688 156.253906 267.945312 157.441406 L 267.96875 157.585938 C 268.386719 158.980469 268.644531 160.488281 268.644531 162.097656 C 268.644531 162.382812 268.644531 162.671875 268.621094 162.96875 C 268.621094 162.96875 268.621094 163.019531 268.621094 163.019531 C 268.621094 163.171875 268.601562 163.335938 268.601562 163.511719 C 268.601562 164.074219 268.664062 164.773438 268.726562 165.5625 C 268.796875 166.351562 268.878906 167.222656 268.878906 168.175781 C 268.878906 169.035156 268.808594 169.980469 268.5625 170.972656 C 268.398438 171.621094 268.140625 172.285156 267.78125 172.933594 C 267.78125 173.394531 267.761719 173.9375 267.722656 174.550781 C 267.667969 175.238281 267.597656 175.988281 267.445312 176.746094 C 267.339844 177.238281 267.21875 177.742188 266.984375 178.285156 C 266.960938 181.542969 266.902344 184.785156 266.902344 187.992188 C 266.902344 192.257812 267.003906 196.460938 267.402344 200.589844 C 267.988281 204.96875 268.601562 209.5 268.601562 214.183594 C 268.601562 215.054688 268.582031 215.9375 268.53125 216.828125 L 268.53125 216.859375 C 268.53125 216.859375 268.53125 216.878906 268.53125 216.878906 C 268.285156 222.683594 267.578125 228.269531 267.394531 233.714844 C 267.503906 241.421875 268.070312 249.953125 268.070312 258.132812 C 268.070312 261.074219 267.996094 263.964844 267.804688 266.773438 L 267.804688 266.898438 C 267.804688 276.257812 266.820312 285.472656 265.25 294.617188 L 265.507812 294.617188 C 275.46875 295.101562 285.234375 296.082031 294.898438 296.082031 C 295.152344 296.082031 295.417969 296.082031 295.675781 296.082031 L 295.746094 296.082031 C 296.597656 296.105469 297.449219 296.105469 298.300781 296.105469 C 303.144531 296.105469 308.015625 295.859375 312.882812 295.429688 C 318.835938 294.710938 324.933594 293.683594 331.335938 293.675781 C 332.558594 293.675781 333.785156 293.714844 335.027344 293.796875 C 336.246094 293.816406 337.496094 293.828125 338.757812 293.839844 C 338.726562 292.9375 338.695312 292.054688 338.625 291.195312 L 338.625 291.132812 C 338.625 291.132812 338.625 291.0625 338.625 291.0625 C 338.519531 288.457031 338.488281 285.875 338.488281 283.300781 C 338.488281 277.929688 338.632812 272.609375 338.632812 267.347656 C 338.632812 263.875 338.570312 260.429688 338.367188 257.003906 C 337.824219 247.964844 336.777344 238.796875 336.636719 229.429688 C 336.636719 229.429688 336.636719 229.367188 336.636719 229.367188 C 336.574219 227.65625 336.554688 225.953125 336.554688 224.261719 C 336.554688 217.894531 336.871094 211.640625 336.871094 205.480469 C 336.871094 203.289062 336.828125 201.105469 336.726562 198.929688 C 335.898438 187.089844 334.667969 175.117188 334.667969 162.96875 Z M 334.699219 162.976562 "/></g></g></svg>