<svg xmlns="http://www.w3.org/2000/svg" xmlns:xlink="http://www.w3.org/1999/xlink" width="500" zoomAndPan="magnify" viewBox="0 0 375 374.999991" height="500" preserveAspectRatio="xMidYMid meet" version="1.2"><g id="db1ac490da"><path style=" stroke:none;fill-rule:nonzero;fill:#17a2b8;fill-opacity:1;" d="M 293.316406 42.828125 C 295.3125 52.058594 289.445312 61.160156 280.214844 63.15625 L 115.828125 98.671875 L 53.464844 112.144531 C 44.234375 114.140625 35.132812 108.273438 33.136719 99.042969 L 32.867188 97.785156 C 30.871094 88.554688 36.738281 79.449219 45.972656 77.457031 L 96.570312 66.523438 L 222.117188 39.398438 L 272.71875 28.464844 C 281.949219 26.46875 291.050781 32.335938 293.046875 41.570312 Z M 293.316406 42.828125 "/><path style=" stroke:none;fill-rule:nonzero;fill:#17a2b8;fill-opacity:1;" d="M 343.140625 98.671875 L 324.714844 340.347656 C 324.714844 356.214844 311.851562 369.082031 295.984375 369.082031 L 162.984375 369.082031 C 147.117188 369.082031 134.257812 356.214844 134.257812 340.347656 L 115.828125 98.671875 Z M 343.140625 98.671875 "/><path style=" stroke:none;fill-rule:nonzero;fill:#000101;fill-opacity:1;" d="M 295.984375 374.929688 L 162.984375 374.929688 C 143.996094 374.929688 128.53125 359.542969 128.40625 340.582031 L 109.996094 99.117188 C 109.871094 97.492188 110.429688 95.890625 111.539062 94.695312 C 112.644531 93.5 114.199219 92.820312 115.828125 92.820312 L 343.140625 92.820312 C 344.769531 92.820312 346.328125 93.5 347.433594 94.695312 C 348.539062 95.890625 349.101562 97.492188 348.976562 99.117188 L 330.566406 340.582031 C 330.4375 359.542969 314.972656 374.929688 295.984375 374.929688 Z M 122.140625 104.523438 L 140.089844 339.90625 C 140.101562 340.050781 140.105469 340.199219 140.105469 340.347656 C 140.105469 352.964844 150.371094 363.230469 162.984375 363.230469 L 295.984375 363.230469 C 308.601562 363.230469 318.863281 352.964844 318.863281 340.347656 C 318.863281 340.199219 318.871094 340.050781 318.882812 339.90625 L 336.828125 104.523438 Z M 122.140625 104.523438 "/><path style=" stroke:none;fill-rule:nonzero;fill:#000101;fill-opacity:1;" d="M 171.527344 317.257812 C 168.417969 317.257812 165.828125 314.8125 165.6875 311.671875 L 158.65625 156.613281 C 158.507812 153.386719 161.007812 150.648438 164.234375 150.503906 C 167.460938 150.355469 170.199219 152.855469 170.34375 156.082031 L 177.375 311.144531 C 177.523438 314.371094 175.023438 317.105469 171.796875 317.253906 C 171.707031 317.257812 171.617188 317.257812 171.527344 317.257812 Z M 171.527344 317.257812 "/><path style=" stroke:none;fill-rule:nonzero;fill:#000101;fill-opacity:1;" d="M 287.441406 317.257812 C 287.351562 317.257812 287.261719 317.257812 287.171875 317.253906 C 283.945312 317.105469 281.445312 314.371094 281.589844 311.144531 L 288.625 156.082031 C 288.769531 152.855469 291.507812 150.355469 294.734375 150.503906 C 297.960938 150.648438 300.460938 153.386719 300.3125 156.613281 L 293.28125 311.671875 C 293.140625 314.808594 290.550781 317.257812 287.441406 317.257812 Z M 287.441406 317.257812 "/><path style=" stroke:none;fill-rule:nonzero;fill:#000101;fill-opacity:1;" d="M 208.019531 317.257812 C 204.835938 317.257812 202.226562 314.703125 202.171875 311.507812 L 199.566406 156.445312 C 199.511719 153.214844 202.089844 150.550781 205.320312 150.496094 C 208.558594 150.441406 211.214844 153.019531 211.265625 156.25 L 213.871094 311.308594 C 213.925781 314.539062 211.351562 317.203125 208.121094 317.257812 C 208.089844 317.257812 208.054688 317.257812 208.019531 317.257812 Z M 208.019531 317.257812 "/><path style=" stroke:none;fill-rule:nonzero;fill:#000101;fill-opacity:1;" d="M 250.949219 317.257812 C 250.914062 317.257812 250.882812 317.257812 250.847656 317.257812 C 247.617188 317.203125 245.042969 314.539062 245.097656 311.308594 L 247.703125 156.25 C 247.757812 153.019531 250.410156 150.4375 253.652344 150.496094 C 256.882812 150.550781 259.457031 153.214844 259.402344 156.445312 L 256.796875 311.507812 C 256.742188 314.703125 254.136719 317.257812 250.949219 317.257812 Z M 250.949219 317.257812 "/><path style=" stroke:none;fill-rule:nonzero;fill:#000101;fill-opacity:1;" d="M 49.804688 118.390625 C 45.445312 118.390625 41.171875 117.140625 37.417969 114.722656 C 32.265625 111.402344 28.714844 106.273438 27.417969 100.277344 L 27.144531 99.015625 C 25.851562 93.027344 26.96875 86.890625 30.289062 81.734375 C 33.613281 76.582031 38.742188 73.03125 44.738281 71.738281 L 95.335938 60.804688 L 220.882812 33.679688 L 271.480469 22.746094 C 277.472656 21.449219 283.613281 22.566406 288.765625 25.890625 C 293.917969 29.210938 297.46875 34.339844 298.765625 40.332031 L 299.035156 41.597656 C 301.710938 53.960938 293.820312 66.199219 281.449219 68.875 L 54.699219 117.863281 C 53.074219 118.214844 51.433594 118.390625 49.804688 118.390625 Z M 276.351562 33.925781 C 275.554688 33.925781 274.75 34.011719 273.953125 34.183594 L 223.355469 45.117188 L 97.804688 72.242188 L 47.207031 83.175781 C 44.269531 83.808594 41.753906 85.550781 40.125 88.078125 C 38.496094 90.601562 37.949219 93.613281 38.585938 96.550781 L 38.855469 97.8125 C 39.492188 100.746094 41.230469 103.257812 43.757812 104.886719 C 46.28125 106.515625 49.292969 107.0625 52.226562 106.425781 L 278.976562 57.4375 C 285.042969 56.125 288.910156 50.125 287.597656 44.0625 L 287.324219 42.800781 C 286.691406 39.867188 284.953125 37.351562 282.425781 35.726562 C 280.585938 34.539062 278.488281 33.925781 276.351562 33.925781 Z M 222.117188 39.398438 L 222.121094 39.398438 Z M 222.117188 39.398438 "/><path style=" stroke:none;fill-rule:nonzero;fill:#000101;fill-opacity:1;" d="M 96.566406 72.375 C 93.867188 72.375 91.445312 70.5 90.851562 67.757812 L 85.1875 41.535156 C 84.367188 37.746094 85.070312 33.867188 87.171875 30.605469 C 89.273438 27.347656 92.515625 25.105469 96.304688 24.285156 L 204.921875 0.816406 C 208.707031 0 212.589844 0.703125 215.847656 2.804688 C 219.105469 4.902344 221.351562 8.148438 222.167969 11.9375 L 227.835938 38.160156 C 228.519531 41.320312 226.511719 44.433594 223.355469 45.117188 C 220.195312 45.796875 217.082031 43.792969 216.398438 40.632812 L 210.730469 14.40625 C 210.519531 13.417969 209.875 12.875 209.507812 12.636719 C 209.144531 12.402344 208.382812 12.039062 207.394531 12.253906 L 98.777344 35.722656 C 97.785156 35.9375 97.242188 36.582031 97.007812 36.945312 C 96.773438 37.3125 96.410156 38.074219 96.621094 39.0625 L 102.289062 65.285156 C 102.972656 68.445312 100.964844 71.558594 97.804688 72.242188 C 97.390625 72.332031 96.972656 72.375 96.566406 72.375 Z M 96.566406 72.375 "/></g></svg>