<svg xmlns="http://www.w3.org/2000/svg" xmlns:xlink="http://www.w3.org/1999/xlink" zoomAndPan="magnify" preserveAspectRatio="xMidYMid meet" version="1.2" viewBox="14.05 0 346.87 374.88"><defs><clipPath id="cc2a33ddeb"><path d="M 62.359375 29.898438 L 249.859375 29.898438 L 249.859375 375 L 62.359375 375 Z M 62.359375 29.898438 "/></clipPath><clipPath id="60532246e9"><path d="M 14.078125 0 L 228.183594 0 L 228.183594 11.019531 L 14.078125 11.019531 Z M 216.929688 11.019531 L 228.183594 11.019531 L 228.183594 342.070312 L 216.929688 342.070312 Z M 14.078125 11.019531 L 25.097656 11.019531 L 25.097656 342.070312 L 14.078125 342.070312 Z M 14.078125 342.070312 L 228.183594 342.070312 L 228.183594 353 L 14.078125 353 Z M 14.078125 342.070312 "/></clipPath><clipPath id="0991e07781"><path d="M 138.792969 106.828125 L 361 106.828125 L 361 246.648438 L 138.792969 246.648438 Z M 138.792969 106.828125 "/></clipPath></defs><g id="3f90b20404"><g clip-rule="nonzero" clip-path="url(#cc2a33ddeb)"><path style=" stroke:none;fill-rule:nonzero;fill:#17a2b8;fill-opacity:1;" d="M 62.359375 29.898438 L 249.859375 29.898438 L 249.859375 374.867188 L 62.359375 374.867188 Z M 62.359375 29.898438 "/></g><g clip-rule="nonzero" clip-path="url(#60532246e9)"><path style=" stroke:none;fill-rule:nonzero;fill:#000000;fill-opacity:1;" d="M 14.078125 0 L 228.183594 0 L 228.183594 352.941406 L 14.078125 352.941406 Z M 14.078125 0 "/></g><g clip-rule="nonzero" clip-path="url(#0991e07781)"><path style=" stroke:none;fill-rule:nonzero;fill:#231f20;fill-opacity:1;" d="M 360.898438 179.015625 L 357.78125 174.339844 L 352.488281 170.539062 L 273.933594 114.125 L 263.824219 106.863281 L 266.648438 118.988281 L 271.578125 140.164062 L 275.042969 155.039062 L 143.898438 143.140625 L 138.792969 142.679688 L 138.792969 206.019531 L 141.914062 205.722656 L 141.914062 210.699219 L 147.039062 210.210938 L 273.898438 198.09375 L 272.089844 205.976562 L 266.644531 229.703125 L 264.035156 241.0625 L 263.871094 241.230469 L 263.871094 241.777344 L 266.992188 246.457031 L 277.054688 239.230469 L 316.328125 211.023438 L 355.605469 182.820312 Z M 274.324219 122.605469 C 276.109375 130.273438 277.894531 137.941406 279.679688 145.613281 C 277.894531 137.941406 276.109375 130.273438 274.324219 122.605469 Z M 146.59375 152.480469 L 146.59375 200.578125 Z M 146.59375 205.554688 L 146.59375 205.277344 L 146.59375 205.554688 L 236.824219 196.933594 Z M 157.160156 153.4375 L 284.1875 164.960938 Z M 274.324219 235.429688 C 274.429688 234.964844 274.535156 234.503906 274.640625 234.042969 C 274.535156 234.503906 274.429688 234.964844 274.324219 235.429688 Z M 276.226562 227.144531 C 278.882812 215.566406 281.542969 203.988281 284.199219 192.410156 C 281.542969 203.988281 278.882812 215.566406 276.226562 227.144531 Z M 313.601562 207.222656 L 290.566406 223.765625 L 313.601562 207.222656 L 341.445312 187.226562 Z M 348.058594 175.558594 L 313.601562 150.8125 L 295.035156 137.480469 L 313.601562 150.8125 Z M 352.875 179.015625 L 352.070312 178.4375 Z M 352.875 179.015625 "/></g><path style=" stroke:none;fill-rule:nonzero;fill:#ffc312;fill-opacity:1;" d="M 310.480469 146.132812 L 271.203125 117.925781 C 274.492188 132.046875 277.78125 146.164062 281.066406 160.285156 L 143.472656 147.800781 L 143.472656 200.875 L 281.082031 187.730469 C 277.789062 202.070312 274.496094 216.410156 271.203125 230.75 L 310.480469 202.542969 L 349.757812 174.339844 Z M 310.480469 146.132812 "/></g></svg>