<svg xmlns="http://www.w3.org/2000/svg" xmlns:xlink="http://www.w3.org/1999/xlink" width="500" zoomAndPan="magnify" viewBox="0 0 375 374.999991" height="500" preserveAspectRatio="xMidYMid meet" version="1.2"><defs><clipPath id="5c57fdd89f"><path d="M 90.402344 15.570312 L 281.605469 15.570312 L 281.605469 375 L 90.402344 375 Z M 90.402344 15.570312 "/></clipPath><clipPath id="e377abdd8c"><path d="M 68.542969 0 L 275.957031 0 L 275.957031 11.476562 L 68.542969 11.476562 Z M 264.234375 11.476562 L 275.957031 11.476562 L 275.957031 356.273438 L 264.234375 356.273438 Z M 68.542969 11.476562 L 80.019531 11.476562 L 80.019531 356.273438 L 68.542969 356.273438 Z M 68.542969 356.273438 L 275.957031 356.273438 L 275.957031 367.992188 L 68.542969 367.992188 Z M 68.542969 356.273438 "/></clipPath><clipPath id="5007066900"><path d="M 245.566406 159.742188 L 294.078125 159.742188 L 294.078125 208.253906 L 245.566406 208.253906 Z M 245.566406 159.742188 "/></clipPath><clipPath id="867b015144"><path d="M 269.820312 159.742188 C 256.425781 159.742188 245.566406 170.601562 245.566406 183.996094 C 245.566406 197.394531 256.425781 208.253906 269.820312 208.253906 C 283.21875 208.253906 294.078125 197.394531 294.078125 183.996094 C 294.078125 170.601562 283.21875 159.742188 269.820312 159.742188 Z M 269.820312 159.742188 "/></clipPath><filter x="0%" y="0%" width="100%" filterUnits="objectBoundingBox" id="bafe40139a" height="100%"><feColorMatrix values="0 0 0 0 1 0 0 0 0 1 0 0 0 0 1 0 0 0 1 0" type="matrix" in="SourceGraphic"/></filter><clipPath id="5076e3b4d3"><path d="M 0.355469 0.476562 L 41.285156 0.476562 L 41.285156 49 L 0.355469 49 Z M 0.355469 0.476562 "/></clipPath><clipPath id="0a9d9d1b26"><path d="M 20.820312 0.476562 C 9.519531 0.476562 0.355469 11.339844 0.355469 24.734375 C 0.355469 38.128906 9.519531 48.988281 20.820312 48.988281 C 32.121094 48.988281 41.285156 38.128906 41.285156 24.734375 C 41.285156 11.339844 32.121094 0.476562 20.820312 0.476562 Z M 20.820312 0.476562 "/></clipPath><clipPath id="8a85cfd662"><rect x="0" width="42" y="0" height="50"/></clipPath><clipPath id="c9c3f84007"><path d="M 191 254 L 355 254 L 355 310 L 191 310 Z M 191 254 "/></clipPath><clipPath id="a0087ff47a"><path d="M 191.824219 265.441406 L 351.6875 254.261719 L 354.78125 298.523438 L 194.921875 309.703125 Z M 191.824219 265.441406 "/></clipPath><clipPath id="db975887d3"><path d="M 184.9375 183.996094 L 349.785156 183.996094 L 349.785156 313.746094 L 184.9375 313.746094 Z M 184.9375 183.996094 "/></clipPath></defs><g id="169f09ab52"><g clip-rule="nonzero" clip-path="url(#5c57fdd89f)"><path style=" stroke:none;fill-rule:nonzero;fill:#17a2b8;fill-opacity:1;" d="M 90.402344 15.570312 L 281.605469 15.570312 L 281.605469 374.820312 L 90.402344 374.820312 Z M 90.402344 15.570312 "/></g><g clip-rule="nonzero" clip-path="url(#e377abdd8c)"><path style=" stroke:none;fill-rule:nonzero;fill:#000000;fill-opacity:1;" d="M 68.542969 0 L 275.957031 0 L 275.957031 367.828125 L 68.542969 367.828125 Z M 68.542969 0 "/></g><g clip-rule="nonzero" clip-path="url(#5007066900)"><g clip-rule="nonzero" clip-path="url(#867b015144)"><path style=" stroke:none;fill-rule:nonzero;fill:#000101;fill-opacity:1;" d="M 245.566406 159.742188 L 294.078125 159.742188 L 294.078125 208.253906 L 245.566406 208.253906 Z M 245.566406 159.742188 "/></g></g><g mask="url(#dbf6ea07e0)" transform="matrix(1,0,0,1,249,166)"><g clip-path="url(#8a85cfd662)"><g clip-rule="nonzero" clip-path="url(#5076e3b4d3)"><g clip-rule="nonzero" clip-path="url(#0a9d9d1b26)"><path style=" stroke:none;fill-rule:nonzero;fill:#000101;fill-opacity:1;" d="M 0.355469 0.476562 L 41.285156 0.476562 L 41.285156 48.921875 L 0.355469 48.921875 Z M 0.355469 0.476562 "/></g></g></g><mask id="dbf6ea07e0"><g filter="url(#bafe40139a)"><rect x="0" width="375" y="0" height="374.999991" style="fill:#000000;fill-opacity:0.06;stroke:none;"/></g></mask></g><g clip-rule="nonzero" clip-path="url(#c9c3f84007)"><g clip-rule="nonzero" clip-path="url(#a0087ff47a)"><path style=" stroke:none;fill-rule:nonzero;fill:#ffc312;fill-opacity:1;" d="M 191.824219 265.441406 L 351.757812 254.257812 L 354.855469 298.519531 L 194.921875 309.703125 Z M 191.824219 265.441406 "/></g></g><g clip-rule="nonzero" clip-path="url(#db975887d3)"><path style=" stroke:none;fill-rule:evenodd;fill:#080405;fill-opacity:1;" d="M 336.394531 254.832031 C 338.207031 256.628906 338.433594 256.941406 338.390625 257.5 C 338.332031 258.304688 339.011719 259.027344 339.832031 259.027344 C 340.90625 259.027344 341.566406 257.765625 340.964844 256.859375 C 340.78125 256.589844 340.636719 256.238281 340.636719 256.074219 C 340.636719 255.929688 340.082031 255.164062 339.421875 254.355469 L 338.207031 252.929688 L 339.15625 252.867188 C 339.6875 252.828125 341.070312 252.847656 342.246094 252.929688 L 344.347656 253.074219 L 344.222656 254.027344 C 344.160156 254.5625 344.199219 256.300781 344.347656 257.890625 C 344.46875 259.484375 344.65625 264.917969 344.757812 269.984375 C 345.023438 282.242188 345.746094 292.84375 346.816406 300.367188 C 347.042969 301.898438 347.230469 303.304688 347.230469 303.488281 C 347.230469 303.796875 346.734375 303.859375 343.171875 303.964844 C 335.363281 304.210938 329.988281 304.523438 324.980469 305.019531 C 322.199219 305.285156 318.78125 305.617188 317.359375 305.742188 C 315.9375 305.84375 313.957031 306.03125 312.929688 306.132812 C 311.917969 306.257812 308.996094 306.445312 306.441406 306.566406 C 303.886719 306.691406 299.3125 306.941406 296.242188 307.105469 C 293.195312 307.25 289.546875 307.394531 288.1875 307.394531 C 286.808594 307.394531 282.398438 307.582031 278.402344 307.789062 C 274.386719 308.015625 267.628906 308.304688 263.382812 308.410156 C 259.140625 308.53125 253.351562 308.78125 250.507812 308.945312 C 243.648438 309.359375 236.933594 309.648438 228.589844 309.875 C 224.800781 310 220.347656 310.164062 218.699219 310.289062 C 217.054688 310.390625 213.695312 310.578125 211.265625 310.703125 C 208.832031 310.828125 205.578125 311.054688 204.054688 311.238281 C 201.933594 311.46875 196.65625 311.796875 192.703125 311.941406 C 192.621094 311.941406 192.515625 310.847656 192.433594 309.503906 C 192.351562 308.179688 192.1875 306.238281 192.085938 305.226562 C 191.980469 304.191406 191.753906 302.019531 191.589844 300.367188 C 191.425781 298.714844 190.972656 294.765625 190.582031 291.582031 C 190.167969 288.398438 189.652344 283.523438 189.425781 280.730469 C 189.179688 277.941406 188.828125 274.59375 188.625 273.289062 C 188.398438 271.988281 188.128906 269.984375 187.984375 268.847656 C 187.863281 267.710938 187.53125 265.332031 187.265625 263.574219 C 186.996094 261.820312 186.8125 260.351562 186.832031 260.332031 C 186.894531 260.246094 189.652344 259.917969 191.34375 259.75 L 192.765625 259.628906 L 192.433594 260.101562 C 192.25 260.351562 192.105469 260.742188 192.105469 260.929688 C 192.105469 261.136719 191.980469 261.488281 191.859375 261.714844 C 191.632812 262.085938 191.671875 262.191406 192.207031 262.644531 C 193.382812 263.597656 194.660156 263.140625 194.535156 261.796875 C 194.496094 261.300781 194.617188 260.972656 194.988281 260.558594 C 195.75 259.75 196.515625 259.503906 198.699219 259.339844 C 199.769531 259.277344 202.097656 259.089844 203.847656 258.925781 C 211.53125 258.222656 217.03125 257.953125 229.679688 257.582031 C 233.390625 257.476562 236.828125 257.332031 237.304688 257.269531 C 237.757812 257.230469 240.476562 257.066406 243.296875 256.960938 C 246.140625 256.835938 250.589844 256.609375 253.1875 256.425781 C 255.804688 256.257812 261.363281 256.03125 265.546875 255.929688 C 273.5 255.742188 278.15625 255.492188 284.089844 254.996094 C 286.023438 254.832031 291.132812 254.644531 295.4375 254.582031 C 299.992188 254.523438 304.398438 254.355469 305.945312 254.191406 C 307.40625 254.027344 311.382812 253.738281 314.78125 253.550781 C 318.183594 253.363281 322.363281 253.136719 324.054688 253.054688 C 325.761719 252.972656 328.75 252.867188 330.726562 252.847656 L 334.332031 252.828125 Z M 269.769531 190.175781 C 270.757812 191.5625 290.742188 211.816406 296.015625 216.820312 C 298.386719 219.054688 302.238281 222.730469 304.566406 225.003906 C 308.335938 228.644531 312.066406 232.136719 324.363281 243.464844 C 326.238281 245.199219 328.730469 247.515625 329.902344 248.652344 L 332.046875 250.675781 L 325.679688 250.925781 C 317.398438 251.257812 309.734375 251.710938 306.128906 252.105469 C 302.15625 252.515625 296.386719 252.746094 291.609375 252.660156 C 289.136719 252.621094 286.25 252.722656 284.089844 252.910156 C 278.980469 253.363281 273.539062 253.632812 264.824219 253.859375 C 260.582031 253.984375 255.472656 254.148438 253.496094 254.273438 C 251.519531 254.378906 248.035156 254.5625 245.769531 254.6875 C 243.503906 254.8125 239.527344 255.039062 236.910156 255.203125 C 234.316406 255.371094 229.25 255.617188 225.683594 255.742188 C 222.121094 255.867188 217.484375 256.050781 215.382812 256.15625 C 210.769531 256.382812 199.4375 256.734375 199.355469 256.652344 C 199.253906 256.546875 217.382812 238.8125 220.121094 236.332031 C 224.203125 232.675781 237.078125 219.941406 243.917969 212.832031 C 247.171875 209.421875 253.785156 202.703125 258.585938 197.886719 L 267.320312 189.164062 L 268.183594 189.183594 C 268.96875 189.183594 269.109375 189.269531 269.769531 190.175781 Z M 265.464844 188.460938 C 265.792969 188.75 264.558594 190.054688 248.46875 206.195312 C 229.082031 225.6875 217.421875 236.996094 214.375 239.289062 C 213.242188 240.136719 218.125 234.988281 227.539062 225.441406 C 232.9375 219.984375 240.539062 212.253906 244.429688 208.261719 C 250.386719 202.207031 264.722656 188.171875 265.011719 188.152344 C 265.074219 188.132812 265.257812 188.277344 265.464844 188.460938 Z M 275.023438 191.664062 C 276.382812 192.84375 278.464844 194.746094 279.660156 195.882812 C 280.855469 197.019531 283.222656 199.230469 284.914062 200.78125 C 287.980469 203.59375 301.351562 217.046875 314.472656 230.503906 C 325.558594 241.871094 326.835938 243.359375 320.738281 237.738281 C 318.945312 236.085938 317.050781 234.367188 316.535156 233.914062 C 314.144531 231.804688 310.3125 228.25 306.644531 224.738281 C 304.441406 222.609375 300.445312 218.824219 297.789062 216.304688 C 295.128906 213.800781 287.941406 206.609375 281.820312 200.324219 C 275.703125 194.042969 270.554688 188.792969 270.347656 188.667969 C 270.121094 188.503906 270.058594 188.253906 270.121094 187.839844 L 270.246094 187.261719 L 271.398438 188.378906 C 272.035156 189 273.664062 190.46875 275.023438 191.664062 Z M 265.648438 184.410156 C 265.054688 185.011719 265.113281 185.980469 265.753906 186.394531 C 266.226562 186.703125 266.308594 186.703125 266.785156 186.394531 C 267.359375 186.003906 268.121094 186.25 268.121094 186.789062 C 268.121094 187.179688 267.070312 187.199219 265.773438 186.847656 C 264.640625 186.539062 264.765625 186.476562 260.914062 189.910156 C 255.722656 194.539062 251.332031 198.777344 244.636719 205.597656 C 241.074219 209.234375 233.058594 217.359375 226.839844 223.683594 C 220.617188 229.988281 214.273438 236.539062 212.726562 238.253906 C 211.179688 239.949219 208.667969 242.699219 207.144531 244.351562 C 205.597656 246.007812 203.003906 248.839844 201.335938 250.65625 C 199.6875 252.476562 197.585938 254.707031 196.679688 255.597656 L 195.011719 257.230469 L 192.167969 257.394531 C 189.367188 257.539062 187.179688 257.851562 186.214844 258.199219 C 184.914062 258.699219 184.605469 260.433594 185.285156 263.679688 C 185.492188 264.691406 185.78125 266.695312 185.90625 268.121094 C 186.046875 269.550781 186.335938 272.007812 186.542969 273.601562 C 186.75 275.191406 187.039062 277.980469 187.140625 279.800781 C 187.265625 281.621094 187.40625 283.894531 187.46875 284.867188 C 187.59375 286.664062 188.089844 290.960938 188.789062 296.542969 C 189.015625 298.238281 189.34375 301.460938 189.53125 303.675781 C 190.105469 310.496094 190.230469 311.570312 190.683594 312.519531 C 190.929688 312.996094 191.300781 313.492188 191.527344 313.617188 C 192.0625 313.90625 200.757812 313.679688 204.363281 313.265625 C 205.847656 313.101562 208.378906 312.976562 210.027344 312.976562 C 211.675781 312.976562 214.167969 312.875 215.589844 312.769531 C 217.011719 312.664062 221.171875 312.480469 224.859375 312.355469 C 228.546875 312.253906 233.820312 312.046875 236.601562 311.921875 C 239.382812 311.796875 243.421875 311.613281 245.566406 311.527344 C 247.726562 311.445312 251.519531 311.257812 254.011719 311.136719 C 256.503906 311.011719 261.695312 310.828125 265.546875 310.703125 C 282.933594 310.226562 306.460938 309.195312 312.621094 308.636719 C 313.917969 308.511719 316.65625 308.285156 318.699219 308.117188 C 320.738281 307.953125 324.363281 307.621094 326.730469 307.394531 C 329.121094 307.167969 333.28125 306.898438 336.003906 306.777344 C 343.046875 306.464844 347.230469 306.175781 348.054688 305.949219 C 349.886719 305.453125 350.050781 304.707031 349.515625 299.996094 C 348.917969 294.992188 348.507812 290.09375 348.257812 285.382812 C 348.15625 283.109375 347.972656 279.800781 347.847656 278.042969 C 347.746094 276.289062 347.558594 271.90625 347.433594 268.328125 C 347.3125 264.753906 347.085938 260.535156 346.921875 258.964844 C 346.757812 257.375 346.613281 255.410156 346.613281 254.582031 C 346.613281 252.25 346.46875 251.835938 345.539062 251.359375 C 344.820312 250.988281 344.179688 250.925781 340.453125 250.824219 L 336.207031 250.699219 L 332.828125 247.472656 C 330.976562 245.695312 327.207031 241.832031 324.464844 238.875 C 321.703125 235.917969 318.183594 232.238281 316.636719 230.710938 C 315.09375 229.179688 312.515625 226.515625 310.910156 224.820312 C 305.679688 219.21875 287.445312 200.925781 284.046875 197.867188 C 278.03125 192.429688 274.859375 189.515625 272.632812 187.367188 C 271.046875 185.835938 270.078125 185.070312 269.132812 184.617188 C 267.546875 183.871094 266.269531 183.789062 265.648438 184.410156 "/></g><path style=" stroke:none;fill-rule:evenodd;fill:#080405;fill-opacity:1;" d="M 331.429688 259.007812 C 332.542969 261.777344 336.332031 264.359375 338.578125 263.925781 C 338.90625 263.84375 339.464844 263.84375 339.792969 263.90625 L 340.371094 264.03125 L 340.511719 266.222656 C 340.574219 267.441406 340.742188 271.96875 340.84375 276.289062 C 341.050781 284.367188 341.378906 292.121094 341.566406 293.257812 C 341.667969 293.898438 341.667969 293.898438 340.328125 294.230469 C 338.617188 294.664062 337.484375 295.429688 335.980469 297.246094 L 334.765625 298.714844 L 332.601562 298.714844 C 331.40625 298.714844 329.246094 298.796875 327.761719 298.921875 C 326.300781 299.023438 322.40625 299.210938 319.109375 299.332031 C 315.832031 299.457031 311.878906 299.644531 310.355469 299.746094 C 308.832031 299.851562 305.390625 300.039062 302.730469 300.160156 C 300.074219 300.285156 295.210938 300.574219 291.917969 300.800781 C 288.640625 301.007812 284.746094 301.195312 283.304688 301.195312 C 281.84375 301.195312 278.609375 301.378906 276.09375 301.605469 C 273.582031 301.8125 268.78125 302.101562 265.445312 302.226562 C 262.105469 302.351562 258.296875 302.539062 256.996094 302.640625 C 255.699219 302.742188 253.332031 302.847656 251.746094 302.847656 C 250.160156 302.847656 246.222656 302.992188 242.988281 303.15625 C 239.753906 303.304688 235.222656 303.488281 232.894531 303.570312 C 227.558594 303.714844 216.910156 304.441406 211.265625 305.039062 C 209.738281 305.183594 207.164062 305.410156 205.578125 305.554688 L 202.652344 305.78125 L 201.664062 304.996094 C 200.324219 303.984375 199.046875 303.449219 197.648438 303.324219 L 196.472656 303.199219 L 196.347656 301.113281 C 196.265625 299.972656 195.9375 296.9375 195.605469 294.375 C 195.277344 291.808594 194.949219 288.875 194.886719 287.863281 C 194.804688 286.828125 194.660156 285.546875 194.558594 284.988281 C 194.453125 284.429688 194.226562 281.886719 194.0625 279.304688 C 193.773438 275.109375 193.546875 273.042969 193.21875 271.410156 C 193.136719 270.933594 193.21875 270.832031 194.101562 270.5 C 196.453125 269.589844 199.070312 267.460938 200.304688 265.394531 C 200.839844 264.546875 200.757812 264.566406 205.597656 264.195312 C 207.183594 264.070312 209.699219 263.84375 211.203125 263.679688 C 212.6875 263.511719 215.507812 263.285156 217.484375 263.160156 C 223.4375 262.832031 227.722656 262.542969 230.113281 262.335938 C 231.371094 262.230469 233.636719 262.128906 235.160156 262.128906 C 236.6875 262.128906 239.753906 261.984375 241.960938 261.820312 C 244.164062 261.652344 249.871094 261.425781 254.628906 261.300781 C 259.386719 261.179688 264.539062 260.992188 266.0625 260.886719 C 267.585938 260.765625 271.296875 260.683594 274.300781 260.683594 C 277.308594 260.683594 281.535156 260.558594 283.675781 260.390625 C 285.839844 260.226562 288.660156 260.039062 289.960938 259.957031 C 293.832031 259.773438 302.402344 259.253906 305.71875 259.027344 C 311.589844 258.636719 318.285156 258.367188 319.519531 258.492188 C 320.203125 258.550781 322.242188 258.53125 324.054688 258.449219 C 325.867188 258.367188 328.195312 258.304688 329.246094 258.285156 L 331.121094 258.285156 Z M 317.566406 257.394531 C 313.648438 257.476562 309.199219 257.644531 307.675781 257.765625 C 306.152344 257.914062 303.597656 258.097656 302.011719 258.199219 C 300.425781 258.304688 297.746094 258.46875 296.035156 258.59375 C 294.347656 258.71875 290.761719 258.964844 288.105469 259.132812 C 285.449219 259.296875 281.964844 259.523438 280.378906 259.628906 C 278.792969 259.730469 275.394531 259.835938 272.820312 259.835938 C 270.222656 259.835938 266.761719 259.9375 265.09375 260.039062 C 263.40625 260.164062 258.296875 260.351562 253.703125 260.476562 C 249.109375 260.597656 243.609375 260.828125 241.445312 260.992188 C 239.300781 261.15625 236.375 261.300781 234.957031 261.300781 C 233.535156 261.300781 231.410156 261.382812 230.214844 261.507812 C 227.910156 261.714844 224.179688 261.984375 218.679688 262.335938 C 213.304688 262.667969 200.449219 263.886719 200.117188 264.09375 C 200.015625 264.152344 199.605469 264.734375 199.191406 265.351562 C 197.933594 267.253906 195.296875 269.21875 193.136719 269.878906 C 192.394531 270.105469 192.0625 270.417969 192.289062 270.6875 C 192.578125 271.058594 192.910156 274.117188 193.136719 278.457031 C 193.257812 280.667969 193.484375 283.5 193.652344 284.761719 C 193.792969 286.003906 194.042969 288.335938 194.164062 289.929688 C 194.289062 291.519531 194.535156 293.753906 194.722656 294.890625 C 194.886719 296.027344 195.195312 298.589844 195.382812 300.574219 L 195.710938 304.191406 L 197.050781 304.316406 C 198.636719 304.460938 199.480469 304.789062 201.148438 305.925781 L 202.363281 306.777344 L 204.710938 306.566406 C 207.226562 306.339844 209.882812 306.09375 215.074219 305.617188 C 221.214844 305.039062 236.726562 304.273438 249.582031 303.882812 C 253.144531 303.777344 257.390625 303.59375 259.015625 303.488281 C 260.625 303.363281 264.515625 303.179688 267.667969 303.054688 C 270.800781 302.953125 274.777344 302.722656 276.464844 302.558594 C 278.175781 302.394531 281.328125 302.207031 283.46875 302.125 C 285.632812 302.0625 289.464844 301.875 292.019531 301.710938 C 294.574219 301.546875 298.550781 301.316406 300.878906 301.195312 C 303.207031 301.070312 309.46875 300.761719 314.78125 300.46875 C 320.117188 300.203125 326.421875 299.914062 328.792969 299.851562 C 335.488281 299.664062 334.972656 299.789062 336.515625 298.011719 C 338.390625 295.902344 339.441406 295.199219 341.027344 295.054688 C 342.265625 294.933594 342.285156 294.933594 342.410156 294.1875 C 342.492188 293.773438 342.410156 290.238281 342.203125 286.3125 C 342.015625 282.382812 341.707031 275.5625 341.566406 271.160156 C 341.398438 266.757812 341.214844 263.058594 341.152344 262.953125 C 341.070312 262.832031 340.164062 262.75 339.113281 262.75 C 337.898438 262.75 336.847656 262.625 336.230469 262.417969 C 334.847656 261.941406 333.015625 260.164062 332.171875 258.511719 L 331.511719 257.167969 L 328.09375 257.210938 C 326.21875 257.230469 321.476562 257.3125 317.566406 257.394531 "/><path style=" stroke:none;fill-rule:evenodd;fill:#080405;fill-opacity:1;" d="M 326.710938 260.371094 C 326.628906 260.558594 326.710938 260.847656 326.894531 261.03125 C 327.328125 261.46875 327.90625 261.21875 327.824219 260.640625 C 327.742188 260.0625 326.894531 259.855469 326.710938 260.371094 "/><path style=" stroke:none;fill-rule:evenodd;fill:#080405;fill-opacity:1;" d="M 330.007812 261.40625 C 329.925781 261.589844 329.964844 261.839844 330.089844 261.964844 C 330.398438 262.273438 330.996094 261.984375 330.914062 261.570312 C 330.832031 261.09375 330.171875 260.972656 330.007812 261.40625 "/><path style=" stroke:none;fill-rule:evenodd;fill:#080405;fill-opacity:1;" d="M 200.015625 268.617188 C 199.832031 269.113281 200.097656 269.609375 200.488281 269.527344 C 200.738281 269.488281 200.859375 269.28125 200.859375 268.949219 C 200.859375 268.351562 200.203125 268.101562 200.015625 268.617188 "/><path style=" stroke:none;fill-rule:evenodd;fill:#080405;fill-opacity:1;" d="M 196.699219 270.832031 C 196.328125 270.953125 196.226562 271.160156 196.226562 271.738281 C 196.226562 272.628906 196.863281 273.023438 197.5625 272.566406 C 198.511719 271.96875 197.75 270.417969 196.699219 270.832031 "/><path style=" stroke:none;fill-rule:evenodd;fill:#080405;fill-opacity:1;" d="M 253.414062 266.902344 C 252.527344 268.289062 251.929688 281.453125 252.546875 286.703125 C 252.816406 289.125 252.917969 289.558594 253.351562 289.992188 C 253.886719 290.527344 255.164062 290.796875 256.089844 290.570312 L 256.648438 290.425781 L 256.503906 280.773438 C 256.316406 269.507812 256.214844 267.441406 255.742188 266.984375 C 255.554688 266.800781 255.039062 266.59375 254.566406 266.53125 C 253.867188 266.429688 253.703125 266.488281 253.414062 266.902344 "/><path style=" stroke:none;fill-rule:evenodd;fill:#080405;fill-opacity:1;" d="M 237.757812 267.894531 C 236.953125 268.433594 236.109375 269.695312 235.058594 271.945312 C 233.882812 274.425781 233.367188 275.914062 231.96875 280.875 C 231.308594 283.191406 230.710938 285.070312 230.628906 285.070312 C 230.546875 285.070312 230.132812 284.121094 229.703125 282.941406 C 228.691406 280.214844 227.867188 278.5625 227.292969 278.167969 C 226.695312 277.734375 225.394531 277.734375 224.984375 278.167969 C 224.777344 278.355469 224.65625 278.851562 224.65625 279.429688 C 224.65625 281.019531 222.945312 286.808594 222.53125 286.664062 C 222.429688 286.644531 222.078125 285.734375 221.769531 284.660156 C 220.144531 278.996094 219.628906 277.339844 218.660156 274.570312 C 217.445312 271.058594 216.621094 269.320312 215.960938 268.867188 C 215.382812 268.453125 214.558594 268.453125 214.023438 268.824219 C 213.652344 269.113281 213.714844 269.425781 216.476562 280.566406 C 218.0625 286.851562 219.503906 292.390625 219.710938 292.863281 C 220.164062 293.917969 220.71875 294.230469 222.078125 294.230469 C 223.707031 294.230469 224.035156 293.960938 224.035156 292.617188 C 224.035156 290.464844 225.191406 283.769531 225.539062 283.894531 C 225.644531 283.914062 225.992188 284.660156 226.304688 285.507812 C 227.085938 287.65625 229.0625 291.5 229.722656 292.121094 C 230.175781 292.554688 230.441406 292.617188 231.761719 292.617188 C 232.605469 292.617188 233.390625 292.511719 233.511719 292.390625 C 233.636719 292.265625 233.78125 290.757812 233.84375 288.875 C 234.089844 282.488281 236.316406 273.828125 238.785156 269.753906 C 239.15625 269.113281 239.507812 268.371094 239.527344 268.101562 C 239.589844 267.6875 239.488281 267.605469 238.972656 267.542969 C 238.621094 267.523438 238.085938 267.667969 237.757812 267.894531 "/><path style=" stroke:none;fill-rule:evenodd;fill:#080405;fill-opacity:1;" d="M 317.605469 274.261719 C 318.492188 275.066406 317.707031 277.238281 316.082031 278.4375 C 315.113281 279.160156 314.886719 279.222656 314.886719 278.769531 C 314.886719 278.003906 316.761719 273.910156 317.109375 273.910156 C 317.171875 273.910156 317.398438 274.054688 317.605469 274.261719 Z M 315.523438 272.277344 C 314.082031 272.566406 312.949219 273.351562 312.042969 274.738281 C 310.128906 277.609375 309.46875 281.351562 310.4375 283.730469 C 311.691406 286.703125 315.773438 287.71875 318.285156 285.652344 C 318.984375 285.050781 321.394531 282.011719 321.621094 281.433594 C 321.828125 280.898438 320.757812 281.125 319.625 281.886719 C 319.007812 282.300781 317.957031 283.148438 317.296875 283.769531 C 316.65625 284.390625 316 284.867188 315.855469 284.804688 C 315.464844 284.679688 314.949219 283.027344 314.867188 281.683594 L 314.78125 280.441406 L 316.121094 279.925781 C 318.492188 279.015625 320.425781 276.597656 320.449219 274.570312 C 320.449219 273.375 319.707031 272.609375 318.222656 272.277344 C 317.007812 272.027344 316.800781 272.027344 315.523438 272.277344 "/><path style=" stroke:none;fill-rule:evenodd;fill:#080405;fill-opacity:1;" d="M 289.257812 274.425781 C 289.09375 274.59375 288.910156 275.128906 288.847656 275.625 C 288.496094 278.1875 288.3125 281.125 288.3125 283.957031 C 288.3125 286.871094 288.351562 287.179688 288.722656 287.550781 C 289.195312 288.027344 290.414062 288.152344 291.75 287.863281 C 292.265625 287.738281 292.636719 286.726562 292.636719 285.445312 C 292.636719 284.410156 293.6875 281.597656 294.675781 279.90625 C 295.5 278.539062 297.355469 276.289062 297.519531 276.472656 C 297.5625 276.515625 297.273438 277.941406 296.839844 279.613281 C 295.996094 283.027344 295.828125 285.175781 296.34375 286.207031 C 296.777344 287.078125 297.992188 287.488281 299.167969 287.160156 C 299.992188 286.933594 300.074219 286.851562 300.363281 285.816406 C 300.710938 284.617188 301.414062 283.417969 302.648438 281.929688 C 303.472656 280.9375 304.546875 280.007812 304.6875 280.152344 C 304.730469 280.195312 304.398438 281.289062 303.949219 282.589844 C 303.039062 285.277344 302.9375 286.5 303.554688 287.488281 C 304.050781 288.335938 304.628906 288.628906 305.554688 288.542969 C 306.707031 288.441406 307.015625 287.839844 307.46875 284.742188 C 308.109375 280.460938 308.007812 279.574219 306.75 278.972656 C 305.492188 278.394531 303.699219 278.683594 302.15625 279.71875 C 301.660156 280.050781 301.226562 280.316406 301.164062 280.316406 C 301.125 280.316406 301.082031 279.46875 301.082031 278.457031 C 301.082031 275.75 300.507812 274.65625 298.980469 274.386719 C 297.621094 274.179688 294.964844 275.875 293.359375 277.980469 C 292.554688 279.058594 292.554688 279.078125 292.226562 276.597656 C 292.082031 275.605469 291.855469 274.675781 291.667969 274.46875 C 291.257812 274.011719 289.710938 273.992188 289.257812 274.425781 "/><path style=" stroke:none;fill-rule:evenodd;fill:#080405;fill-opacity:1;" d="M 281.453125 278.871094 L 282.8125 278.871094 L 282.6875 280.113281 C 282.523438 282.074219 280.152344 286.519531 279.289062 286.519531 C 278.402344 286.519531 278.050781 281 278.8125 279.035156 C 279 278.519531 279.082031 278.476562 279.554688 278.664062 C 279.863281 278.789062 280.710938 278.871094 281.453125 278.871094 Z M 282.109375 276.515625 C 282.359375 276.824219 282.542969 277.238281 282.542969 277.464844 C 282.542969 277.796875 282.417969 277.859375 281.90625 277.796875 C 281.101562 277.714844 280.648438 277.09375 280.914062 276.433594 C 281.140625 275.832031 281.59375 275.851562 282.109375 276.515625 Z M 279.144531 274.53125 C 277.578125 274.695312 276.570312 275.191406 275.664062 276.203125 C 273.085938 279.035156 272.511719 284.886719 274.570312 287.097656 C 275.683594 288.296875 278.132812 288.976562 279.96875 288.585938 C 282.894531 287.984375 285.222656 283.875 285.324219 279.117188 C 285.34375 278.066406 285.40625 277.15625 285.46875 277.09375 C 285.53125 277.03125 285.136719 276.535156 284.582031 275.976562 C 283.859375 275.253906 283.265625 274.859375 282.5 274.632812 C 281.367188 274.304688 281.101562 274.304688 279.144531 274.53125 "/><path style=" stroke:none;fill-rule:evenodd;fill:#080405;fill-opacity:1;" d="M 263.488281 274.882812 C 261.179688 276.082031 259.945312 279.078125 260.148438 282.902344 C 260.375 287.46875 261.960938 289.535156 265.421875 289.785156 C 267.09375 289.886719 268.347656 289.578125 269.152344 288.835938 C 269.851562 288.191406 271.664062 285.09375 271.5 284.824219 C 271.253906 284.453125 270.738281 284.742188 269.050781 286.207031 C 268.082031 287.054688 267.175781 287.757812 267.03125 287.757812 C 266.371094 287.757812 265.175781 283.996094 264.929688 281.144531 C 264.722656 278.707031 265.507812 275.894531 266.351562 276.019531 C 266.96875 276.101562 267.628906 277.238281 267.773438 278.457031 C 267.9375 279.738281 268.183594 280.113281 268.945312 280.113281 C 269.648438 280.113281 269.894531 279.820312 270.078125 278.746094 C 270.347656 277.011719 269.523438 275.542969 267.875 274.859375 C 266.84375 274.425781 264.3125 274.449219 263.488281 274.882812 "/><path style=" stroke:none;fill-rule:evenodd;fill:#080405;fill-opacity:1;" d="M 245.6875 278.273438 C 245.996094 278.890625 245.8125 280.441406 245.316406 281.125 C 244.882812 281.703125 242.988281 283.066406 242.824219 282.921875 C 242.578125 282.675781 243.875 279.242188 244.453125 278.5625 C 245.195312 277.714844 245.359375 277.671875 245.6875 278.273438 Z M 242.472656 275.957031 C 240.703125 276.410156 239.21875 277.898438 238.355469 280.070312 C 237.921875 281.125 237.757812 281.992188 237.632812 283.625 C 237.550781 284.824219 237.570312 285.941406 237.652344 286.105469 C 237.734375 286.269531 237.960938 286.890625 238.148438 287.449219 C 238.808594 289.597656 240.722656 291.023438 243.257812 291.210938 C 244.824219 291.335938 245.441406 291.085938 246.574219 289.804688 C 247.273438 289.039062 248.34375 287.035156 248.34375 286.519531 C 248.34375 285.917969 246.53125 286.746094 245.566406 287.757812 C 245.234375 288.109375 244.636719 288.605469 244.246094 288.835938 C 243.585938 289.246094 243.546875 289.269531 243.277344 288.917969 C 242.949219 288.441406 242.578125 286.746094 242.578125 285.628906 C 242.578125 284.78125 242.597656 284.742188 243.503906 284.410156 C 244.761719 283.933594 246.574219 282.714844 247.296875 281.828125 C 248.367188 280.523438 248.695312 278.332031 247.933594 277.382812 C 247.109375 276.308594 244.082031 275.523438 242.472656 275.957031 "/><path style=" stroke:none;fill-rule:evenodd;fill:#080405;fill-opacity:1;" d="M 338.453125 291.582031 C 338.308594 291.933594 338.699219 292.511719 339.09375 292.511719 C 339.421875 292.511719 339.628906 291.996094 339.484375 291.582031 C 339.320312 291.191406 338.597656 291.191406 338.453125 291.582031 "/><path style=" stroke:none;fill-rule:evenodd;fill:#080405;fill-opacity:1;" d="M 334.414062 291.707031 C 333.839844 292.039062 333.941406 292.71875 334.539062 292.71875 C 335.097656 292.71875 335.753906 292.183594 335.628906 291.808594 C 335.527344 291.5 334.847656 291.4375 334.414062 291.707031 "/><path style=" stroke:none;fill-rule:evenodd;fill:#080405;fill-opacity:1;" d="M 332.273438 294.890625 C 332.089844 295.363281 332.335938 295.820312 332.789062 295.820312 C 333.199219 295.820312 333.550781 295.160156 333.324219 294.789062 C 333.136719 294.476562 332.398438 294.539062 332.273438 294.890625 "/><path style=" stroke:none;fill-rule:evenodd;fill:#080405;fill-opacity:1;" d="M 201.230469 297.824219 C 201.085938 297.867188 200.964844 298.28125 200.964844 298.734375 C 200.964844 299.355469 201.066406 299.601562 201.457031 299.851562 C 202.21875 300.367188 202.816406 299.953125 202.816406 298.960938 C 202.816406 297.847656 202.21875 297.410156 201.230469 297.824219 "/><path style=" stroke:none;fill-rule:evenodd;fill:#080405;fill-opacity:1;" d="M 197.957031 299.625 C 197.789062 300.058594 198.019531 300.367188 198.511719 300.367188 C 198.820312 300.367188 198.925781 300.242188 198.863281 299.914062 C 198.78125 299.355469 198.140625 299.148438 197.957031 299.625 "/><path style=" stroke:none;fill-rule:evenodd;fill:#080405;fill-opacity:1;" d="M 202.671875 302.144531 C 202.53125 302.515625 202.898438 302.953125 203.210938 302.765625 C 203.558594 302.539062 203.476562 301.8125 203.125 301.8125 C 202.941406 301.8125 202.753906 301.960938 202.671875 302.144531 "/><path style=" stroke:none;fill-rule:evenodd;fill:#080405;fill-opacity:1;" d="M 342.945312 299.746094 C 342.699219 299.851562 342.390625 300.203125 342.265625 300.511719 C 341.625 302.1875 343.746094 303.425781 344.820312 301.980469 C 345.726562 300.761719 344.386719 299.167969 342.945312 299.746094 "/><path style=" stroke:none;fill-rule:evenodd;fill:#080405;fill-opacity:1;" d="M 195.175781 307.167969 C 194.125 308.222656 194.597656 309.667969 196 309.710938 C 197.316406 309.75 198.121094 308.140625 197.339844 307.023438 C 196.882812 306.363281 195.9375 306.421875 195.175781 307.167969 "/></g></svg>