<svg xmlns="http://www.w3.org/2000/svg" xmlns:xlink="http://www.w3.org/1999/xlink" zoomAndPan="magnify" preserveAspectRatio="xMidYMid meet" version="1.2" viewBox="49.03 0 276.93 374.88"><defs><clipPath id="e63d88e9d4"><path d="M 138.445312 29.898438 L 325.945312 29.898438 L 325.945312 375 L 138.445312 375 Z M 138.445312 29.898438 "/></clipPath><clipPath id="a304025e69"><path d="M 90.160156 0 L 304.269531 0 L 304.269531 11.019531 L 90.160156 11.019531 Z M 293.015625 11.019531 L 304.269531 11.019531 L 304.269531 342.070312 L 293.015625 342.070312 Z M 90.160156 11.019531 L 101.179688 11.019531 L 101.179688 342.070312 L 90.160156 342.070312 Z M 90.160156 342.070312 L 304.269531 342.070312 L 304.269531 353 L 90.160156 353 Z M 90.160156 342.070312 "/></clipPath><clipPath id="acb5cb46ab"><path d="M 49.054688 110.160156 L 272 110.160156 L 272 249.976562 L 49.054688 249.976562 Z M 49.054688 110.160156 "/></clipPath></defs><g id="b0f2dfeb4c"><g clip-rule="nonzero" clip-path="url(#e63d88e9d4)"><path style=" stroke:none;fill-rule:nonzero;fill:#17a2b8;fill-opacity:1;" d="M 138.445312 29.898438 L 325.945312 29.898438 L 325.945312 374.867188 L 138.445312 374.867188 Z M 138.445312 29.898438 "/></g><g clip-rule="nonzero" clip-path="url(#a304025e69)"><path style=" stroke:none;fill-rule:nonzero;fill:#000000;fill-opacity:1;" d="M 90.160156 0 L 304.269531 0 L 304.269531 352.941406 L 90.160156 352.941406 Z M 90.160156 0 "/></g><g clip-rule="nonzero" clip-path="url(#acb5cb46ab)"><path style=" stroke:none;fill-rule:nonzero;fill:#231f20;fill-opacity:1;" d="M 271.160156 182.347656 L 268.042969 177.667969 L 262.75 173.867188 L 184.195312 117.453125 L 174.085938 110.195312 L 176.910156 122.316406 L 181.839844 143.496094 L 185.304688 158.367188 L 54.160156 146.46875 L 49.054688 146.007812 L 49.054688 209.351562 L 52.175781 209.050781 L 52.175781 214.03125 L 57.300781 213.539062 L 184.160156 201.421875 L 182.351562 209.308594 L 176.90625 233.03125 L 174.296875 244.390625 L 174.132812 244.558594 L 174.132812 245.105469 L 177.253906 249.785156 L 187.316406 242.558594 L 226.589844 214.351562 L 265.867188 186.148438 Z M 184.585938 125.933594 C 186.371094 133.601562 188.15625 141.273438 189.941406 148.941406 C 188.15625 141.273438 186.371094 133.601562 184.585938 125.933594 Z M 56.855469 155.808594 L 56.855469 203.90625 Z M 56.855469 208.882812 L 56.855469 208.605469 L 56.855469 208.882812 L 147.085938 200.261719 Z M 67.421875 156.769531 L 194.449219 168.292969 Z M 184.585938 238.757812 C 184.691406 238.296875 184.796875 237.832031 184.902344 237.371094 C 184.796875 237.832031 184.691406 238.296875 184.585938 238.757812 Z M 186.488281 230.472656 C 189.144531 218.894531 191.804688 207.316406 194.460938 195.738281 C 191.804688 207.316406 189.144531 218.894531 186.488281 230.472656 Z M 223.863281 210.550781 L 200.828125 227.09375 L 223.863281 210.550781 L 251.707031 190.554688 Z M 258.320312 178.886719 L 223.863281 154.140625 L 205.296875 140.808594 L 223.863281 154.140625 Z M 263.136719 182.347656 L 262.332031 181.765625 Z M 263.136719 182.347656 "/></g><path style=" stroke:none;fill-rule:nonzero;fill:#ffc312;fill-opacity:1;" d="M 220.742188 149.460938 L 181.464844 121.253906 C 184.753906 135.375 188.042969 149.492188 191.328125 163.613281 L 53.734375 151.128906 L 53.734375 204.203125 L 191.34375 191.058594 C 188.050781 205.398438 184.757812 219.738281 181.464844 234.078125 L 220.742188 205.871094 L 260.019531 177.667969 Z M 220.742188 149.460938 "/></g></svg>