<svg xmlns="http://www.w3.org/2000/svg" xmlns:xlink="http://www.w3.org/1999/xlink" zoomAndPan="magnify" preserveAspectRatio="xMidYMid meet" version="1.2" viewBox="16.58 16.58 358.43 358.43"><defs><clipPath id="7c1a4e374f"><path d="M 45.167969 45.167969 L 375 45.167969 L 375 375 L 45.167969 375 Z M 45.167969 45.167969 "/></clipPath><clipPath id="a0ff3efec8"><path d="M 16.59375 16.59375 L 354.28125 16.59375 L 354.28125 27.125 L 16.59375 27.125 Z M 343.527344 27.125 L 354.28125 27.125 L 354.28125 343.527344 L 343.527344 343.527344 Z M 16.59375 27.125 L 27.125 27.125 L 27.125 343.527344 L 16.59375 343.527344 Z M 16.59375 343.527344 L 354.28125 343.527344 L 354.28125 354.28125 L 16.59375 354.28125 Z M 16.59375 343.527344 "/></clipPath><clipPath id="db9f10301c"><path d="M 261.992188 150.054688 L 354.28125 150.054688 L 354.28125 242.34375 L 261.992188 242.34375 Z M 261.992188 150.054688 "/></clipPath><clipPath id="feb9041b48"><path d="M 308.136719 150.054688 C 282.652344 150.054688 261.992188 170.714844 261.992188 196.199219 C 261.992188 221.683594 282.652344 242.34375 308.136719 242.34375 C 333.621094 242.34375 354.28125 221.683594 354.28125 196.199219 C 354.28125 170.714844 333.621094 150.054688 308.136719 150.054688 Z M 308.136719 150.054688 "/></clipPath></defs><g id="3a46dda5f6"><g clip-rule="nonzero" clip-path="url(#7c1a4e374f)"><path style=" stroke:none;fill-rule:nonzero;fill:#17a2b8;fill-opacity:1;" d="M 45.167969 45.167969 L 375 45.167969 L 375 375 L 45.167969 375 Z M 45.167969 45.167969 "/></g><g clip-rule="nonzero" clip-path="url(#a0ff3efec8)"><path style=" stroke:none;fill-rule:nonzero;fill:#000000;fill-opacity:1;" d="M 16.59375 16.59375 L 354.28125 16.59375 L 354.28125 354.28125 L 16.59375 354.28125 Z M 16.59375 16.59375 "/></g><g clip-rule="nonzero" clip-path="url(#db9f10301c)"><g clip-rule="nonzero" clip-path="url(#feb9041b48)"><path style=" stroke:none;fill-rule:nonzero;fill:#ffc312;fill-opacity:1;" d="M 261.992188 150.054688 L 354.28125 150.054688 L 354.28125 242.34375 L 261.992188 242.34375 Z M 261.992188 150.054688 "/></g></g><g style="fill:#171616;fill-opacity:1;"><g transform="translate(72.977305, 157.805775)"><path style="stroke:none" d="M 22.5 -52.5 L 21.421875 -39.328125 C 22.859375 -44.179688 24.929688 -47.785156 27.640625 -50.140625 C 30.359375 -52.421875 33.320312 -53.5625 36.53125 -53.5625 C 38.957031 -53.5625 40.957031 -53.0625 42.53125 -52.0625 C 44.101562 -51 45.351562 -49.46875 46.28125 -47.46875 C 47.207031 -45.46875 47.851562 -43.003906 48.21875 -40.078125 C 48.570312 -37.140625 48.710938 -33.816406 48.640625 -30.109375 L 28.171875 -27.96875 C 28.035156 -30.394531 27.859375 -32.320312 27.640625 -33.75 C 27.429688 -35.175781 26.578125 -35.890625 25.078125 -35.890625 C 24.140625 -35.890625 22.816406 -35.566406 21.109375 -34.921875 L 21.109375 0 L 2.46875 0 C 2.46875 -6.351562 2.46875 -12.566406 2.46875 -18.640625 C 2.394531 -24.710938 2.359375 -30.175781 2.359375 -35.03125 C 2.285156 -40.675781 2.210938 -46.070312 2.140625 -51.21875 Z M 22.5 -52.5 "/></g></g><g style="fill:#171616;fill-opacity:1;"><g transform="translate(122.145402, 157.805775)"><path style="stroke:none" d="M 53.46875 -22.609375 C 53.394531 -19.390625 53.070312 -16.316406 52.5 -13.390625 C 51.851562 -10.390625 50.640625 -7.75 48.859375 -5.46875 C 47.003906 -3.175781 44.394531 -1.351562 41.03125 0 C 37.601562 1.425781 33.035156 2.140625 27.328125 2.140625 C 21.679688 2.140625 17.210938 1.316406 13.921875 -0.328125 C 10.566406 -1.960938 8.035156 -4.101562 6.328125 -6.75 C 4.535156 -9.320312 3.390625 -12.285156 2.890625 -15.640625 C 2.390625 -18.929688 2.140625 -22.253906 2.140625 -25.609375 C 2.140625 -28.960938 2.285156 -32.316406 2.578125 -35.671875 C 2.859375 -38.960938 3.785156 -42 5.359375 -44.78125 C 6.929688 -47.5 9.429688 -49.75 12.859375 -51.53125 C 16.210938 -53.320312 21 -54.359375 27.21875 -54.640625 L 29.03125 -54.640625 C 34.53125 -54.640625 38.890625 -53.710938 42.109375 -51.859375 C 45.253906 -49.929688 47.679688 -47.535156 49.390625 -44.671875 C 51.035156 -41.816406 52.109375 -38.75 52.609375 -35.46875 C 53.109375 -32.101562 53.394531 -28.957031 53.46875 -26.03125 L 20.890625 -23.140625 C 20.890625 -20.710938 20.925781 -18.640625 21 -16.921875 C 21.070312 -15.140625 21.320312 -13.675781 21.75 -12.53125 C 22.101562 -11.394531 22.742188 -10.578125 23.671875 -10.078125 C 24.535156 -9.503906 25.820312 -9.21875 27.53125 -9.21875 C 29.25 -9.21875 30.570312 -9.46875 31.5 -9.96875 C 32.425781 -10.394531 33.101562 -11.109375 33.53125 -12.109375 C 33.957031 -13.035156 34.207031 -14.210938 34.28125 -15.640625 C 34.351562 -17.066406 34.390625 -18.742188 34.390625 -20.671875 Z M 34.171875 -30.328125 L 34.078125 -30.328125 L 33.21875 -38.25 C 33 -39.320312 32.425781 -40.25 31.5 -41.03125 C 30.570312 -41.820312 29.460938 -42.21875 28.171875 -42.21875 C 27.390625 -42.21875 26.570312 -42.109375 25.71875 -41.890625 C 24.851562 -41.679688 24.101562 -41.359375 23.46875 -40.921875 C 22.75 -40.492188 22.175781 -39.960938 21.75 -39.328125 C 21.25 -38.679688 21 -37.894531 21 -36.96875 L 20.890625 -29.03125 L 20.890625 -28.921875 L 34.078125 -30.328125 L 34.078125 -30.21875 Z M 34.171875 -30.328125 "/></g></g><g style="fill:#171616;fill-opacity:1;"><g transform="translate(177.740708, 157.805775)"><path style="stroke:none" d="M 23.140625 -0.109375 C 18.566406 -0.109375 14.925781 -0.894531 12.21875 -2.46875 C 9.425781 -4.039062 7.28125 -6.179688 5.78125 -8.890625 C 4.28125 -11.609375 3.316406 -14.753906 2.890625 -18.328125 C 2.390625 -21.890625 2.140625 -25.707031 2.140625 -29.78125 C 2.140625 -34.144531 2.710938 -37.894531 3.859375 -41.03125 C 5.003906 -44.101562 6.679688 -46.640625 8.890625 -48.640625 C 11.035156 -50.566406 13.679688 -51.992188 16.828125 -52.921875 C 19.960938 -53.847656 23.53125 -54.3125 27.53125 -54.3125 C 32.25 -54.3125 36.960938 -53.992188 41.671875 -53.359375 C 46.316406 -52.710938 50.890625 -51.851562 55.390625 -50.78125 L 55.0625 20.46875 L 36.75 20.46875 L 36.859375 -2.03125 C 31.710938 -0.75 27.140625 -0.109375 23.140625 -0.109375 Z M 29.78125 -40.078125 C 28.070312 -39.710938 26.753906 -39.28125 25.828125 -38.78125 C 24.828125 -38.28125 24.109375 -37.566406 23.671875 -36.640625 C 23.242188 -35.640625 22.992188 -34.390625 22.921875 -32.890625 C 22.859375 -31.390625 22.828125 -29.460938 22.828125 -27.109375 C 22.828125 -24.753906 22.859375 -22.71875 22.921875 -21 C 22.992188 -19.28125 23.242188 -17.851562 23.671875 -16.71875 C 24.109375 -15.570312 24.828125 -14.710938 25.828125 -14.140625 C 26.753906 -13.566406 28.070312 -13.28125 29.78125 -13.28125 C 31.644531 -13.28125 33.078125 -13.566406 34.078125 -14.140625 C 35.003906 -14.710938 35.679688 -15.570312 36.109375 -16.71875 C 36.535156 -17.851562 36.785156 -19.28125 36.859375 -21 C 36.859375 -22.71875 36.859375 -24.753906 36.859375 -27.109375 C 36.859375 -29.179688 36.894531 -31.035156 36.96875 -32.671875 C 36.96875 -34.316406 36.859375 -35.710938 36.640625 -36.859375 C 36.429688 -38.003906 36.039062 -38.894531 35.46875 -39.53125 C 34.820312 -40.101562 33.820312 -40.390625 32.46875 -40.390625 C 31.675781 -40.390625 30.78125 -40.285156 29.78125 -40.078125 Z M 29.78125 -40.078125 "/></g></g><g style="fill:#171616;fill-opacity:1;"><g transform="translate(235.264172, 157.805775)"><path style="stroke:none" d="M 23.140625 -0.109375 C 18.566406 -0.109375 14.925781 -0.894531 12.21875 -2.46875 C 9.425781 -4.039062 7.28125 -6.179688 5.78125 -8.890625 C 4.28125 -11.609375 3.316406 -14.753906 2.890625 -18.328125 C 2.390625 -21.890625 2.140625 -25.707031 2.140625 -29.78125 C 2.140625 -34.144531 2.710938 -37.894531 3.859375 -41.03125 C 5.003906 -44.101562 6.679688 -46.640625 8.890625 -48.640625 C 11.035156 -50.566406 13.679688 -51.992188 16.828125 -52.921875 C 19.960938 -53.847656 23.53125 -54.3125 27.53125 -54.3125 C 32.25 -54.3125 36.960938 -53.992188 41.671875 -53.359375 C 46.316406 -52.710938 50.890625 -51.851562 55.390625 -50.78125 L 55.0625 20.46875 L 36.75 20.46875 L 36.859375 -2.03125 C 31.710938 -0.75 27.140625 -0.109375 23.140625 -0.109375 Z M 29.78125 -40.078125 C 28.070312 -39.710938 26.753906 -39.28125 25.828125 -38.78125 C 24.828125 -38.28125 24.109375 -37.566406 23.671875 -36.640625 C 23.242188 -35.640625 22.992188 -34.390625 22.921875 -32.890625 C 22.859375 -31.390625 22.828125 -29.460938 22.828125 -27.109375 C 22.828125 -24.753906 22.859375 -22.71875 22.921875 -21 C 22.992188 -19.28125 23.242188 -17.851562 23.671875 -16.71875 C 24.109375 -15.570312 24.828125 -14.710938 25.828125 -14.140625 C 26.753906 -13.566406 28.070312 -13.28125 29.78125 -13.28125 C 31.644531 -13.28125 33.078125 -13.566406 34.078125 -14.140625 C 35.003906 -14.710938 35.679688 -15.570312 36.109375 -16.71875 C 36.535156 -17.851562 36.785156 -19.28125 36.859375 -21 C 36.859375 -22.71875 36.859375 -24.753906 36.859375 -27.109375 C 36.859375 -29.179688 36.894531 -31.035156 36.96875 -32.671875 C 36.96875 -34.316406 36.859375 -35.710938 36.640625 -36.859375 C 36.429688 -38.003906 36.039062 -38.894531 35.46875 -39.53125 C 34.820312 -40.101562 33.820312 -40.390625 32.46875 -40.390625 C 31.675781 -40.390625 30.78125 -40.285156 29.78125 -40.078125 Z M 29.78125 -40.078125 "/></g></g><g style="fill:#171616;fill-opacity:1;"><g transform="translate(198.224721, 283.001026)"><path style="stroke:none" d="M 2.140625 -26.578125 C 2.140625 -30.003906 2.285156 -33.359375 2.578125 -36.640625 C 2.859375 -39.859375 3.785156 -42.753906 5.359375 -45.328125 C 6.929688 -47.890625 9.394531 -50.03125 12.75 -51.75 C 16.101562 -53.394531 20.851562 -54.359375 27 -54.640625 L 28.921875 -54.640625 C 34.285156 -54.640625 38.570312 -53.78125 41.78125 -52.0625 C 44.925781 -50.28125 47.320312 -48.066406 48.96875 -45.421875 C 50.601562 -42.710938 51.671875 -39.75 52.171875 -36.53125 C 52.671875 -33.25 52.957031 -30.109375 53.03125 -27.109375 L 34.078125 -25.828125 C 34.078125 -27.109375 34.039062 -28.359375 33.96875 -29.578125 C 33.820312 -30.785156 33.570312 -31.890625 33.21875 -32.890625 C 32.789062 -33.890625 32.253906 -34.710938 31.609375 -35.359375 C 30.890625 -35.929688 29.925781 -36.21875 28.71875 -36.21875 C 28.144531 -36.21875 27.679688 -36.179688 27.328125 -36.109375 C 25.679688 -35.816406 24.429688 -35.421875 23.578125 -34.921875 C 22.640625 -34.421875 21.992188 -33.707031 21.640625 -32.78125 C 21.210938 -31.78125 20.960938 -30.53125 20.890625 -29.03125 C 20.816406 -27.53125 20.78125 -25.601562 20.78125 -23.25 C 20.78125 -20.96875 20.816406 -18.96875 20.890625 -17.25 C 20.960938 -15.53125 21.210938 -14.101562 21.640625 -12.96875 C 21.992188 -11.820312 22.640625 -10.960938 23.578125 -10.390625 C 24.429688 -9.816406 25.679688 -9.53125 27.328125 -9.53125 C 28.960938 -9.53125 30.242188 -9.78125 31.171875 -10.28125 C 32.109375 -10.78125 32.789062 -11.53125 33.21875 -12.53125 C 33.644531 -13.53125 33.894531 -14.816406 33.96875 -16.390625 C 34.039062 -17.890625 34.078125 -19.640625 34.078125 -21.640625 L 53.03125 -23.46875 C 52.957031 -20.175781 52.632812 -16.992188 52.0625 -13.921875 C 51.425781 -10.785156 50.210938 -8.035156 48.421875 -5.671875 C 46.566406 -3.242188 43.960938 -1.316406 40.609375 0.109375 C 37.253906 1.535156 32.753906 2.25 27.109375 2.25 C 21.535156 2.25 17.109375 1.390625 13.828125 -0.328125 C 10.460938 -1.960938 7.925781 -4.175781 6.21875 -6.96875 C 4.5 -9.675781 3.390625 -12.742188 2.890625 -16.171875 C 2.390625 -19.609375 2.140625 -23.078125 2.140625 -26.578125 Z M 2.140625 -26.578125 "/></g></g><g style="fill:#171616;fill-opacity:1;"><g transform="translate(253.177316, 283.001026)"><path style="stroke:none" d="M 2.140625 -26.578125 C 2.140625 -30.003906 2.285156 -33.359375 2.578125 -36.640625 C 2.859375 -39.859375 3.785156 -42.753906 5.359375 -45.328125 C 6.929688 -47.890625 9.394531 -50.03125 12.75 -51.75 C 16.101562 -53.394531 20.851562 -54.359375 27 -54.640625 L 28.921875 -54.640625 C 34.285156 -54.640625 38.570312 -53.78125 41.78125 -52.0625 C 44.925781 -50.28125 47.320312 -48.066406 48.96875 -45.421875 C 50.601562 -42.710938 51.671875 -39.75 52.171875 -36.53125 C 52.671875 -33.25 52.957031 -30.109375 53.03125 -27.109375 L 34.078125 -25.828125 C 34.078125 -27.109375 34.039062 -28.359375 33.96875 -29.578125 C 33.820312 -30.785156 33.570312 -31.890625 33.21875 -32.890625 C 32.789062 -33.890625 32.253906 -34.710938 31.609375 -35.359375 C 30.890625 -35.929688 29.925781 -36.21875 28.71875 -36.21875 C 28.144531 -36.21875 27.679688 -36.179688 27.328125 -36.109375 C 25.679688 -35.816406 24.429688 -35.421875 23.578125 -34.921875 C 22.640625 -34.421875 21.992188 -33.707031 21.640625 -32.78125 C 21.210938 -31.78125 20.960938 -30.53125 20.890625 -29.03125 C 20.816406 -27.53125 20.78125 -25.601562 20.78125 -23.25 C 20.78125 -20.96875 20.816406 -18.96875 20.890625 -17.25 C 20.960938 -15.53125 21.210938 -14.101562 21.640625 -12.96875 C 21.992188 -11.820312 22.640625 -10.960938 23.578125 -10.390625 C 24.429688 -9.816406 25.679688 -9.53125 27.328125 -9.53125 C 28.960938 -9.53125 30.242188 -9.78125 31.171875 -10.28125 C 32.109375 -10.78125 32.789062 -11.53125 33.21875 -12.53125 C 33.644531 -13.53125 33.894531 -14.816406 33.96875 -16.390625 C 34.039062 -17.890625 34.078125 -19.640625 34.078125 -21.640625 L 53.03125 -23.46875 C 52.957031 -20.175781 52.632812 -16.992188 52.0625 -13.921875 C 51.425781 -10.785156 50.210938 -8.035156 48.421875 -5.671875 C 46.566406 -3.242188 43.960938 -1.316406 40.609375 0.109375 C 37.253906 1.535156 32.753906 2.25 27.109375 2.25 C 21.535156 2.25 17.109375 1.390625 13.828125 -0.328125 C 10.460938 -1.960938 7.925781 -4.175781 6.21875 -6.96875 C 4.5 -9.675781 3.390625 -12.742188 2.890625 -16.171875 C 2.390625 -19.609375 2.140625 -23.078125 2.140625 -26.578125 Z M 2.140625 -26.578125 "/></g></g></g></svg>