<svg id="svg" version="1.1" xmlns="http://www.w3.org/2000/svg" xmlns:xlink="http://www.w3.org/1999/xlink" viewBox="41.65 76.8 323.1 254.75"><g id="svgg"><path id="path0" d="M68.300 92.687 C 67.695 92.778,67.200 93.007,67.200 93.195 C 67.200 93.383,66.648 93.658,65.973 93.806 C 65.298 93.954,64.649 94.328,64.530 94.638 C 64.412 94.947,64.074 95.200,63.781 95.200 C 63.003 95.200,59.632 99.742,59.345 101.177 C 59.210 101.849,58.954 102.400,58.775 102.400 C 58.596 102.400,58.553 103.030,58.677 103.800 C 58.825 104.709,58.746 105.200,58.452 105.200 C 57.515 105.200,57.839 311.486,58.778 311.988 C 59.314 312.275,103.551 312.373,200.878 312.302 L 342.200 312.200 343.685 311.174 C 348.415 307.903,348.000 316.960,348.000 216.927 L 348.000 130.000 213.187 130.000 C 64.807 130.000,76.447 130.208,74.810 127.524 C 73.230 124.933,74.268 121.391,77.015 120.000 C 78.060 119.471,94.121 119.388,213.121 119.298 L 348.043 119.196 347.917 106.898 C 347.830 98.369,347.643 94.263,347.306 93.500 L 346.820 92.400 208.110 92.460 C 131.819 92.493,68.905 92.595,68.300 92.687 M358.304 201.500 C 358.203 304.974,358.180 307.853,357.437 309.800 C 355.567 314.704,351.911 318.739,347.203 321.096 L 344.200 322.600 202.217 322.703 C 108.893 322.770,60.098 322.942,59.837 323.203 C 59.574 323.466,59.602 323.600,59.920 323.600 C 60.184 323.600,60.400 323.876,60.400 324.213 C 60.400 324.549,60.670 324.929,61.000 325.055 C 61.330 325.182,61.600 325.527,61.600 325.822 C 61.600 326.672,63.334 328.318,64.553 328.624 C 65.164 328.777,65.754 329.136,65.864 329.422 C 65.973 329.707,66.814 330.066,67.731 330.219 C 68.649 330.372,69.502 330.657,69.626 330.852 C 69.951 331.363,352.562 331.310,352.733 330.799 C 352.807 330.579,353.275 330.400,353.774 330.400 C 355.004 330.400,357.200 329.606,357.200 329.161 C 357.200 328.962,357.448 328.800,357.752 328.800 C 359.282 328.800,363.600 322.887,363.600 320.791 C 363.600 320.382,363.780 319.936,364.000 319.800 C 364.513 319.483,364.558 104.000,364.045 104.000 C 363.850 104.000,363.569 103.190,363.421 102.200 C 363.272 101.210,363.002 100.400,362.819 100.400 C 362.636 100.400,362.367 99.923,362.221 99.341 C 361.960 98.301,359.339 95.200,358.721 95.200 C 358.549 95.200,358.361 143.035,358.304 201.500 M76.653 97.233 C 77.394 97.691,78.000 98.204,78.000 98.373 C 78.000 98.542,78.902 99.241,80.005 99.927 C 82.377 101.401,82.800 102.326,82.800 106.032 C 82.800 110.278,81.344 111.733,76.893 111.935 L 73.717 112.079 72.089 110.531 C 71.194 109.679,70.329 108.446,70.168 107.791 C 70.007 107.136,69.454 105.973,68.938 105.207 C 65.558 100.188,71.499 94.048,76.653 97.233 M104.713 97.204 C 105.436 97.644,106.130 98.274,106.256 98.602 C 106.382 98.931,106.741 99.200,107.053 99.200 C 108.778 99.200,111.200 102.710,111.200 105.209 C 111.200 112.949,101.897 115.018,98.424 108.051 C 97.807 106.813,96.988 105.198,96.603 104.463 C 94.074 99.624,99.993 94.326,104.713 97.204 M132.454 97.102 C 139.024 101.453,140.912 105.179,138.562 109.157 C 135.936 113.602,127.641 112.739,126.580 107.910 C 126.430 107.225,125.883 106.208,125.365 105.649 C 121.368 101.338,127.565 93.865,132.454 97.102 M117.039 155.047 C 120.442 158.401,121.476 159.200,122.416 159.200 C 123.346 159.200,124.316 159.927,127.234 162.812 C 130.378 165.920,130.977 166.353,131.523 165.912 C 131.872 165.631,135.461 162.160,139.499 158.200 C 147.037 150.807,147.905 150.208,150.304 150.751 C 153.948 151.574,155.571 155.713,153.459 158.796 C 152.742 159.842,152.558 160.555,152.687 161.785 L 152.857 163.400 146.639 169.585 L 140.421 175.770 146.610 182.036 C 151.817 187.307,152.800 188.492,152.800 189.497 C 152.800 190.154,153.133 191.121,153.541 191.646 C 156.156 195.015,153.713 199.800,149.378 199.800 L 147.208 199.800 139.700 192.300 C 135.571 188.175,132.024 184.800,131.819 184.800 C 131.614 184.800,129.616 186.600,127.381 188.800 C 123.348 192.769,122.648 193.175,121.191 192.395 C 120.547 192.050,119.867 192.550,116.608 195.762 C 111.522 200.773,108.300 201.279,105.954 197.432 C 103.863 194.002,104.222 193.415,114.966 182.717 L 122.555 175.162 113.977 166.577 L 105.400 157.993 105.400 155.819 C 105.400 152.245,107.894 150.242,111.712 150.747 C 112.482 150.849,114.125 152.176,117.039 155.047 M252.913 150.958 C 253.621 151.265,255.906 153.245,257.992 155.358 C 261.310 158.719,261.955 159.200,263.146 159.200 C 264.322 159.200,265.007 159.690,268.168 162.790 L 271.829 166.379 279.411 158.789 C 284.456 153.739,287.439 151.051,288.323 150.759 C 293.244 149.135,297.161 154.891,293.931 158.997 C 293.221 159.900,293.179 160.184,293.606 161.214 C 294.265 162.806,294.057 163.088,287.053 170.072 L 281.250 175.860 287.052 181.630 C 292.824 187.369,294.179 189.068,293.791 190.079 C 293.680 190.370,293.951 191.319,294.394 192.188 C 296.130 195.593,294.484 199.123,290.818 199.856 C 288.450 200.330,287.551 199.691,279.945 192.129 L 272.489 184.717 268.422 188.758 C 264.339 192.816,263.531 193.263,262.009 192.313 C 261.310 191.876,260.835 192.210,257.486 195.495 C 251.960 200.914,249.161 201.343,246.288 197.211 C 244.312 194.369,244.934 193.360,254.727 183.512 L 262.969 175.224 254.285 166.458 L 245.600 157.692 245.600 155.832 C 245.600 151.781,249.230 149.362,252.913 150.958 M206.702 230.429 C 219.821 231.221,235.452 234.461,244.800 238.325 C 245.350 238.553,247.510 239.404,249.600 240.217 C 254.118 241.974,262.881 246.210,267.532 248.884 C 269.364 249.938,271.016 250.800,271.202 250.800 C 273.178 250.800,274.837 255.714,273.602 257.911 C 271.661 261.365,268.933 261.671,264.200 258.964 C 222.298 235.000,179.208 234.815,136.946 258.417 C 131.075 261.696,128.848 261.666,126.782 258.278 C 123.908 253.564,129.355 249.187,147.600 241.551 C 149.690 240.676,151.760 239.794,152.200 239.591 C 153.077 239.186,154.832 238.560,160.006 236.808 C 169.544 233.577,179.694 231.529,190.600 230.634 C 199.135 229.934,198.615 229.940,206.702 230.429 " stroke="none" fill="#14a4bc" fill-rule="evenodd"/><path id="path1" d="M56.800 77.251 C 56.800 77.555,56.247 77.619,55.100 77.445 C 53.886 77.262,53.571 77.305,54.000 77.596 C 54.464 77.911,54.327 77.986,53.400 77.925 C 51.289 77.786,47.483 80.677,43.891 85.148 C 41.673 87.908,41.809 80.881,41.696 198.586 C 41.596 302.194,41.669 310.407,42.701 311.177 C 42.865 311.300,43.020 312.009,43.045 312.753 C 43.072 313.554,43.358 314.257,43.745 314.473 C 44.105 314.675,44.400 315.062,44.400 315.334 C 44.400 315.983,48.477 320.000,49.136 320.000 C 49.421 320.000,49.521 319.795,49.362 319.538 C 49.189 319.259,49.252 319.185,49.521 319.351 C 49.765 319.502,49.865 319.887,49.742 320.207 C 49.535 320.746,51.300 321.837,52.100 321.665 C 52.265 321.629,52.400 321.800,52.400 322.043 C 52.400 322.317,52.784 322.390,53.400 322.236 C 53.950 322.098,54.400 322.143,54.400 322.337 C 54.400 322.531,54.877 322.598,55.459 322.487 C 56.191 322.347,56.431 322.426,56.236 322.742 C 56.046 323.049,56.368 323.200,57.212 323.200 C 58.436 323.200,59.956 324.423,59.987 325.432 C 60.001 325.887,64.400 330.250,64.400 329.809 C 64.400 329.669,64.800 329.835,65.289 330.177 C 66.349 330.920,66.800 330.966,66.800 330.333 C 66.800 330.077,66.681 329.986,66.535 330.131 C 66.018 330.648,61.904 327.074,60.100 324.540 C 58.478 322.262,49.366 322.400,201.417 322.400 C 338.896 322.400,342.734 322.380,344.872 321.644 C 351.658 319.309,356.511 313.770,357.579 307.140 C 358.018 304.414,358.225 90.688,357.789 89.983 C 357.659 89.772,357.788 89.597,358.076 89.594 C 358.487 89.589,358.481 89.513,358.049 89.239 C 357.724 89.033,357.627 88.679,357.814 88.377 C 358.043 88.008,357.938 87.938,357.439 88.130 C 356.887 88.342,356.799 88.235,357.001 87.597 C 357.142 87.151,357.071 86.800,356.840 86.800 C 356.612 86.800,356.529 86.530,356.655 86.200 C 356.782 85.870,356.686 85.600,356.443 85.600 C 356.199 85.600,356.000 85.369,356.000 85.087 C 356.000 84.042,351.510 79.977,350.627 80.222 C 350.064 80.379,349.966 80.337,350.319 80.091 C 351.277 79.423,348.310 77.808,346.400 77.957 C 345.588 78.021,345.513 77.954,346.000 77.603 C 346.450 77.279,346.210 77.238,345.042 77.441 C 343.924 77.635,343.564 77.582,343.766 77.255 C 343.973 76.921,341.884 76.800,335.878 76.800 C 326.718 76.800,325.212 77.201,325.786 79.486 C 325.921 80.026,325.890 80.379,325.716 80.272 C 325.542 80.164,325.400 81.049,325.400 82.238 C 325.400 83.427,325.547 84.400,325.727 84.400 C 325.907 84.400,325.956 84.715,325.836 85.100 C 325.433 86.396,327.552 88.128,329.074 87.746 C 329.625 87.607,330.000 87.693,330.000 87.957 C 330.000 88.260,331.798 88.402,335.700 88.405 C 341.473 88.411,343.357 88.622,342.987 89.222 C 342.717 89.658,344.389 91.200,345.132 91.200 C 345.452 91.200,346.228 91.738,346.857 92.396 L 348.000 93.593 348.000 106.596 L 348.000 119.600 213.900 119.610 C 134.027 119.615,79.153 119.767,78.200 119.986 C 73.824 120.990,72.989 126.270,76.789 128.912 C 77.719 129.559,85.783 129.600,212.892 129.600 L 348.005 129.600 347.903 218.361 L 347.800 307.121 346.545 308.861 C 345.789 309.908,344.458 311.038,343.199 311.700 L 341.109 312.800 199.958 312.800 C 59.240 312.800,58.805 312.798,58.307 312.000 C 58.032 311.560,57.536 311.186,57.204 311.168 C 56.754 311.145,56.735 311.083,57.128 310.926 C 57.479 310.786,56.972 310.065,55.628 308.790 C 54.331 307.559,53.598 306.529,53.594 305.933 C 53.589 305.184,53.511 305.118,53.200 305.600 C 52.949 305.988,52.810 268.739,52.806 200.076 C 52.802 129.428,52.934 94.035,53.200 94.200 C 53.420 94.336,53.600 94.154,53.600 93.796 C 53.600 93.438,54.455 92.322,55.500 91.316 C 56.545 90.311,57.351 89.319,57.290 89.114 C 57.230 88.909,57.352 88.847,57.562 88.977 C 57.773 89.107,58.058 89.030,58.196 88.807 C 58.365 88.533,96.942 88.400,176.424 88.400 C 263.547 88.400,294.400 88.282,294.400 87.950 C 294.400 87.664,294.835 87.587,295.593 87.739 C 297.083 88.037,298.983 86.406,298.589 85.166 C 298.453 84.738,298.534 84.400,298.773 84.400 C 299.024 84.400,299.200 83.486,299.200 82.176 C 299.200 80.629,299.063 80.038,298.749 80.231 C 298.424 80.432,298.413 80.307,298.707 79.781 C 299.032 79.201,298.886 78.824,297.988 77.926 L 296.862 76.800 176.831 76.800 C 88.009 76.800,56.800 76.917,56.800 77.251 M64.376 93.588 C 62.621 94.516,60.565 96.578,59.902 98.076 C 59.629 98.694,59.269 99.200,59.102 99.200 C 58.936 99.200,58.800 99.470,58.800 99.800 C 58.800 100.724,59.483 100.510,59.757 99.500 C 60.095 98.250,62.545 95.722,64.958 94.133 C 67.124 92.707,66.734 92.341,64.376 93.588 M360.890 96.931 C 362.051 98.323,363.050 99.428,363.111 99.386 C 363.480 99.136,362.232 97.075,360.966 95.846 C 358.619 93.566,358.577 94.157,360.890 96.931 M71.400 97.164 C 67.507 98.900,67.198 104.547,70.873 106.788 C 76.178 110.022,81.857 102.870,77.468 98.481 C 75.987 97.000,73.149 96.384,71.400 97.164 M99.212 97.312 C 96.955 98.454,95.831 101.651,96.794 104.184 C 98.804 109.472,106.463 108.261,107.106 102.553 C 107.558 98.545,102.895 95.448,99.212 97.312 M126.876 97.610 C 124.324 99.166,123.776 102.655,125.653 105.395 C 128.524 109.586,135.194 107.324,135.199 102.159 C 135.202 97.908,130.554 95.368,126.876 97.610 M108.600 151.267 C 106.222 152.582,105.194 154.711,105.785 157.097 C 105.958 157.798,109.136 161.293,114.508 166.691 L 122.958 175.183 114.334 183.891 C 105.153 193.162,104.749 193.746,105.796 196.252 C 106.945 199.002,109.516 200.154,112.079 199.069 C 114.270 198.140,120.455 191.651,119.986 190.774 C 119.195 189.296,119.742 188.513,125.889 182.322 L 132.179 175.989 126.098 169.894 C 119.515 163.297,118.748 162.052,120.312 160.488 C 121.105 159.695,121.099 159.685,117.053 155.690 C 111.969 150.669,110.793 150.054,108.600 151.267 M147.400 151.259 C 146.960 151.499,143.137 155.135,138.903 159.340 L 131.207 166.985 133.695 169.496 L 136.184 172.007 142.456 165.744 L 148.728 159.481 150.464 159.712 C 152.564 159.992,153.608 158.932,153.871 156.253 C 154.225 152.648,150.347 149.657,147.400 151.259 M247.669 151.900 C 246.260 153.092,245.687 155.085,246.180 157.078 C 246.359 157.804,249.447 161.204,254.921 166.704 L 263.384 175.209 254.792 183.808 L 246.200 192.407 246.200 194.561 C 246.200 197.874,248.681 199.953,251.921 199.356 C 254.145 198.945,261.464 191.640,260.832 190.461 C 260.106 189.103,260.859 188.075,267.163 181.810 L 273.190 175.820 266.795 169.383 C 260.005 162.547,260.056 162.625,261.038 160.727 L 261.676 159.494 258.538 156.303 C 252.763 150.431,250.493 149.512,247.669 151.900 M287.400 151.560 C 286.740 151.977,282.964 155.574,279.008 159.555 L 271.816 166.793 274.394 169.394 L 276.973 171.996 283.270 165.743 L 289.567 159.490 291.194 159.708 C 292.716 159.913,292.885 159.833,293.810 158.470 C 296.829 154.029,291.903 148.719,287.400 151.560 M133.861 182.097 L 131.921 184.113 139.061 191.283 C 142.987 195.227,146.686 198.712,147.280 199.027 C 151.408 201.217,156.018 196.459,153.604 192.500 C 152.715 191.041,152.524 190.981,151.424 191.813 C 149.676 193.135,148.927 192.668,142.413 186.200 C 138.978 182.790,136.086 180.018,135.984 180.041 C 135.883 180.064,134.927 180.989,133.861 182.097 M274.795 182.205 L 272.618 184.409 279.609 191.432 C 286.693 198.548,287.996 199.600,289.720 199.600 C 294.291 199.600,296.271 195.047,293.352 191.252 C 293.289 191.171,292.947 191.396,292.590 191.752 C 291.048 193.294,290.093 192.705,283.594 186.202 C 276.360 178.964,277.489 179.477,274.795 182.205 M193.400 230.681 C 176.064 231.615,156.510 237.086,138.800 245.956 C 127.788 251.472,126.408 252.576,126.403 255.872 C 126.395 260.921,130.489 261.675,137.284 257.875 C 145.114 253.496,153.796 249.607,161.800 246.891 C 195.759 235.371,229.923 239.266,264.200 258.566 C 269.146 261.351,272.506 260.777,273.558 256.967 C 274.331 254.167,273.403 252.619,269.633 250.424 C 245.180 236.184,218.672 229.319,193.400 230.681 M363.084 323.257 C 362.282 325.170,360.569 327.077,357.861 329.071 C 356.569 330.022,355.595 330.800,355.696 330.800 C 356.345 330.800,358.400 329.858,358.400 329.561 C 358.400 329.362,358.649 329.200,358.953 329.200 C 359.416 329.200,361.022 327.587,362.844 325.291 C 363.429 324.554,364.131 322.397,363.870 322.136 C 363.747 322.014,363.394 322.518,363.084 323.257 " stroke="none" fill="#040505" fill-rule="evenodd"/><path id="path2" d="M79.027 101.280 C 79.544 105.382,74.951 108.993,71.539 107.168 C 69.513 106.083,70.893 109.580,72.998 110.864 C 74.487 111.772,78.352 111.852,79.981 111.010 C 83.756 109.057,83.788 102.491,80.033 100.280 L 78.810 99.561 79.027 101.280 M107.000 101.941 C 107.000 106.088,103.519 108.614,99.771 107.189 C 98.267 106.617,98.178 106.896,99.255 108.813 C 101.171 112.222,106.535 112.849,109.262 109.983 C 111.951 107.157,111.308 101.911,108.068 100.235 L 107.000 99.683 107.000 101.941 M135.089 101.700 C 135.419 106.155,131.983 108.502,127.327 107.002 C 126.018 106.580,126.555 108.109,128.396 110.044 C 130.019 111.750,134.130 112.276,136.324 111.059 C 139.345 109.382,139.868 103.774,137.247 101.153 C 135.205 99.111,134.904 99.187,135.089 101.700 M120.358 160.442 C 118.743 162.057,119.465 163.248,126.098 169.894 L 132.179 175.989 125.889 182.322 C 119.156 189.103,118.829 189.665,120.582 191.418 C 122.445 193.281,123.439 192.571,134.541 181.457 L 136.082 179.914 142.369 186.157 C 148.974 192.716,149.612 193.108,151.511 191.777 C 153.704 190.241,152.978 188.921,146.185 182.102 L 139.969 175.862 146.185 169.603 C 152.761 162.980,153.419 161.876,151.771 160.229 C 150.106 158.563,148.978 159.232,142.405 165.785 L 136.200 171.971 129.858 165.785 C 123.018 159.113,122.166 158.634,120.358 160.442 M261.760 159.906 C 261.208 160.275,260.400 161.784,260.400 162.446 C 260.400 162.721,263.278 165.842,266.795 169.383 L 273.190 175.820 267.163 181.810 C 260.539 188.393,260.093 189.046,261.009 190.817 C 262.494 193.690,263.451 193.205,271.200 185.655 C 274.390 182.547,277.090 180.004,277.200 180.004 C 277.310 180.005,280.187 182.794,283.594 186.202 C 290.570 193.183,291.667 193.725,293.140 190.926 C 294.010 189.273,293.582 188.638,287.400 182.413 C 283.990 178.978,281.200 176.019,281.200 175.837 C 281.200 175.654,283.741 172.961,286.847 169.853 C 293.734 162.959,293.859 162.790,293.197 161.193 C 292.666 159.910,291.409 159.357,289.900 159.743 C 289.405 159.870,286.305 162.677,283.010 165.982 L 277.021 171.989 270.782 165.795 C 264.448 159.505,263.392 158.816,261.760 159.906 " stroke="none" fill="#f8c413" fill-rule="evenodd"/><path id="path3" d="M70.200 91.999 C 70.036 92.265,116.383 92.433,208.464 92.499 L 346.974 92.600 347.456 94.200 C 347.882 95.612,347.942 95.669,347.969 94.682 C 347.988 93.997,347.619 93.183,347.018 92.582 L 346.036 91.600 208.242 91.600 C 116.942 91.600,70.364 91.735,70.200 91.999 M358.097 199.600 C 358.033 265.213,357.849 305.491,357.606 306.975 C 357.116 309.969,357.383 310.378,357.969 307.532 C 358.283 306.008,358.378 275.333,358.303 200.000 L 358.198 94.600 358.097 199.600 M360.034 96.247 C 360.565 96.933,361.080 97.423,361.179 97.335 C 361.277 97.247,360.843 96.686,360.213 96.088 L 359.069 95.000 360.034 96.247 M70.700 97.103 C 70.095 97.478,69.600 97.952,69.600 98.155 C 69.600 98.358,69.979 98.181,70.442 97.762 C 71.991 96.360,75.628 96.691,77.441 98.400 C 78.450 99.351,78.721 99.493,78.285 98.842 C 76.707 96.485,73.049 95.647,70.700 97.103 M99.621 96.779 C 99.243 97.018,99.617 97.068,100.697 96.923 C 102.976 96.617,104.076 96.970,105.597 98.494 C 106.608 99.507,106.794 99.593,106.425 98.879 C 105.408 96.909,101.380 95.666,99.621 96.779 M126.944 97.169 C 126.253 97.590,125.565 98.133,125.416 98.374 C 125.267 98.616,125.832 98.344,126.672 97.770 C 127.964 96.888,128.527 96.753,130.317 96.898 C 131.505 96.994,132.207 96.925,131.917 96.740 C 130.985 96.149,128.226 96.387,126.944 97.169 M97.375 98.426 C 96.055 99.804,95.651 103.817,96.725 104.880 C 97.158 105.309,97.176 105.203,96.825 104.274 C 95.963 101.991,96.378 100.013,98.120 98.100 C 99.356 96.742,98.722 97.020,97.375 98.426 M133.634 98.247 C 134.165 98.933,134.680 99.423,134.779 99.335 C 134.877 99.247,134.443 98.686,133.813 98.088 L 132.669 97.000 133.634 98.247 M68.388 99.622 C 68.146 100.074,68.018 100.655,68.104 100.911 C 68.189 101.168,68.462 100.798,68.709 100.089 C 69.217 98.632,69.049 98.388,68.388 99.622 M124.361 100.300 C 123.818 101.723,124.235 104.353,125.183 105.500 C 126.225 106.759,126.640 106.631,125.640 105.359 C 124.582 104.015,124.203 101.939,124.737 100.410 C 125.263 98.899,124.932 98.801,124.361 100.300 M363.455 102.200 C 363.731 103.955,363.874 104.259,364.250 103.884 C 364.387 103.746,364.208 102.951,363.851 102.117 L 363.203 100.600 363.455 102.200 M68.032 103.224 C 68.014 103.566,68.280 104.196,68.622 104.624 C 69.234 105.388,69.238 105.387,68.876 104.600 C 68.674 104.160,68.408 103.530,68.286 103.200 C 68.093 102.682,68.059 102.685,68.032 103.224 M58.267 103.467 C 57.852 103.882,57.953 105.200,58.400 105.200 C 58.620 105.200,58.800 104.750,58.800 104.200 C 58.800 103.153,58.708 103.026,58.267 103.467 M364.597 211.800 C 364.597 270.540,364.643 294.510,364.700 265.068 C 364.757 235.625,364.757 187.565,364.700 158.268 C 364.643 128.970,364.597 153.060,364.597 211.800 M78.315 119.528 C 77.697 119.773,255.097 119.750,321.400 119.497 C 336.140 119.440,287.630 119.363,213.600 119.325 C 139.570 119.287,78.692 119.379,78.315 119.528 M75.729 120.900 C 75.284 121.395,74.787 122.070,74.625 122.400 C 74.463 122.730,74.687 122.561,75.123 122.025 C 75.559 121.489,76.239 120.814,76.635 120.525 C 77.030 120.236,77.170 120.000,76.946 120.000 C 76.722 120.000,76.175 120.405,75.729 120.900 M74.109 124.800 C 74.109 125.790,74.187 126.195,74.282 125.700 C 74.378 125.205,74.378 124.395,74.282 123.900 C 74.187 123.405,74.109 123.810,74.109 124.800 M74.781 127.479 C 75.227 128.402,76.695 129.600,77.378 129.600 C 77.598 129.600,77.333 129.291,76.789 128.912 C 76.245 128.534,75.475 127.859,75.077 127.412 C 74.356 126.601,74.356 126.602,74.781 127.479 M145.532 129.900 C 182.785 129.956,243.625 129.956,280.732 129.900 C 317.840 129.844,287.360 129.798,213.000 129.798 C 138.640 129.798,108.280 129.844,145.532 129.900 M249.905 150.683 C 250.402 150.779,251.122 150.775,251.505 150.675 C 251.887 150.575,251.480 150.496,250.600 150.501 C 249.720 150.505,249.407 150.587,249.905 150.683 M289.300 150.676 C 289.685 150.776,290.315 150.776,290.700 150.676 C 291.085 150.575,290.770 150.493,290.000 150.493 C 289.230 150.493,288.915 150.575,289.300 150.676 M106.778 152.222 C 105.550 153.489,105.400 153.882,105.400 155.821 L 105.400 157.998 114.194 166.699 L 122.989 175.400 114.523 166.800 C 109.192 161.384,105.956 157.792,105.785 157.097 C 105.194 154.711,106.222 152.582,108.600 151.267 C 109.192 150.939,109.239 150.821,108.778 150.812 C 108.437 150.805,107.537 151.440,106.778 152.222 M112.200 151.261 C 112.640 151.501,114.845 153.517,117.100 155.741 C 119.355 157.966,121.200 159.642,121.200 159.467 C 121.200 158.839,112.715 150.800,112.065 150.812 C 111.524 150.822,111.549 150.906,112.200 151.261 M138.860 158.810 C 134.383 163.204,130.875 166.800,131.064 166.800 C 131.253 166.800,134.646 163.541,138.604 159.559 C 142.562 155.576,146.340 151.977,147.000 151.560 C 147.660 151.144,147.930 150.807,147.600 150.811 C 147.270 150.816,143.337 154.415,138.860 158.810 M151.635 151.712 C 153.215 152.777,153.988 154.120,153.988 155.800 C 153.988 156.922,153.812 157.362,152.486 159.551 C 151.617 160.986,152.310 160.490,153.386 158.907 C 155.350 156.017,153.735 150.882,150.841 150.813 C 150.533 150.806,150.891 151.210,151.635 151.712 M247.322 151.829 L 246.200 152.858 247.500 151.954 C 248.215 151.457,248.800 150.993,248.800 150.925 C 248.800 150.609,248.358 150.880,247.322 151.829 M253.840 151.947 C 254.698 152.578,256.885 154.626,258.700 156.498 C 260.515 158.370,262.000 159.779,262.000 159.628 C 262.000 159.123,253.326 150.800,252.800 150.800 C 252.514 150.800,252.982 151.316,253.840 151.947 M279.615 158.700 L 271.789 166.600 279.394 159.147 C 283.577 155.048,287.360 151.499,287.800 151.259 C 288.323 150.975,288.399 150.820,288.020 150.812 C 287.701 150.805,283.919 154.355,279.615 158.700 M293.625 152.200 C 293.625 152.420,293.890 152.949,294.213 153.376 C 294.536 153.804,294.800 153.973,294.800 153.753 C 294.800 153.533,294.536 153.004,294.213 152.576 C 293.890 152.149,293.625 151.980,293.625 152.200 M245.867 153.467 C 245.295 154.039,245.596 157.499,246.265 158.051 C 246.873 158.552,246.886 158.516,246.420 157.641 C 246.120 157.078,245.990 155.965,246.105 154.941 C 246.311 153.117,246.298 153.035,245.867 153.467 M294.893 155.600 C 294.893 156.370,294.975 156.685,295.076 156.300 C 295.176 155.915,295.176 155.285,295.076 154.900 C 294.975 154.515,294.893 154.830,294.893 155.600 M293.678 158.705 L 292.755 160.200 293.778 159.078 C 294.340 158.460,294.800 157.785,294.800 157.578 C 294.800 156.975,294.655 157.120,293.678 158.705 M254.798 166.900 L 262.993 175.200 254.598 183.700 L 246.202 192.200 254.800 183.700 L 263.398 175.200 255.000 166.900 L 246.602 158.600 254.798 166.900 M114.731 182.950 C 106.350 191.302,105.190 192.593,105.225 193.531 C 105.242 193.959,105.392 193.840,105.642 193.200 C 105.857 192.650,109.759 188.465,114.313 183.900 C 118.867 179.335,122.483 175.600,122.349 175.600 C 122.215 175.600,118.787 178.907,114.731 182.950 M139.501 192.001 L 147.203 199.800 149.432 199.800 C 151.690 199.800,154.403 197.891,154.399 196.306 C 154.398 196.028,154.046 196.376,153.616 197.081 C 150.814 201.676,148.833 200.904,139.200 191.459 L 131.800 184.203 139.501 192.001 M279.400 191.532 C 287.875 200.150,290.221 201.539,292.482 199.278 C 292.714 199.046,292.248 199.058,291.309 199.309 C 288.544 200.047,287.863 199.596,279.800 191.675 L 272.200 184.210 279.400 191.532 M153.318 192.146 C 153.803 192.886,154.258 193.342,154.329 193.159 C 154.477 192.777,153.141 190.831,152.718 190.813 C 152.564 190.806,152.834 191.405,153.318 192.146 M293.564 191.400 C 294.258 192.757,294.787 193.422,294.794 192.944 C 294.797 192.694,294.430 192.064,293.977 191.544 C 293.331 190.802,293.242 190.771,293.564 191.400 M257.200 195.240 C 252.993 199.492,251.638 200.134,249.121 199.069 C 246.947 198.150,246.200 197.005,246.200 194.596 C 246.200 193.430,246.068 192.684,245.906 192.938 C 243.732 196.355,249.014 201.264,252.887 199.427 C 254.150 198.828,261.562 191.753,261.179 191.513 C 261.081 191.451,259.290 193.128,257.200 195.240 M119.400 192.400 C 119.002 192.840,118.878 193.200,119.124 193.200 C 119.370 193.200,119.765 192.840,120.000 192.400 C 120.235 191.960,120.360 191.600,120.276 191.600 C 120.192 191.600,119.798 191.960,119.400 192.400 M294.893 194.800 C 294.893 195.570,294.975 195.885,295.076 195.500 C 295.176 195.115,295.176 194.485,295.076 194.100 C 294.975 193.715,294.893 194.030,294.893 194.800 M115.796 196.004 C 115.166 196.662,114.819 197.197,115.025 197.193 C 115.507 197.184,117.367 195.234,117.125 194.992 C 117.024 194.891,116.426 195.346,115.796 196.004 M105.217 195.600 C 105.198 196.425,106.780 198.953,107.110 198.623 C 107.257 198.477,107.165 198.225,106.906 198.065 C 106.647 197.905,106.164 197.150,105.833 196.387 C 105.502 195.624,105.225 195.270,105.217 195.600 M294.057 197.257 C 293.775 197.709,293.632 198.166,293.740 198.273 C 293.847 198.381,294.144 198.078,294.400 197.600 C 295.005 196.470,294.724 196.190,294.057 197.257 M113.625 198.170 C 112.790 199.176,110.600 199.693,109.020 199.257 C 107.348 198.795,107.127 199.040,108.682 199.631 C 110.481 200.315,115.274 198.740,114.314 197.780 C 114.204 197.671,113.894 197.846,113.625 198.170 M198.100 230.291 C 198.925 230.378,200.275 230.378,201.100 230.291 C 201.925 230.205,201.250 230.134,199.600 230.134 C 197.950 230.134,197.275 230.205,198.100 230.291 M192.500 230.687 C 193.105 230.778,194.095 230.778,194.700 230.687 C 195.305 230.595,194.810 230.520,193.600 230.520 C 192.390 230.520,191.895 230.595,192.500 230.687 M205.500 230.689 C 206.215 230.778,207.385 230.778,208.100 230.689 C 208.815 230.601,208.230 230.528,206.800 230.528 C 205.370 230.528,204.785 230.601,205.500 230.689 M183.809 231.246 C 182.494 231.437,181.234 231.678,181.009 231.781 C 180.504 232.013,185.146 231.598,187.600 231.192 L 189.400 230.894 187.800 230.896 C 186.920 230.897,185.124 231.054,183.809 231.246 M213.000 231.162 C 215.367 231.660,220.194 232.048,218.400 231.597 C 217.630 231.403,215.740 231.150,214.200 231.035 C 212.098 230.878,211.799 230.910,213.000 231.162 M176.069 232.483 C 174.897 232.696,174.030 232.963,174.143 233.076 C 174.369 233.303,180.000 232.426,180.000 232.164 C 180.000 231.921,178.475 232.045,176.069 232.483 M221.277 232.368 C 221.870 232.561,223.310 232.823,224.477 232.951 C 225.976 233.115,226.283 233.080,225.523 232.832 C 224.930 232.639,223.490 232.377,222.323 232.249 C 220.824 232.085,220.517 232.120,221.277 232.368 M169.400 234.000 L 168.600 234.344 169.400 234.332 C 169.840 234.326,170.650 234.176,171.200 234.000 L 172.200 233.680 171.200 233.668 C 170.650 233.662,169.840 233.811,169.400 234.000 M229.200 234.000 C 229.750 234.176,230.560 234.326,231.000 234.332 L 231.800 234.344 231.000 234.000 C 230.560 233.811,229.750 233.662,229.200 233.668 L 228.200 233.680 229.200 234.000 M164.400 235.427 L 163.000 235.993 164.400 235.745 C 165.170 235.608,166.160 235.351,166.600 235.173 L 167.400 234.851 166.600 234.856 C 166.160 234.859,165.170 235.116,164.400 235.427 M233.800 235.173 C 234.240 235.351,235.230 235.608,236.000 235.745 L 237.400 235.993 236.000 235.427 C 235.230 235.116,234.240 234.859,233.800 234.856 L 233.000 234.851 233.800 235.173 M160.075 236.673 C 159.126 237.009,158.413 237.346,158.490 237.423 C 158.667 237.600,162.800 236.399,162.800 236.170 C 162.800 235.871,161.846 236.047,160.075 236.673 M237.600 236.170 C 237.600 236.396,241.732 237.601,241.907 237.426 C 242.053 237.281,238.480 236.000,237.929 236.000 C 237.748 236.000,237.600 236.076,237.600 236.170 M156.400 238.000 C 155.867 238.345,155.867 238.388,156.400 238.388 C 156.730 238.388,157.270 238.213,157.600 238.000 C 158.133 237.655,158.133 237.612,157.600 237.612 C 157.270 237.612,156.730 237.787,156.400 238.000 M242.800 238.000 C 243.130 238.213,243.670 238.388,244.000 238.388 C 244.533 238.388,244.533 238.345,244.000 238.000 C 243.670 237.787,243.130 237.612,242.800 237.612 C 242.267 237.612,242.267 237.655,242.800 238.000 M152.842 239.234 C 152.315 239.445,151.979 239.712,152.095 239.829 C 152.212 239.945,152.913 239.776,153.653 239.453 C 155.126 238.810,154.394 238.613,152.842 239.234 M246.000 239.164 C 246.330 239.350,247.050 239.623,247.600 239.768 L 248.600 240.033 247.600 239.431 C 247.050 239.099,246.330 238.827,246.000 238.826 C 245.467 238.825,245.467 238.862,246.000 239.164 M149.800 240.614 C 148.800 241.096,148.766 241.151,149.600 240.948 C 150.733 240.671,152.007 240.021,151.400 240.030 C 151.180 240.033,150.460 240.296,149.800 240.614 M248.833 240.150 C 249.024 240.322,255.290 243.088,256.800 243.667 C 259.449 244.682,256.580 243.102,253.120 241.640 C 249.618 240.159,248.358 239.722,248.833 240.150 M190.400 240.765 C 189.190 240.894,193.510 241.000,200.000 241.000 C 206.490 241.000,210.720 240.885,209.400 240.743 C 206.455 240.429,193.414 240.444,190.400 240.765 M182.640 241.642 C 181.342 241.831,180.187 242.079,180.074 242.193 C 179.728 242.538,181.643 242.381,184.600 241.820 C 187.713 241.230,186.326 241.104,182.640 241.642 M215.200 241.784 C 216.850 242.089,218.650 242.334,219.200 242.329 C 220.874 242.311,217.744 241.679,214.800 241.440 L 212.200 241.229 215.200 241.784 M146.000 242.200 C 145.450 242.514,145.180 242.772,145.400 242.772 C 145.620 242.772,146.250 242.514,146.800 242.200 C 147.350 241.886,147.620 241.628,147.400 241.628 C 147.180 241.628,146.550 241.886,146.000 242.200 M143.376 243.380 C 142.627 243.940,142.632 243.952,143.506 243.732 C 144.005 243.606,144.510 243.345,144.630 243.152 C 144.968 242.604,144.236 242.738,143.376 243.380 M174.000 243.297 C 173.010 243.524,172.380 243.770,172.600 243.844 C 172.820 243.918,173.990 243.733,175.200 243.434 C 177.746 242.803,176.688 242.683,174.000 243.297 M223.600 243.146 C 225.093 243.638,227.970 244.060,227.000 243.645 C 226.560 243.456,225.390 243.193,224.400 243.059 C 223.216 242.900,222.942 242.929,223.600 243.146 M140.800 244.600 C 140.250 244.914,139.980 245.172,140.200 245.172 C 140.420 245.172,141.050 244.914,141.600 244.600 C 142.150 244.286,142.420 244.028,142.200 244.028 C 141.980 244.028,141.350 244.286,140.800 244.600 M169.400 244.615 C 167.823 245.161,167.820 245.165,169.200 244.932 C 170.832 244.657,172.500 244.048,171.600 244.056 C 171.270 244.059,170.280 244.311,169.400 244.615 M228.600 244.368 C 229.040 244.543,230.120 244.791,231.000 244.919 L 232.600 245.152 231.000 244.607 C 230.120 244.307,229.040 244.059,228.600 244.056 L 227.800 244.051 228.600 244.368 M258.220 244.324 C 258.738 244.765,260.800 245.627,260.800 245.402 C 260.800 245.181,258.559 244.000,258.140 244.000 C 257.975 244.000,258.011 244.146,258.220 244.324 M165.200 245.688 C 164.430 245.916,164.005 246.179,164.257 246.271 C 164.508 246.363,165.318 246.174,166.057 245.851 C 167.619 245.170,167.209 245.091,165.200 245.688 M233.800 245.762 C 234.460 246.053,235.540 246.398,236.200 246.529 L 237.400 246.767 236.200 246.238 C 235.540 245.947,234.460 245.602,233.800 245.471 L 232.600 245.233 233.800 245.762 M134.660 247.646 C 133.373 248.310,132.410 248.943,132.520 249.053 C 132.719 249.252,137.200 246.868,137.200 246.562 C 137.200 246.332,137.237 246.316,134.660 247.646 M158.686 247.901 C 157.193 248.453,156.059 248.993,156.167 249.100 C 156.365 249.299,162.400 247.214,162.400 246.946 C 162.400 246.648,161.329 246.923,158.686 247.901 M238.800 247.400 C 240.626 248.103,241.345 248.093,239.800 247.386 C 239.140 247.083,238.330 246.842,238.000 246.848 C 237.670 246.855,238.030 247.103,238.800 247.400 M263.600 246.993 C 263.600 247.100,264.500 247.643,265.600 248.200 C 268.115 249.475,268.221 249.216,265.750 247.834 C 263.827 246.760,263.600 246.671,263.600 246.993 M241.600 248.333 C 241.930 248.536,242.650 248.824,243.200 248.971 C 243.895 249.157,244.017 249.125,243.600 248.867 C 243.270 248.664,242.550 248.376,242.000 248.229 C 241.305 248.043,241.183 248.075,241.600 248.333 M245.200 249.736 C 245.750 250.046,246.650 250.419,247.200 250.565 L 248.200 250.829 247.200 250.264 C 246.650 249.954,245.750 249.581,245.200 249.435 L 244.200 249.171 245.200 249.736 M268.000 249.379 C 268.000 249.489,268.540 249.859,269.200 250.200 C 269.860 250.541,270.400 250.731,270.400 250.621 C 270.400 250.511,269.860 250.141,269.200 249.800 C 268.540 249.459,268.000 249.269,268.000 249.379 M150.900 251.034 C 150.185 251.346,149.600 251.694,149.600 251.807 C 149.600 252.015,152.406 250.927,152.746 250.587 C 153.086 250.247,152.220 250.457,150.900 251.034 M128.087 251.424 C 126.811 252.318,125.991 254.121,126.060 255.880 C 126.112 257.190,126.141 257.234,126.270 256.200 C 126.564 253.843,126.816 253.246,128.031 252.031 C 129.401 250.661,129.416 250.493,128.087 251.424 M250.540 252.046 C 251.827 252.710,252.964 253.170,253.066 253.068 C 253.249 252.884,248.936 250.782,248.452 250.819 C 248.313 250.830,249.253 251.382,250.540 252.046 M270.800 250.925 C 270.800 250.993,271.385 251.472,272.100 251.988 L 273.400 252.927 272.430 251.863 C 271.602 250.955,270.800 250.493,270.800 250.925 M147.600 252.600 C 147.050 252.914,146.780 253.172,147.000 253.172 C 147.220 253.172,147.850 252.914,148.400 252.600 C 148.950 252.286,149.220 252.028,149.000 252.028 C 148.780 252.028,148.150 252.286,147.600 252.600 M145.300 253.612 C 144.805 253.811,144.400 254.070,144.400 254.187 C 144.400 254.575,145.037 254.408,145.824 253.813 C 146.708 253.143,146.585 253.096,145.300 253.612 M253.633 253.353 C 254.041 253.726,258.800 255.991,258.800 255.812 C 258.800 255.587,254.179 253.200,253.745 253.200 C 253.592 253.200,253.542 253.269,253.633 253.353 M273.596 254.385 C 274.815 258.638,269.978 261.969,266.055 259.577 C 265.315 259.126,264.623 258.844,264.516 258.951 C 264.112 259.355,267.633 260.800,269.022 260.800 C 272.648 260.800,276.231 255.026,273.610 253.406 C 273.400 253.276,273.394 253.681,273.596 254.385 M141.776 255.380 C 141.027 255.940,141.032 255.952,141.906 255.732 C 142.405 255.606,142.910 255.345,143.030 255.152 C 143.368 254.604,142.636 254.738,141.776 255.380 M138.700 257.026 C 137.655 257.570,136.800 258.105,136.800 258.214 C 136.800 258.324,137.700 257.957,138.800 257.400 C 139.900 256.843,140.800 256.300,140.800 256.193 C 140.800 255.929,140.836 255.914,138.700 257.026 M259.776 256.613 C 260.204 256.936,260.744 257.194,260.976 257.187 C 261.209 257.180,261.051 256.910,260.624 256.587 C 260.196 256.264,259.656 256.006,259.424 256.013 C 259.191 256.020,259.349 256.290,259.776 256.613 M261.600 257.379 C 261.600 257.489,262.140 257.859,262.800 258.200 C 263.460 258.541,264.000 258.731,264.000 258.621 C 264.000 258.511,263.460 258.141,262.800 257.800 C 262.140 257.459,261.600 257.269,261.600 257.379 M126.845 258.387 C 128.217 260.519,131.979 261.778,133.237 260.524 C 133.416 260.346,132.573 260.262,131.364 260.338 C 129.263 260.470,129.101 260.408,127.689 258.938 C 126.858 258.074,126.489 257.832,126.845 258.387 M135.100 259.029 C 133.605 259.840,133.696 260.178,135.200 259.400 C 135.860 259.059,136.400 258.694,136.400 258.590 C 136.400 258.332,136.357 258.347,135.100 259.029 M347.254 306.339 C 346.765 308.248,345.526 309.935,343.600 311.317 C 342.638 312.007,342.651 312.007,343.934 311.317 C 345.605 310.419,347.511 307.879,347.844 306.109 C 348.235 304.020,347.806 304.188,347.254 306.339 M356.450 311.050 C 356.186 311.629,356.062 312.195,356.174 312.307 C 356.286 312.419,356.568 312.011,356.800 311.400 C 357.032 310.789,357.157 310.223,357.076 310.143 C 356.996 310.062,356.714 310.471,356.450 311.050 M58.349 312.135 C 58.921 312.828,339.945 313.162,341.685 312.472 C 342.062 312.322,278.737 312.246,200.963 312.302 C 93.642 312.380,59.344 312.292,58.678 311.937 C 57.884 311.514,57.852 311.533,58.349 312.135 M351.800 317.483 C 349.072 320.062,348.947 320.625,351.647 318.169 C 353.173 316.781,355.027 314.791,354.770 314.817 C 354.676 314.827,353.340 316.026,351.800 317.483 M344.400 321.800 C 343.483 322.153,343.276 322.345,343.800 322.355 C 344.240 322.364,345.050 322.114,345.600 321.800 C 346.847 321.087,346.251 321.087,344.400 321.800 M59.862 322.700 C 59.694 322.971,154.552 322.970,291.800 322.698 C 319.960 322.643,279.336 322.553,201.524 322.498 C 123.712 322.444,59.964 322.535,59.862 322.700 M64.800 329.124 C 64.800 329.339,65.085 329.624,65.433 329.757 C 65.823 329.907,66.006 329.818,65.908 329.525 C 65.709 328.927,64.800 328.598,64.800 329.124 M68.400 330.800 C 68.400 331.020,68.670 331.200,69.000 331.200 C 69.330 331.200,69.600 331.020,69.600 330.800 C 69.600 330.580,69.330 330.400,69.000 330.400 C 68.670 330.400,68.400 330.580,68.400 330.800 M352.800 330.800 C 352.800 331.020,353.059 331.200,353.376 331.200 C 353.693 331.200,354.064 331.020,354.200 330.800 C 354.336 330.580,354.077 330.400,353.624 330.400 C 353.171 330.400,352.800 330.580,352.800 330.800 M142.300 331.500 C 180.635 331.556,243.365 331.556,281.700 331.500 C 320.035 331.444,288.670 331.398,212.000 331.398 C 135.330 331.398,103.965 331.444,142.300 331.500 " stroke="none" fill="#0e6775" fill-rule="evenodd"/><path id="path4" d="M79.599 99.881 C 80.149 100.277,81.004 101.031,81.499 101.558 C 81.995 102.086,82.400 102.320,82.400 102.079 C 82.400 101.650,80.386 99.989,79.200 99.440 C 78.870 99.288,79.050 99.486,79.599 99.881 M107.397 99.724 C 109.816 101.170,110.759 102.726,110.904 105.509 L 111.043 108.200 111.122 105.489 L 111.200 102.779 109.411 100.989 C 108.426 100.005,107.391 99.211,107.111 99.224 C 106.830 99.236,106.959 99.461,107.397 99.724 M137.549 101.314 C 138.998 103.067,139.378 107.483,138.213 109.024 C 137.890 109.451,137.621 109.980,137.615 110.200 C 137.610 110.420,137.963 110.060,138.400 109.400 C 139.866 107.186,139.542 103.140,137.749 101.294 L 136.298 99.800 137.549 101.314 M70.034 106.920 C 69.815 111.522,78.075 113.967,81.440 110.296 C 82.188 109.480,82.797 108.584,82.793 108.306 C 82.790 108.028,82.408 108.392,81.945 109.115 C 79.180 113.432,71.902 112.249,70.382 107.235 C 70.176 106.555,70.057 106.447,70.034 106.920 M98.025 106.716 C 97.991 107.422,99.477 110.277,100.071 110.644 C 100.336 110.808,100.166 110.316,99.693 109.550 C 99.220 108.785,98.657 107.718,98.442 107.180 C 98.227 106.641,98.039 106.432,98.025 106.716 M109.164 110.027 C 107.628 111.710,103.770 112.287,101.474 111.178 C 100.630 110.770,100.626 110.777,101.376 111.378 C 103.566 113.132,109.011 111.795,110.423 109.157 C 110.987 108.102,110.807 108.227,109.164 110.027 M126.800 108.737 C 126.800 111.136,134.005 113.156,136.224 111.378 C 136.974 110.777,136.970 110.770,136.126 111.178 C 133.809 112.298,129.981 111.710,128.338 109.983 C 127.492 109.094,126.800 108.533,126.800 108.737 M122.270 159.487 C 122.969 159.575,123.756 159.906,124.019 160.223 C 124.283 160.540,124.701 160.796,124.949 160.791 C 125.197 160.786,124.950 160.430,124.400 160.000 C 123.850 159.570,122.860 159.243,122.200 159.273 L 121.000 159.328 122.270 159.487 M263.334 159.589 C 264.506 159.815,265.641 160.630,268.145 163.043 L 271.422 166.200 267.969 162.700 C 264.914 159.604,264.359 159.205,263.158 159.246 L 261.800 159.292 263.334 159.589 M293.020 160.600 C 293.169 161.040,293.377 161.697,293.481 162.059 C 293.594 162.448,293.065 163.390,292.189 164.359 C 291.374 165.262,290.828 166.000,290.976 166.000 C 292.476 166.000,294.220 162.338,293.396 160.917 C 293.040 160.303,292.871 160.160,293.020 160.600 M152.330 161.853 C 152.486 163.189,152.223 163.522,146.229 169.559 L 139.964 175.868 145.822 181.734 C 149.044 184.960,151.795 187.600,151.935 187.600 C 152.075 187.600,149.537 184.943,146.295 181.695 L 140.400 175.790 146.600 169.600 C 152.776 163.433,153.992 161.584,152.484 160.652 C 152.310 160.544,152.241 161.085,152.330 161.853 M288.193 168.407 C 287.337 169.283,286.758 170.000,286.905 170.000 C 287.278 170.000,290.088 167.155,289.901 166.967 C 289.817 166.883,289.048 167.531,288.193 168.407 M284.193 172.407 C 283.337 173.283,282.758 174.000,282.905 174.000 C 283.278 174.000,286.088 171.155,285.901 170.967 C 285.817 170.883,285.048 171.531,284.193 172.407 M287.000 182.000 C 290.294 185.300,293.080 188.000,293.190 188.000 C 293.300 188.000,290.694 185.300,287.400 182.000 C 284.106 178.700,281.320 176.000,281.210 176.000 C 281.100 176.000,283.706 178.700,287.000 182.000 M127.780 188.027 C 123.622 192.207,122.689 192.767,121.137 192.012 C 120.244 191.577,120.237 191.585,120.976 192.178 C 122.399 193.318,123.241 192.873,127.554 188.700 C 129.885 186.445,131.869 184.555,131.963 184.500 C 132.057 184.445,132.049 184.316,131.946 184.213 C 131.843 184.110,129.968 185.826,127.780 188.027 M152.368 189.500 C 152.559 190.881,152.587 190.909,152.719 189.851 C 152.798 189.219,152.705 188.545,152.512 188.352 C 152.310 188.150,152.249 188.640,152.368 189.500 M264.818 191.644 C 264.236 192.128,263.465 192.391,262.930 192.289 C 262.432 192.193,262.119 192.270,262.236 192.458 C 262.634 193.103,264.200 192.771,265.400 191.788 C 266.060 191.247,266.420 190.809,266.200 190.815 C 265.980 190.822,265.358 191.195,264.818 191.644 " stroke="none" fill="#73ae78" fill-rule="evenodd"/></g></svg>