<svg xmlns="http://www.w3.org/2000/svg" xmlns:xlink="http://www.w3.org/1999/xlink" width="500" zoomAndPan="magnify" viewBox="0 0 375 374.999991" height="500" preserveAspectRatio="xMidYMid meet" version="1.2"><defs><clipPath id="f3e3b52a28"><path d="M 90.257812 69.746094 L 298 69.746094 L 298 285.746094 L 90.257812 285.746094 Z M 90.257812 69.746094 "/></clipPath><clipPath id="11b2c6a9c4"><path d="M 90.257812 109 L 298 109 L 298 117 L 90.257812 117 Z M 90.257812 109 "/></clipPath></defs><g id="10d21cce51"><path style=" stroke:none;fill-rule:nonzero;fill:#17a2b8;fill-opacity:1;" d="M 351.777344 240.496094 C 342.617188 277.382812 320.929688 302.949219 286.710938 317.199219 C 252.492188 331.445312 218.976562 337.867188 186.15625 336.46875 C 153.339844 335.070312 125.863281 323.367188 103.730469 301.363281 C 81.59375 279.355469 62.449219 254.488281 46.296875 226.757812 C 30.140625 199.027344 27.472656 169.324219 38.28125 137.652344 C 49.09375 105.976562 66.96875 77.164062 91.898438 51.214844 C 116.832031 25.265625 147.171875 14.964844 182.914062 20.304688 C 218.65625 25.648438 253.382812 36.015625 287.09375 51.40625 C 320.800781 66.796875 342.300781 92.9375 351.585938 129.828125 C 360.871094 166.714844 360.933594 203.605469 351.777344 240.496094 Z M 351.777344 240.496094 "/><path style=" stroke:none;fill-rule:nonzero;fill:#fbc114;fill-opacity:1;" d="M 369.769531 159.710938 C 357.355469 88.757812 304.996094 28.1875 238.570312 10.949219 C 208.757812 2.953125 178.078125 7.289062 147.886719 12.058594 C 132.683594 18.105469 117.941406 25.476562 103.007812 32.195312 C 30.996094 76.453125 0.722656 179.710938 38.339844 259.011719 C 69.210938 318.851562 130.488281 364.300781 196.589844 357.390625 C 213.066406 359.125 226.238281 358.773438 241.578125 351.210938 C 261.714844 346.117188 282.472656 335.492188 300.660156 323.082031 C 336.40625 297.226562 364.105469 249.011719 369.308594 203.832031 C 369.90625 193.398438 370.175781 190.769531 368.929688 182.828125 C 368.984375 178.710938 370.203125 166.40625 369.769531 159.710938 Z M 367.382812 198.925781 C 364.675781 221.800781 358.628906 247.195312 344.644531 267.167969 C 330.632812 288.851562 316.132812 312.105469 293.371094 324.082031 C 237.621094 361.539062 163.929688 367.472656 106.097656 331.535156 C 29.667969 282.292969 0.15625 181.285156 46.308594 97.808594 C 70.1875 56.535156 94.605469 35.9375 137.183594 19.511719 C 190.679688 -0.0273438 254.425781 5.960938 299.085938 45.097656 C 335.484375 72.199219 358.984375 114.777344 367.628906 160.578125 C 367.355469 173.371094 367.519531 186.242188 367.382812 198.925781 Z M 367.382812 198.925781 "/><path style=" stroke:none;fill-rule:nonzero;fill:#fbc114;fill-opacity:1;" d="M 355.054688 187.328125 C 354.621094 126.132812 320.984375 60.707031 260.574219 36.914062 C 250.980469 33.0625 241.007812 30.652344 230.765625 27.265625 C 226.808594 25.535156 222.707031 24.289062 218.453125 23.527344 C 214.203125 22.765625 209.925781 22.511719 205.613281 22.765625 C 168.429688 22.765625 133.496094 25.175781 103.386719 50.410156 C 31.753906 96.5625 9.371094 204.023438 60.320312 272.34375 C 89.484375 320.34375 136.042969 340.613281 191.195312 345.277344 C 213.148438 345.003906 234.722656 338.472656 255.019531 330.992188 C 255.210938 330.992188 255.589844 330.832031 255.507812 330.992188 C 254.207031 332.132812 259.03125 330.074219 261.6875 328.878906 C 271.851562 323.460938 285.023438 318.609375 293.207031 311.019531 C 328.738281 281.886719 356.949219 233.101562 355.054688 187.328125 Z M 352.34375 196.8125 C 349.46875 240.609375 323.425781 282.046875 289.546875 310.125 C 235.5625 345.359375 168.972656 352.703125 111.976562 319.71875 C 0.589844 252.804688 14.789062 86.101562 134.28125 35.664062 C 150.082031 29.214844 166.804688 24.609375 184.121094 25.746094 C 208.160156 23.035156 228.625 27.859375 250.710938 35.71875 C 317.921875 57.644531 356.597656 131.171875 352.476562 196.8125 Z M 352.34375 196.8125 "/><g clip-rule="nonzero" clip-path="url(#f3e3b52a28)"><path style=" stroke:none;fill-rule:nonzero;fill:#f4f1f0;fill-opacity:1;" d="M 287.3125 285.746094 L 100.425781 285.746094 C 99.769531 285.746094 99.121094 285.683594 98.480469 285.554688 C 97.835938 285.429688 97.210938 285.238281 96.605469 284.988281 C 96 284.738281 95.425781 284.429688 94.878906 284.066406 C 94.335938 283.703125 93.832031 283.289062 93.367188 282.824219 C 92.902344 282.359375 92.488281 281.855469 92.125 281.3125 C 91.761719 280.765625 91.453125 280.191406 91.203125 279.585938 C 90.953125 278.980469 90.761719 278.355469 90.636719 277.710938 C 90.507812 277.070312 90.441406 276.421875 90.441406 275.765625 L 90.441406 79.730469 C 90.441406 79.074219 90.507812 78.425781 90.636719 77.785156 C 90.761719 77.140625 90.953125 76.515625 91.203125 75.910156 C 91.453125 75.304688 91.761719 74.730469 92.125 74.183594 C 92.488281 73.640625 92.902344 73.136719 93.367188 72.671875 C 93.832031 72.207031 94.335938 71.792969 94.878906 71.429688 C 95.425781 71.066406 96 70.757812 96.605469 70.507812 C 97.210938 70.257812 97.835938 70.066406 98.480469 69.941406 C 99.121094 69.8125 99.769531 69.746094 100.425781 69.746094 L 287.3125 69.746094 C 287.96875 69.746094 288.617188 69.8125 289.257812 69.941406 C 289.902344 70.066406 290.527344 70.257812 291.132812 70.507812 C 291.738281 70.757812 292.3125 71.066406 292.859375 71.429688 C 293.402344 71.792969 293.90625 72.207031 294.371094 72.671875 C 294.835938 73.136719 295.25 73.640625 295.613281 74.183594 C 295.976562 74.730469 296.285156 75.304688 296.535156 75.910156 C 296.785156 76.515625 296.976562 77.140625 297.101562 77.785156 C 297.230469 78.425781 297.292969 79.074219 297.292969 79.730469 L 297.292969 275.765625 C 297.292969 276.421875 297.230469 277.070312 297.101562 277.710938 C 296.976562 278.355469 296.785156 278.980469 296.535156 279.585938 C 296.285156 280.191406 295.976562 280.765625 295.613281 281.3125 C 295.25 281.855469 294.835938 282.359375 294.371094 282.824219 C 293.90625 283.289062 293.402344 283.703125 292.859375 284.066406 C 292.3125 284.429688 291.738281 284.738281 291.132812 284.988281 C 290.527344 285.238281 289.902344 285.429688 289.257812 285.554688 C 288.617188 285.683594 287.96875 285.746094 287.3125 285.746094 Z M 100.425781 77.007812 C 100.066406 77.007812 99.71875 77.078125 99.382812 77.214844 C 99.050781 77.355469 98.757812 77.550781 98.5 77.804688 C 98.246094 78.0625 98.050781 78.355469 97.910156 78.6875 C 97.773438 79.023438 97.703125 79.371094 97.703125 79.730469 L 97.703125 275.765625 C 97.703125 276.125 97.773438 276.472656 97.910156 276.804688 C 98.050781 277.140625 98.246094 277.433594 98.5 277.691406 C 98.757812 277.945312 99.050781 278.140625 99.382812 278.28125 C 99.71875 278.417969 100.066406 278.488281 100.425781 278.488281 L 287.3125 278.488281 C 287.671875 278.488281 288.019531 278.417969 288.351562 278.28125 C 288.6875 278.140625 288.980469 277.945312 289.238281 277.691406 C 289.492188 277.433594 289.6875 277.140625 289.828125 276.804688 C 289.964844 276.472656 290.035156 276.125 290.035156 275.765625 L 290.035156 79.730469 C 290.035156 79.371094 289.964844 79.023438 289.828125 78.6875 C 289.6875 78.355469 289.492188 78.0625 289.238281 77.804688 C 288.980469 77.550781 288.6875 77.355469 288.351562 77.214844 C 288.019531 77.078125 287.671875 77.007812 287.3125 77.007812 Z M 100.425781 77.007812 "/></g><g clip-rule="nonzero" clip-path="url(#11b2c6a9c4)"><path style=" stroke:none;fill-rule:nonzero;fill:#f4f1f0;fill-opacity:1;" d="M 293.667969 116.714844 L 94.070312 116.714844 C 93.585938 116.714844 93.125 116.621094 92.679688 116.4375 C 92.234375 116.253906 91.84375 115.992188 91.5 115.652344 C 91.160156 115.3125 90.898438 114.917969 90.714844 114.472656 C 90.53125 114.027344 90.4375 113.566406 90.4375 113.085938 C 90.4375 112.601562 90.53125 112.140625 90.714844 111.695312 C 90.898438 111.25 91.160156 110.859375 91.5 110.515625 C 91.84375 110.175781 92.234375 109.914062 92.679688 109.730469 C 93.125 109.546875 93.585938 109.453125 94.070312 109.453125 L 293.667969 109.453125 C 294.152344 109.453125 294.613281 109.546875 295.058594 109.730469 C 295.503906 109.914062 295.894531 110.175781 296.234375 110.515625 C 296.578125 110.859375 296.839844 111.25 297.023438 111.695312 C 297.207031 112.140625 297.300781 112.601562 297.300781 113.085938 C 297.300781 113.566406 297.207031 114.027344 297.023438 114.472656 C 296.839844 114.917969 296.578125 115.3125 296.234375 115.652344 C 295.894531 115.992188 295.503906 116.253906 295.058594 116.4375 C 294.613281 116.621094 294.152344 116.714844 293.667969 116.714844 Z M 293.667969 116.714844 "/></g><path style=" stroke:none;fill-rule:nonzero;fill:#f4f1f0;fill-opacity:1;" d="M 117.46875 105.464844 C 116.664062 105.464844 115.867188 105.386719 115.078125 105.230469 C 114.289062 105.074219 113.523438 104.839844 112.78125 104.53125 C 112.039062 104.222656 111.332031 103.847656 110.664062 103.398438 C 109.996094 102.953125 109.375 102.445312 108.808594 101.875 C 108.238281 101.308594 107.730469 100.6875 107.28125 100.019531 C 106.835938 99.351562 106.457031 98.644531 106.152344 97.902344 C 105.84375 97.160156 105.609375 96.390625 105.453125 95.601562 C 105.296875 94.8125 105.21875 94.015625 105.21875 93.214844 C 105.21875 92.410156 105.296875 91.613281 105.453125 90.824219 C 105.609375 90.035156 105.84375 89.265625 106.152344 88.523438 C 106.457031 87.78125 106.835938 87.074219 107.28125 86.40625 C 107.730469 85.738281 108.238281 85.117188 108.808594 84.550781 C 109.375 83.980469 109.996094 83.472656 110.664062 83.027344 C 111.332031 82.578125 112.039062 82.203125 112.78125 81.894531 C 113.523438 81.585938 114.289062 81.351562 115.078125 81.195312 C 115.867188 81.039062 116.664062 80.960938 117.46875 80.960938 C 118.273438 80.960938 119.070312 81.039062 119.859375 81.195312 C 120.648438 81.351562 121.414062 81.585938 122.160156 81.894531 C 122.902344 82.203125 123.609375 82.578125 124.277344 83.027344 C 124.945312 83.472656 125.566406 83.980469 126.132812 84.550781 C 126.703125 85.117188 127.210938 85.738281 127.65625 86.40625 C 128.105469 87.074219 128.480469 87.78125 128.789062 88.523438 C 129.097656 89.265625 129.328125 90.035156 129.488281 90.824219 C 129.644531 91.613281 129.722656 92.410156 129.722656 93.214844 C 129.722656 94.015625 129.644531 94.8125 129.488281 95.601562 C 129.328125 96.390625 129.097656 97.160156 128.789062 97.902344 C 128.480469 98.644531 128.105469 99.351562 127.65625 100.019531 C 127.210938 100.6875 126.703125 101.308594 126.132812 101.875 C 125.566406 102.445312 124.945312 102.953125 124.277344 103.398438 C 123.609375 103.847656 122.902344 104.222656 122.160156 104.53125 C 121.414062 104.839844 120.648438 105.074219 119.859375 105.230469 C 119.070312 105.386719 118.273438 105.464844 117.46875 105.464844 Z M 117.46875 88.257812 C 117.140625 88.257812 116.816406 88.289062 116.496094 88.355469 C 116.175781 88.417969 115.863281 88.511719 115.558594 88.636719 C 115.257812 88.761719 114.96875 88.917969 114.695312 89.097656 C 114.425781 89.28125 114.171875 89.488281 113.941406 89.71875 C 113.707031 89.953125 113.503906 90.203125 113.320312 90.476562 C 113.136719 90.75 112.984375 91.035156 112.859375 91.339844 C 112.734375 91.640625 112.636719 91.953125 112.574219 92.277344 C 112.511719 92.597656 112.480469 92.921875 112.480469 93.25 C 112.480469 93.578125 112.511719 93.902344 112.574219 94.222656 C 112.636719 94.542969 112.734375 94.855469 112.859375 95.160156 C 112.984375 95.460938 113.136719 95.75 113.320312 96.023438 C 113.503906 96.296875 113.707031 96.546875 113.941406 96.777344 C 114.171875 97.011719 114.425781 97.21875 114.695312 97.398438 C 114.96875 97.582031 115.257812 97.734375 115.558594 97.859375 C 115.863281 97.984375 116.175781 98.082031 116.496094 98.144531 C 116.816406 98.207031 117.140625 98.242188 117.46875 98.242188 C 117.796875 98.242188 118.121094 98.207031 118.445312 98.144531 C 118.765625 98.082031 119.078125 97.984375 119.378906 97.859375 C 119.683594 97.734375 119.972656 97.582031 120.242188 97.398438 C 120.515625 97.21875 120.769531 97.011719 121 96.777344 C 121.230469 96.546875 121.4375 96.296875 121.621094 96.023438 C 121.800781 95.75 121.957031 95.460938 122.082031 95.160156 C 122.207031 94.855469 122.300781 94.542969 122.367188 94.222656 C 122.429688 93.902344 122.460938 93.578125 122.460938 93.25 C 122.460938 92.921875 122.429688 92.597656 122.367188 92.277344 C 122.300781 91.953125 122.207031 91.640625 122.082031 91.339844 C 121.957031 91.035156 121.800781 90.75 121.621094 90.476562 C 121.4375 90.203125 121.230469 89.953125 121 89.71875 C 120.769531 89.488281 120.515625 89.28125 120.242188 89.097656 C 119.972656 88.917969 119.683594 88.761719 119.378906 88.636719 C 119.078125 88.511719 118.765625 88.417969 118.445312 88.355469 C 118.121094 88.289062 117.796875 88.257812 117.46875 88.257812 Z M 117.46875 88.257812 "/><path style=" stroke:none;fill-rule:nonzero;fill:#f4f1f0;fill-opacity:1;" d="M 146.546875 105.464844 C 145.742188 105.464844 144.949219 105.386719 144.160156 105.230469 C 143.371094 105.074219 142.601562 104.839844 141.859375 104.53125 C 141.117188 104.222656 140.410156 103.847656 139.742188 103.398438 C 139.074219 102.953125 138.453125 102.445312 137.886719 101.875 C 137.316406 101.308594 136.808594 100.6875 136.359375 100.019531 C 135.914062 99.351562 135.535156 98.644531 135.230469 97.902344 C 134.921875 97.160156 134.6875 96.390625 134.53125 95.601562 C 134.375 94.8125 134.296875 94.015625 134.296875 93.214844 C 134.296875 92.410156 134.375 91.613281 134.53125 90.824219 C 134.6875 90.035156 134.921875 89.265625 135.230469 88.523438 C 135.535156 87.78125 135.914062 87.074219 136.359375 86.40625 C 136.808594 85.738281 137.316406 85.117188 137.886719 84.550781 C 138.453125 83.980469 139.074219 83.472656 139.742188 83.027344 C 140.410156 82.578125 141.117188 82.203125 141.859375 81.894531 C 142.601562 81.585938 143.371094 81.351562 144.160156 81.195312 C 144.949219 81.039062 145.742188 80.960938 146.546875 80.960938 C 147.351562 80.960938 148.148438 81.039062 148.9375 81.195312 C 149.726562 81.351562 150.492188 81.585938 151.238281 81.894531 C 151.980469 82.203125 152.6875 82.578125 153.355469 83.027344 C 154.023438 83.472656 154.644531 83.980469 155.210938 84.550781 C 155.78125 85.117188 156.289062 85.738281 156.734375 86.40625 C 157.183594 87.074219 157.558594 87.78125 157.867188 88.523438 C 158.175781 89.265625 158.410156 90.035156 158.566406 90.824219 C 158.722656 91.613281 158.800781 92.410156 158.800781 93.214844 C 158.800781 94.015625 158.722656 94.8125 158.566406 95.601562 C 158.410156 96.390625 158.175781 97.160156 157.867188 97.902344 C 157.558594 98.644531 157.183594 99.351562 156.734375 100.019531 C 156.289062 100.6875 155.78125 101.308594 155.210938 101.875 C 154.644531 102.445312 154.023438 102.953125 153.355469 103.398438 C 152.6875 103.847656 151.980469 104.222656 151.238281 104.53125 C 150.492188 104.839844 149.726562 105.074219 148.9375 105.230469 C 148.148438 105.386719 147.351562 105.464844 146.546875 105.464844 Z M 146.546875 88.257812 C 146.222656 88.257812 145.894531 88.289062 145.574219 88.355469 C 145.253906 88.417969 144.941406 88.511719 144.636719 88.636719 C 144.335938 88.761719 144.046875 88.917969 143.773438 89.097656 C 143.503906 89.28125 143.25 89.488281 143.019531 89.71875 C 142.789062 89.953125 142.582031 90.203125 142.398438 90.476562 C 142.214844 90.75 142.0625 91.035156 141.9375 91.339844 C 141.8125 91.640625 141.71875 91.953125 141.652344 92.277344 C 141.589844 92.597656 141.558594 92.921875 141.558594 93.25 C 141.558594 93.578125 141.589844 93.902344 141.652344 94.222656 C 141.71875 94.542969 141.8125 94.855469 141.9375 95.160156 C 142.0625 95.460938 142.214844 95.75 142.398438 96.023438 C 142.582031 96.296875 142.789062 96.546875 143.019531 96.777344 C 143.25 97.011719 143.503906 97.21875 143.773438 97.398438 C 144.046875 97.582031 144.335938 97.734375 144.636719 97.859375 C 144.941406 97.984375 145.253906 98.082031 145.574219 98.144531 C 145.894531 98.207031 146.222656 98.242188 146.546875 98.242188 C 146.875 98.242188 147.199219 98.207031 147.523438 98.144531 C 147.84375 98.082031 148.15625 97.984375 148.457031 97.859375 C 148.761719 97.734375 149.050781 97.582031 149.320312 97.398438 C 149.59375 97.21875 149.847656 97.011719 150.078125 96.777344 C 150.308594 96.546875 150.515625 96.296875 150.699219 96.023438 C 150.882812 95.75 151.035156 95.460938 151.160156 95.160156 C 151.285156 94.855469 151.378906 94.542969 151.445312 94.222656 C 151.507812 93.902344 151.539062 93.578125 151.539062 93.25 C 151.539062 92.921875 151.507812 92.597656 151.445312 92.277344 C 151.378906 91.953125 151.285156 91.640625 151.160156 91.339844 C 151.035156 91.035156 150.882812 90.75 150.699219 90.476562 C 150.515625 90.203125 150.308594 89.953125 150.078125 89.71875 C 149.847656 89.488281 149.59375 89.28125 149.320312 89.097656 C 149.050781 88.917969 148.761719 88.761719 148.457031 88.636719 C 148.15625 88.511719 147.84375 88.417969 147.523438 88.355469 C 147.199219 88.289062 146.875 88.257812 146.546875 88.257812 Z M 146.546875 88.257812 "/><path style=" stroke:none;fill-rule:nonzero;fill:#f4f1f0;fill-opacity:1;" d="M 175.632812 105.464844 C 174.828125 105.464844 174.03125 105.386719 173.242188 105.230469 C 172.453125 105.074219 171.6875 104.839844 170.941406 104.53125 C 170.199219 104.222656 169.492188 103.847656 168.824219 103.398438 C 168.15625 102.953125 167.535156 102.445312 166.96875 101.875 C 166.398438 101.308594 165.890625 100.6875 165.445312 100.019531 C 164.996094 99.351562 164.621094 98.644531 164.3125 97.902344 C 164.003906 97.160156 163.773438 96.390625 163.613281 95.601562 C 163.457031 94.8125 163.378906 94.015625 163.378906 93.214844 C 163.378906 92.410156 163.457031 91.613281 163.613281 90.824219 C 163.773438 90.035156 164.003906 89.265625 164.3125 88.523438 C 164.621094 87.78125 164.996094 87.074219 165.445312 86.40625 C 165.890625 85.738281 166.398438 85.117188 166.96875 84.550781 C 167.535156 83.980469 168.15625 83.472656 168.824219 83.027344 C 169.492188 82.578125 170.199219 82.203125 170.941406 81.894531 C 171.6875 81.585938 172.453125 81.351562 173.242188 81.195312 C 174.03125 81.039062 174.828125 80.960938 175.632812 80.960938 C 176.4375 80.960938 177.234375 81.039062 178.023438 81.195312 C 178.8125 81.351562 179.578125 81.585938 180.320312 81.894531 C 181.0625 82.203125 181.769531 82.578125 182.4375 83.027344 C 183.105469 83.472656 183.726562 83.980469 184.296875 84.550781 C 184.863281 85.117188 185.371094 85.738281 185.820312 86.40625 C 186.265625 87.074219 186.644531 87.78125 186.949219 88.523438 C 187.257812 89.265625 187.492188 90.035156 187.648438 90.824219 C 187.804688 91.613281 187.882812 92.410156 187.882812 93.214844 C 187.882812 94.015625 187.804688 94.8125 187.648438 95.601562 C 187.492188 96.390625 187.257812 97.160156 186.949219 97.902344 C 186.644531 98.644531 186.265625 99.351562 185.820312 100.019531 C 185.371094 100.6875 184.863281 101.308594 184.296875 101.875 C 183.726562 102.445312 183.105469 102.953125 182.4375 103.398438 C 181.769531 103.847656 181.0625 104.222656 180.320312 104.53125 C 179.578125 104.839844 178.8125 105.074219 178.023438 105.230469 C 177.234375 105.386719 176.4375 105.464844 175.632812 105.464844 Z M 175.632812 88.257812 C 175.304688 88.257812 174.980469 88.289062 174.65625 88.355469 C 174.335938 88.417969 174.023438 88.511719 173.722656 88.636719 C 173.417969 88.761719 173.128906 88.917969 172.859375 89.097656 C 172.585938 89.28125 172.332031 89.488281 172.101562 89.71875 C 171.871094 89.953125 171.664062 90.203125 171.480469 90.476562 C 171.300781 90.75 171.144531 91.035156 171.019531 91.339844 C 170.894531 91.640625 170.800781 91.953125 170.734375 92.277344 C 170.671875 92.597656 170.640625 92.921875 170.640625 93.25 C 170.640625 93.578125 170.671875 93.902344 170.734375 94.222656 C 170.800781 94.542969 170.894531 94.855469 171.019531 95.160156 C 171.144531 95.460938 171.300781 95.75 171.480469 96.023438 C 171.664062 96.296875 171.871094 96.546875 172.101562 96.777344 C 172.332031 97.011719 172.585938 97.21875 172.859375 97.398438 C 173.128906 97.582031 173.417969 97.734375 173.722656 97.859375 C 174.023438 97.984375 174.335938 98.082031 174.65625 98.144531 C 174.980469 98.207031 175.304688 98.242188 175.632812 98.242188 C 175.960938 98.242188 176.285156 98.207031 176.605469 98.144531 C 176.925781 98.082031 177.238281 97.984375 177.542969 97.859375 C 177.84375 97.734375 178.132812 97.582031 178.40625 97.398438 C 178.675781 97.21875 178.929688 97.011719 179.160156 96.777344 C 179.394531 96.546875 179.601562 96.296875 179.78125 96.023438 C 179.964844 95.75 180.117188 95.460938 180.242188 95.160156 C 180.367188 94.855469 180.464844 94.542969 180.527344 94.222656 C 180.589844 93.902344 180.621094 93.578125 180.621094 93.25 C 180.621094 92.921875 180.589844 92.597656 180.527344 92.277344 C 180.464844 91.953125 180.367188 91.640625 180.242188 91.339844 C 180.117188 91.035156 179.964844 90.75 179.78125 90.476562 C 179.601562 90.203125 179.394531 89.953125 179.160156 89.71875 C 178.929688 89.488281 178.675781 89.28125 178.40625 89.097656 C 178.132812 88.917969 177.84375 88.761719 177.542969 88.636719 C 177.238281 88.511719 176.925781 88.417969 176.605469 88.355469 C 176.285156 88.289062 175.960938 88.257812 175.632812 88.257812 Z M 175.632812 88.257812 "/><path style=" stroke:none;fill-rule:nonzero;fill:#f4f1f0;fill-opacity:1;" d="M 278.871094 105.464844 L 198.496094 105.464844 C 198.015625 105.464844 197.554688 105.371094 197.109375 105.1875 C 196.664062 105.003906 196.269531 104.742188 195.929688 104.402344 C 195.589844 104.0625 195.328125 103.667969 195.144531 103.222656 C 194.960938 102.777344 194.867188 102.316406 194.867188 101.835938 L 194.867188 84.628906 C 194.867188 84.144531 194.960938 83.683594 195.144531 83.238281 C 195.328125 82.792969 195.589844 82.402344 195.929688 82.058594 C 196.269531 81.71875 196.664062 81.457031 197.109375 81.273438 C 197.554688 81.089844 198.015625 80.996094 198.496094 80.996094 L 278.871094 80.996094 C 279.351562 80.996094 279.816406 81.089844 280.261719 81.273438 C 280.707031 81.457031 281.097656 81.71875 281.4375 82.058594 C 281.777344 82.402344 282.039062 82.792969 282.226562 83.238281 C 282.410156 83.683594 282.5 84.144531 282.5 84.628906 L 282.5 101.835938 C 282.5 102.316406 282.410156 102.777344 282.226562 103.222656 C 282.039062 103.667969 281.777344 104.0625 281.4375 104.402344 C 281.097656 104.742188 280.707031 105.003906 280.261719 105.1875 C 279.816406 105.371094 279.351562 105.464844 278.871094 105.464844 Z M 202.128906 98.203125 L 275.242188 98.203125 L 275.242188 88.257812 L 202.128906 88.257812 Z M 202.128906 98.203125 "/><path style=" stroke:none;fill-rule:nonzero;fill:#f4f1f0;fill-opacity:1;" d="M 188.9375 229.09375 C 188.558594 229.09375 188.191406 229.035156 187.828125 228.917969 C 187.46875 228.804688 187.136719 228.636719 186.828125 228.417969 C 186.519531 228.199219 186.253906 227.9375 186.027344 227.632812 C 185.804688 227.332031 185.628906 227 185.503906 226.644531 L 169.820312 180.925781 L 154.195312 226.632812 C 154.042969 227.097656 153.808594 227.511719 153.492188 227.878906 C 153.175781 228.246094 152.800781 228.539062 152.367188 228.757812 C 151.929688 228.972656 151.472656 229.097656 150.988281 229.132812 C 150.503906 229.164062 150.03125 229.101562 149.570312 228.945312 C 149.109375 228.789062 148.699219 228.546875 148.335938 228.226562 C 147.972656 227.902344 147.683594 227.523438 147.472656 227.085938 C 147.261719 226.648438 147.144531 226.1875 147.117188 225.703125 C 147.09375 225.214844 147.160156 224.746094 147.324219 224.289062 L 166.355469 168.566406 C 166.480469 168.210938 166.652344 167.878906 166.878906 167.574219 C 167.105469 167.273438 167.371094 167.007812 167.679688 166.789062 C 167.988281 166.570312 168.324219 166.402344 168.683594 166.285156 C 169.042969 166.171875 169.414062 166.113281 169.792969 166.113281 C 170.167969 166.113281 170.539062 166.171875 170.898438 166.285156 C 171.257812 166.402344 171.59375 166.566406 171.902344 166.789062 C 172.210938 167.007812 172.476562 167.269531 172.703125 167.570312 C 172.929688 167.875 173.101562 168.207031 173.226562 168.5625 L 192.371094 224.28125 C 192.527344 224.738281 192.589844 225.207031 192.558594 225.6875 C 192.527344 226.167969 192.40625 226.625 192.191406 227.058594 C 191.980469 227.492188 191.691406 227.867188 191.332031 228.183594 C 190.96875 228.503906 190.558594 228.738281 190.101562 228.894531 C 189.726562 229.027344 189.335938 229.09375 188.9375 229.09375 Z M 188.9375 229.09375 "/><path style=" stroke:none;fill-rule:nonzero;fill:#f4f1f0;fill-opacity:1;" d="M 183.046875 211.863281 L 156.660156 211.863281 C 156.175781 211.863281 155.714844 211.769531 155.269531 211.585938 C 154.824219 211.402344 154.433594 211.140625 154.09375 210.800781 C 153.75 210.460938 153.488281 210.066406 153.304688 209.621094 C 153.121094 209.175781 153.027344 208.714844 153.027344 208.234375 C 153.027344 207.75 153.121094 207.289062 153.304688 206.84375 C 153.488281 206.398438 153.75 206.007812 154.09375 205.664062 C 154.433594 205.324219 154.824219 205.0625 155.269531 204.878906 C 155.714844 204.695312 156.175781 204.601562 156.660156 204.601562 L 183.054688 204.601562 C 183.535156 204.601562 184 204.695312 184.445312 204.878906 C 184.890625 205.0625 185.28125 205.324219 185.621094 205.664062 C 185.960938 206.007812 186.226562 206.398438 186.410156 206.84375 C 186.59375 207.289062 186.683594 207.75 186.6875 208.234375 C 186.683594 208.714844 186.59375 209.175781 186.410156 209.621094 C 186.226562 210.066406 185.960938 210.460938 185.621094 210.800781 C 185.28125 211.140625 184.890625 211.402344 184.445312 211.585938 C 184 211.769531 183.535156 211.863281 183.054688 211.863281 Z M 183.046875 211.863281 "/><path style=" stroke:none;fill-rule:nonzero;fill:#f4f1f0;fill-opacity:1;" d="M 217.226562 229.09375 L 198.355469 229.09375 C 197.875 229.09375 197.414062 229 196.96875 228.816406 C 196.523438 228.632812 196.128906 228.371094 195.789062 228.03125 C 195.449219 227.691406 195.1875 227.296875 195.003906 226.851562 C 194.820312 226.40625 194.726562 225.945312 194.726562 225.464844 L 194.726562 169.742188 C 194.726562 169.261719 194.820312 168.796875 195.003906 168.355469 C 195.1875 167.910156 195.449219 167.515625 195.789062 167.175781 C 196.128906 166.835938 196.523438 166.574219 196.96875 166.390625 C 197.414062 166.203125 197.875 166.113281 198.355469 166.113281 L 217.226562 166.113281 C 224.53125 166.113281 230.882812 169.808594 235.113281 176.511719 C 238.65625 182.136719 240.609375 189.628906 240.609375 197.601562 C 240.609375 205.574219 238.65625 213.066406 235.113281 218.691406 C 230.882812 225.394531 224.53125 229.09375 217.226562 229.09375 Z M 201.988281 221.832031 L 217.226562 221.832031 C 222.085938 221.832031 226.039062 219.472656 228.96875 214.820312 C 231.75 210.402344 233.347656 204.125 233.347656 197.601562 C 233.347656 185.933594 228.300781 173.375 217.226562 173.375 L 201.988281 173.375 Z M 201.988281 221.832031 "/><path style=" stroke:none;fill-rule:nonzero;fill:#f4f1f0;fill-opacity:1;" d="M 193.867188 270.773438 C 153.515625 270.773438 120.6875 237.945312 120.6875 197.589844 C 120.6875 157.238281 153.515625 124.417969 193.867188 124.417969 C 234.222656 124.417969 267.050781 157.25 267.050781 197.601562 C 267.050781 237.949219 234.222656 270.773438 193.867188 270.773438 Z M 193.867188 131.671875 C 157.519531 131.671875 127.949219 161.242188 127.949219 197.589844 C 127.949219 233.941406 157.519531 263.511719 193.867188 263.511719 C 230.21875 263.511719 259.789062 233.941406 259.789062 197.589844 C 259.789062 161.242188 230.21875 131.679688 193.867188 131.679688 Z M 193.867188 131.671875 "/><path style=" stroke:none;fill-rule:nonzero;fill:#f4f1f0;fill-opacity:1;" d="M 144.6875 250.410156 C 144.328125 250.410156 143.980469 250.355469 143.636719 250.25 C 143.292969 250.144531 142.972656 249.992188 142.675781 249.792969 C 142.378906 249.59375 142.117188 249.355469 141.890625 249.078125 C 141.664062 248.800781 141.484375 248.496094 141.347656 248.164062 C 141.210938 247.832031 141.125 247.488281 141.089844 247.128906 C 141.054688 246.773438 141.074219 246.417969 141.144531 246.066406 C 141.214844 245.714844 141.335938 245.382812 141.503906 245.066406 C 141.671875 244.75 141.882812 244.464844 142.136719 244.214844 L 240.480469 145.855469 C 240.828125 145.558594 241.21875 145.335938 241.648438 145.183594 C 242.082031 145.035156 242.527344 144.96875 242.984375 144.984375 C 243.441406 145.003906 243.878906 145.105469 244.296875 145.285156 C 244.714844 145.46875 245.085938 145.722656 245.410156 146.046875 C 245.734375 146.371094 245.984375 146.742188 246.167969 147.160156 C 246.351562 147.578125 246.453125 148.015625 246.46875 148.472656 C 246.488281 148.929688 246.421875 149.375 246.269531 149.804688 C 246.121094 150.238281 245.898438 150.628906 245.601562 150.976562 L 147.257812 249.351562 C 146.546875 250.058594 145.691406 250.414062 144.6875 250.410156 Z M 144.6875 250.410156 "/></g></svg>