<svg xmlns="http://www.w3.org/2000/svg" xmlns:xlink="http://www.w3.org/1999/xlink" width="500" zoomAndPan="magnify" viewBox="0 0 375 374.999991" height="500" preserveAspectRatio="xMidYMid meet" version="1.2"><defs><clipPath id="972661e332"><path d="M 98 71.09375 L 288 71.09375 L 288 284 L 98 284 Z M 98 71.09375 "/></clipPath></defs><g id="cbc3406ff7"><path style=" stroke:none;fill-rule:nonzero;fill:#17a2b8;fill-opacity:1;" d="M 351.777344 240.496094 C 342.617188 277.382812 320.929688 302.949219 286.710938 317.199219 C 252.492188 331.445312 218.976562 337.867188 186.15625 336.46875 C 153.339844 335.070312 125.863281 323.367188 103.730469 301.363281 C 81.59375 279.355469 62.449219 254.488281 46.296875 226.757812 C 30.140625 199.027344 27.472656 169.324219 38.28125 137.652344 C 49.09375 105.976562 66.96875 77.164062 91.898438 51.214844 C 116.832031 25.265625 147.171875 14.964844 182.914062 20.304688 C 218.65625 25.648438 253.382812 36.015625 287.09375 51.40625 C 320.800781 66.796875 342.300781 92.9375 351.585938 129.828125 C 360.871094 166.714844 360.933594 203.605469 351.777344 240.496094 Z M 351.777344 240.496094 "/><path style=" stroke:none;fill-rule:nonzero;fill:#fbc114;fill-opacity:1;" d="M 369.769531 159.710938 C 357.355469 88.757812 304.996094 28.1875 238.570312 10.949219 C 208.757812 2.953125 178.078125 7.289062 147.886719 12.058594 C 132.683594 18.105469 117.941406 25.476562 103.007812 32.195312 C 30.996094 76.453125 0.722656 179.710938 38.339844 259.011719 C 69.210938 318.851562 130.488281 364.300781 196.589844 357.390625 C 213.066406 359.125 226.238281 358.773438 241.578125 351.210938 C 261.714844 346.117188 282.472656 335.492188 300.660156 323.082031 C 336.40625 297.226562 364.105469 249.011719 369.308594 203.832031 C 369.90625 193.398438 370.175781 190.769531 368.929688 182.828125 C 368.984375 178.710938 370.203125 166.40625 369.769531 159.710938 Z M 367.382812 198.925781 C 364.675781 221.800781 358.628906 247.195312 344.644531 267.167969 C 330.632812 288.851562 316.132812 312.105469 293.371094 324.082031 C 237.621094 361.539062 163.929688 367.472656 106.097656 331.535156 C 29.667969 282.292969 0.15625 181.285156 46.308594 97.808594 C 70.1875 56.535156 94.605469 35.9375 137.183594 19.511719 C 190.679688 -0.0273438 254.425781 5.960938 299.085938 45.097656 C 335.484375 72.199219 358.984375 114.777344 367.628906 160.578125 C 367.355469 173.371094 367.519531 186.242188 367.382812 198.925781 Z M 367.382812 198.925781 "/><path style=" stroke:none;fill-rule:nonzero;fill:#fbc114;fill-opacity:1;" d="M 355.054688 187.328125 C 354.621094 126.132812 320.984375 60.707031 260.574219 36.914062 C 250.980469 33.0625 241.007812 30.652344 230.765625 27.265625 C 226.808594 25.535156 222.707031 24.289062 218.453125 23.527344 C 214.203125 22.765625 209.925781 22.511719 205.613281 22.765625 C 168.429688 22.765625 133.496094 25.175781 103.386719 50.410156 C 31.753906 96.5625 9.371094 204.023438 60.320312 272.34375 C 89.484375 320.34375 136.042969 340.613281 191.195312 345.277344 C 213.148438 345.003906 234.722656 338.472656 255.019531 330.992188 C 255.210938 330.992188 255.589844 330.832031 255.507812 330.992188 C 254.207031 332.132812 259.03125 330.074219 261.6875 328.878906 C 271.851562 323.460938 285.023438 318.609375 293.207031 311.019531 C 328.738281 281.886719 356.949219 233.101562 355.054688 187.328125 Z M 352.34375 196.8125 C 349.46875 240.609375 323.425781 282.046875 289.546875 310.125 C 235.5625 345.359375 168.972656 352.703125 111.976562 319.71875 C 0.589844 252.804688 14.789062 86.101562 134.28125 35.664062 C 150.082031 29.214844 166.804688 24.609375 184.121094 25.746094 C 208.160156 23.035156 228.625 27.859375 250.710938 35.71875 C 317.921875 57.644531 356.597656 131.171875 352.476562 196.8125 Z M 352.34375 196.8125 "/><g clip-rule="nonzero" clip-path="url(#972661e332)"><path style=" stroke:none;fill-rule:nonzero;fill:#f4f1f0;fill-opacity:1;" d="M 179.554688 71.023438 C 177.066406 71.074219 175.074219 73.121094 175.109375 75.609375 L 175.109375 102.710938 C 175.09375 104.335938 175.9375 105.851562 177.351562 106.683594 C 178.761719 107.492188 180.492188 107.492188 181.902344 106.683594 C 183.3125 105.851562 184.160156 104.335938 184.144531 102.710938 L 184.144531 75.609375 C 184.160156 74.394531 183.683594 73.210938 182.820312 72.347656 C 181.957031 71.480469 180.773438 71.003906 179.554688 71.023438 Z M 138.921875 84.609375 C 137.085938 84.609375 135.445312 85.71875 134.738281 87.414062 C 134.050781 89.125 134.457031 91.066406 135.78125 92.355469 L 153.847656 110.421875 C 154.976562 111.605469 156.671875 112.082031 158.242188 111.65625 C 159.828125 111.25 161.066406 110.015625 161.472656 108.429688 C 161.894531 106.859375 161.417969 105.164062 160.234375 104.035156 L 142.167969 85.96875 C 141.320312 85.085938 140.15625 84.609375 138.921875 84.609375 Z M 220.191406 84.609375 C 219.007812 84.625 217.898438 85.121094 217.085938 85.96875 L 199.019531 104.035156 C 197.835938 105.164062 197.359375 106.859375 197.78125 108.429688 C 198.1875 110.015625 199.421875 111.25 201.011719 111.65625 C 202.582031 112.082031 204.277344 111.605469 205.40625 110.421875 L 223.472656 92.355469 C 224.8125 91.050781 225.203125 89.074219 224.480469 87.363281 C 223.753906 85.632812 222.0625 84.539062 220.191406 84.609375 Z M 266.226562 89.195312 C 261.796875 89.195312 257.351562 90.871094 253.996094 94.226562 L 171.617188 176.605469 C 170.257812 174.117188 169.585938 172.796875 167.0625 168.472656 C 162.863281 161.328125 158.1875 153.582031 153.9375 149.3125 C 147.410156 142.78125 138.375 138.265625 129.90625 135.953125 C 125.6875 134.808594 121.59375 134.207031 117.855469 134.347656 C 114.113281 134.488281 110.496094 135.285156 107.742188 138.019531 L 99.644531 146.117188 C 97.878906 147.882812 97.878906 150.757812 99.644531 152.523438 L 124.433594 177.3125 L 143.71875 235.132812 C 143.949219 235.804688 144.320312 236.402344 144.816406 236.898438 L 180.28125 272.363281 C 194.855469 286.9375 218.601562 286.9375 233.175781 272.363281 L 240.992188 264.546875 L 239.125 264.546875 C 240.324219 264.546875 241.46875 264.070312 242.316406 263.222656 L 282.96875 222.570312 C 289.675781 215.847656 289.675781 204.835938 282.96875 198.113281 C 280.269531 195.414062 276.847656 194.109375 273.335938 193.582031 C 275.488281 187.476562 274.269531 180.382812 269.417969 175.53125 C 266.71875 172.832031 263.296875 171.523438 259.785156 170.996094 C 261.9375 164.890625 260.71875 157.796875 255.867188 152.945312 C 253.714844 150.792969 251.070312 149.59375 248.316406 148.816406 L 278.453125 118.679688 C 285.175781 111.957031 285.175781 100.949219 278.453125 94.226562 C 275.101562 90.871094 270.652344 89.195312 266.226562 89.195312 Z M 266.226562 98.160156 C 268.324219 98.160156 270.425781 98.972656 272.066406 100.613281 C 275.328125 103.875 275.328125 109.027344 272.066406 112.292969 L 231.414062 152.945312 C 229.703125 154.726562 229.738281 157.53125 231.484375 159.261719 C 233.210938 161.007812 236.019531 161.042969 237.800781 159.332031 C 241.0625 156.070312 246.214844 156.070312 249.480469 159.332031 C 252.746094 162.597656 252.746094 167.75 249.480469 171.011719 L 244.964844 175.53125 C 243.253906 177.3125 243.289062 180.117188 245.035156 181.847656 C 246.761719 183.59375 249.570312 183.628906 251.351562 181.917969 C 254.613281 178.652344 259.765625 178.652344 263.03125 181.917969 C 266.296875 185.179688 266.296875 190.332031 263.03125 193.597656 L 258.515625 198.113281 C 256.804688 199.898438 256.839844 202.703125 258.585938 204.429688 C 260.3125 206.179688 263.121094 206.214844 264.902344 204.503906 C 268.167969 201.238281 273.316406 201.238281 276.582031 204.503906 C 279.847656 207.765625 279.847656 212.917969 276.582031 216.199219 L 235.929688 256.835938 L 226.789062 265.976562 C 215.675781 277.089844 197.78125 277.089844 186.667969 265.976562 L 151.960938 231.25 L 132.675781 173.429688 C 132.445312 172.777344 132.074219 172.175781 131.582031 171.667969 L 109.226562 149.3125 L 114.132812 144.40625 C 114.34375 144.195312 115.738281 143.46875 118.207031 143.382812 C 120.675781 143.292969 123.996094 143.71875 127.539062 144.6875 C 134.617188 146.609375 142.554688 150.703125 147.566406 155.714844 C 149.929688 158.097656 155.1875 166.074219 159.265625 173.023438 C 163.339844 179.996094 166.605469 186.132812 166.605469 186.132812 C 167.277344 187.40625 168.511719 188.269531 169.921875 188.480469 C 171.332031 188.691406 172.78125 188.214844 173.785156 187.210938 L 260.386719 100.613281 C 262.027344 98.972656 264.125 98.160156 266.226562 98.160156 Z M 266.226562 98.160156 "/></g></g></svg>