<svg xmlns="http://www.w3.org/2000/svg" xmlns:xlink="http://www.w3.org/1999/xlink" width="500" zoomAndPan="magnify" viewBox="0 0 375 374.999991" height="500" preserveAspectRatio="xMidYMid meet" version="1.2"><defs><clipPath id="1e13746700"><path d="M 106 75.648438 L 301.890625 75.648438 L 301.890625 272 L 106 272 Z M 106 75.648438 "/></clipPath><clipPath id="6627f6dc65"><path d="M 168 265 L 195 265 L 195 291.648438 L 168 291.648438 Z M 168 265 "/></clipPath></defs><g id="a75b0f55dd"><path style=" stroke:none;fill-rule:nonzero;fill:#17a2b8;fill-opacity:1;" d="M 351.777344 240.496094 C 342.617188 277.382812 320.929688 302.949219 286.710938 317.199219 C 252.492188 331.445312 218.976562 337.867188 186.15625 336.46875 C 153.339844 335.070312 125.863281 323.367188 103.730469 301.363281 C 81.59375 279.355469 62.449219 254.488281 46.296875 226.757812 C 30.140625 199.027344 27.472656 169.324219 38.28125 137.652344 C 49.09375 105.976562 66.96875 77.164062 91.898438 51.214844 C 116.832031 25.265625 147.171875 14.964844 182.914062 20.304688 C 218.65625 25.648438 253.382812 36.015625 287.09375 51.40625 C 320.800781 66.796875 342.300781 92.9375 351.585938 129.828125 C 360.871094 166.714844 360.933594 203.605469 351.777344 240.496094 Z M 351.777344 240.496094 "/><path style=" stroke:none;fill-rule:nonzero;fill:#fbc114;fill-opacity:1;" d="M 369.769531 159.710938 C 357.355469 88.757812 304.996094 28.1875 238.570312 10.949219 C 208.757812 2.953125 178.078125 7.289062 147.886719 12.058594 C 132.683594 18.105469 117.941406 25.476562 103.007812 32.195312 C 30.996094 76.453125 0.722656 179.710938 38.339844 259.011719 C 69.210938 318.851562 130.488281 364.300781 196.589844 357.390625 C 213.066406 359.125 226.238281 358.773438 241.578125 351.210938 C 261.714844 346.117188 282.472656 335.492188 300.660156 323.082031 C 336.40625 297.226562 364.105469 249.011719 369.308594 203.832031 C 369.90625 193.398438 370.175781 190.769531 368.929688 182.828125 C 368.984375 178.710938 370.203125 166.40625 369.769531 159.710938 Z M 367.382812 198.925781 C 364.675781 221.800781 358.628906 247.195312 344.644531 267.167969 C 330.632812 288.851562 316.132812 312.105469 293.371094 324.082031 C 237.621094 361.539062 163.929688 367.472656 106.097656 331.535156 C 29.667969 282.292969 0.15625 181.285156 46.308594 97.808594 C 70.1875 56.535156 94.605469 35.9375 137.183594 19.511719 C 190.679688 -0.0273438 254.425781 5.960938 299.085938 45.097656 C 335.484375 72.199219 358.984375 114.777344 367.628906 160.578125 C 367.355469 173.371094 367.519531 186.242188 367.382812 198.925781 Z M 367.382812 198.925781 "/><path style=" stroke:none;fill-rule:nonzero;fill:#fbc114;fill-opacity:1;" d="M 355.054688 187.328125 C 354.621094 126.132812 320.984375 60.707031 260.574219 36.914062 C 250.980469 33.0625 241.007812 30.652344 230.765625 27.265625 C 226.808594 25.535156 222.707031 24.289062 218.453125 23.527344 C 214.203125 22.765625 209.925781 22.511719 205.613281 22.765625 C 168.429688 22.765625 133.496094 25.175781 103.386719 50.410156 C 31.753906 96.5625 9.371094 204.023438 60.320312 272.34375 C 89.484375 320.34375 136.042969 340.613281 191.195312 345.277344 C 213.148438 345.003906 234.722656 338.472656 255.019531 330.992188 C 255.210938 330.992188 255.589844 330.832031 255.507812 330.992188 C 254.207031 332.132812 259.03125 330.074219 261.6875 328.878906 C 271.851562 323.460938 285.023438 318.609375 293.207031 311.019531 C 328.738281 281.886719 356.949219 233.101562 355.054688 187.328125 Z M 352.34375 196.8125 C 349.46875 240.609375 323.425781 282.046875 289.546875 310.125 C 235.5625 345.359375 168.972656 352.703125 111.976562 319.71875 C 0.589844 252.804688 14.789062 86.101562 134.28125 35.664062 C 150.082031 29.214844 166.804688 24.609375 184.121094 25.746094 C 208.160156 23.035156 228.625 27.859375 250.710938 35.71875 C 317.921875 57.644531 356.597656 131.171875 352.476562 196.8125 Z M 352.34375 196.8125 "/><g clip-rule="nonzero" clip-path="url(#1e13746700)"><path style=" stroke:none;fill-rule:nonzero;fill:#f4f1f0;fill-opacity:1;" d="M 297.664062 75.769531 C 284.832031 75.769531 269.90625 78.554688 254.296875 83.78125 C 254.285156 83.785156 254.277344 83.78125 254.265625 83.785156 C 254.257812 83.789062 254.253906 83.792969 254.246094 83.796875 C 252.980469 84.21875 251.714844 84.628906 250.441406 85.085938 C 250.320312 85.132812 250.191406 85.183594 250.066406 85.246094 C 246.914062 86.382812 243.816406 87.613281 240.765625 88.898438 C 240.75 88.902344 240.734375 88.917969 240.714844 88.921875 C 221.796875 96.890625 204.992188 107.507812 193.660156 118.835938 L 171.589844 140.910156 L 153.171875 140.910156 C 144.308594 140.910156 135.976562 144.363281 129.703125 150.632812 L 107.59375 172.742188 C 106.394531 173.941406 106.046875 175.746094 106.714844 177.304688 C 107.363281 178.832031 108.871094 179.820312 110.523438 179.820312 C 110.558594 179.820312 110.589844 179.820312 110.625 179.820312 L 145.847656 178.96875 C 144.160156 188.203125 145.179688 197.796875 149.128906 206.429688 C 137.140625 218.742188 127.921875 234.976562 135.433594 242.488281 C 137.316406 244.375 139.75 245.203125 142.535156 245.203125 C 150.859375 245.203125 162.296875 237.746094 171.527344 228.746094 C 177.5 231.46875 183.90625 232.882812 190.363281 232.882812 C 193.238281 232.882812 196.109375 232.585938 198.957031 232.070312 L 198.105469 267.300781 C 198.0625 268.996094 199.058594 270.542969 200.617188 271.210938 C 201.144531 271.433594 201.699219 271.546875 202.25 271.546875 C 203.328125 271.546875 204.390625 271.125 205.183594 270.332031 L 227.292969 248.222656 C 233.5625 241.949219 237.015625 233.617188 237.015625 224.75 L 237.015625 206.324219 L 258.921875 184.390625 C 270.332031 173.015625 280.980469 156.105469 288.941406 137.050781 C 288.941406 137.046875 288.945312 137.046875 288.945312 137.042969 C 290.277344 133.859375 291.550781 130.632812 292.71875 127.34375 C 293.152344 126.121094 293.542969 124.910156 293.949219 123.695312 C 293.964844 123.664062 293.992188 123.632812 294.007812 123.601562 C 294.027344 123.550781 294.015625 123.496094 294.035156 123.441406 C 299.253906 107.773438 301.992188 92.785156 301.925781 79.894531 C 301.90625 77.609375 299.945312 75.769531 297.664062 75.769531 Z M 148.160156 170.621094 L 120.78125 171.277344 L 135.5625 156.496094 C 140.265625 151.792969 146.519531 149.203125 153.167969 149.203125 L 163.292969 149.203125 L 159.421875 153.074219 C 154.328125 158.171875 150.570312 164.195312 148.160156 170.621094 Z M 163.808594 194.332031 C 161.09375 196.0625 158.339844 198.089844 155.605469 200.402344 C 153.042969 193.425781 152.671875 185.835938 154.363281 178.578125 C 156.808594 184.535156 160.601562 190.171875 163.808594 194.332031 Z M 166.527344 222.0625 C 153.46875 235.125 142.671875 237.996094 141.292969 236.625 C 139.925781 235.253906 142.804688 224.449219 155.863281 211.394531 C 161.628906 205.625 167.808594 201.046875 173.25 198.496094 C 176.460938 196.996094 178.65625 196.589844 179.902344 196.589844 C 180.570312 196.589844 180.960938 196.703125 181.089844 196.832031 C 181.457031 197.199219 181.738281 199.734375 179.429688 204.671875 C 176.875 210.121094 172.289062 216.292969 166.527344 222.0625 Z M 177.515625 222.3125 C 179.835938 219.578125 181.871094 216.8125 183.597656 214.09375 C 187.832031 217.339844 193.507812 221.097656 199.515625 223.515625 C 192.214844 225.25 184.550781 224.886719 177.515625 222.3125 Z M 228.71875 224.746094 C 228.71875 231.398438 226.128906 237.648438 221.425781 242.355469 L 206.644531 257.140625 L 207.308594 229.734375 C 213.738281 227.328125 219.773438 223.578125 224.871094 218.480469 L 228.722656 214.625 L 228.722656 224.746094 Z M 253.054688 178.523438 L 219.003906 212.613281 C 217.503906 214.113281 215.902344 215.46875 214.234375 216.695312 C 214.226562 216.699219 214.210938 216.699219 214.203125 216.707031 C 209.253906 219.570312 198.753906 215.503906 187.570312 206.644531 C 191.171875 197.976562 189.3125 193.324219 186.949219 190.96875 C 184.59375 188.605469 179.941406 186.734375 171.261719 190.355469 C 162.898438 179.839844 158.710938 169.730469 160.679688 164.453125 C 162.039062 162.515625 163.566406 160.65625 165.285156 158.9375 L 176.230469 147.992188 C 176.234375 147.988281 176.234375 147.988281 176.238281 147.984375 L 199.523438 124.699219 C 209.0625 115.160156 222.867188 106.121094 238.605469 98.902344 C 240.269531 107.035156 245.5625 116.070312 253.671875 124.171875 C 261.78125 132.269531 270.824219 137.542969 278.949219 139.195312 C 271.734375 155.050781 262.664062 168.941406 253.054688 178.523438 Z M 282.296875 131.378906 C 275.550781 130.597656 266.957031 125.714844 259.535156 118.304688 C 252.109375 110.894531 247.210938 102.273438 246.421875 95.546875 C 248.4375 94.734375 250.46875 93.941406 252.523438 93.195312 C 252.519531 93.253906 252.535156 93.308594 252.53125 93.359375 C 252.328125 97.542969 255.800781 105.742188 263.933594 113.875 C 272.113281 122.054688 280.351562 125.5 284.550781 125.273438 C 284.574219 125.273438 284.605469 125.277344 284.628906 125.277344 C 283.886719 127.332031 283.105469 129.363281 282.296875 131.378906 Z M 287.285156 117.148438 C 286.222656 117.019531 285.152344 116.929688 284.074219 116.992188 C 282.707031 117.167969 276.71875 114.925781 269.773438 107.984375 C 262.90625 101.117188 260.808594 95.148438 260.816406 93.8125 C 260.882812 92.703125 260.800781 91.597656 260.664062 90.5 C 272.292969 86.902344 283.636719 84.660156 293.542969 84.167969 C 293.089844 94.070312 290.875 105.460938 287.285156 117.148438 Z M 287.285156 117.148438 "/></g><path style=" stroke:none;fill-rule:nonzero;fill:#f4f1f0;fill-opacity:1;" d="M 222.070312 128.179688 C 214.550781 128.179688 207.488281 131.105469 202.175781 136.414062 C 196.863281 141.726562 193.9375 148.792969 193.9375 156.308594 C 193.9375 163.824219 196.863281 170.886719 202.175781 176.199219 C 207.488281 181.515625 214.550781 184.4375 222.070312 184.4375 C 229.585938 184.4375 236.648438 181.511719 241.960938 176.199219 C 247.277344 170.882812 250.199219 163.824219 250.199219 156.308594 C 250.199219 148.792969 247.277344 141.726562 241.960938 136.414062 C 236.648438 131.105469 229.585938 128.179688 222.070312 128.179688 Z M 236.097656 170.339844 C 232.355469 174.089844 227.371094 176.148438 222.070312 176.148438 C 216.765625 176.148438 211.785156 174.085938 208.039062 170.339844 C 204.292969 166.59375 202.230469 161.613281 202.230469 156.3125 C 202.230469 151.011719 204.292969 146.03125 208.039062 142.28125 C 211.78125 138.535156 216.765625 136.472656 222.070312 136.472656 C 227.371094 136.472656 232.351562 138.539062 236.097656 142.28125 C 239.847656 146.03125 241.90625 151.007812 241.90625 156.3125 C 241.90625 161.609375 239.847656 166.59375 236.097656 170.339844 Z M 236.097656 170.339844 "/><path style=" stroke:none;fill-rule:nonzero;fill:#f4f1f0;fill-opacity:1;" d="M 93.347656 208.171875 L 110.675781 190.84375 C 112.296875 189.222656 112.296875 186.601562 110.675781 184.980469 C 109.054688 183.359375 106.4375 183.359375 104.816406 184.980469 L 87.484375 202.308594 C 85.863281 203.929688 85.863281 206.550781 87.484375 208.171875 C 88.292969 208.980469 89.355469 209.386719 90.417969 209.386719 C 91.476562 209.386719 92.539062 208.980469 93.347656 208.171875 Z M 93.347656 208.171875 "/><path style=" stroke:none;fill-rule:nonzero;fill:#f4f1f0;fill-opacity:1;" d="M 131.949219 245.855469 C 130.328125 244.234375 127.707031 244.234375 126.085938 245.855469 L 99.269531 272.667969 C 97.648438 274.289062 97.648438 276.910156 99.269531 278.53125 C 100.078125 279.339844 101.136719 279.746094 102.199219 279.746094 C 103.261719 279.746094 104.320312 279.339844 105.128906 278.53125 L 131.949219 251.714844 C 133.566406 250.101562 133.566406 247.476562 131.949219 245.855469 Z M 131.949219 245.855469 "/><path style=" stroke:none;fill-rule:nonzero;fill:#f4f1f0;fill-opacity:1;" d="M 119.824219 215.152344 C 118.203125 213.53125 115.582031 213.53125 113.960938 215.152344 L 91.261719 237.851562 C 89.640625 239.472656 89.640625 242.09375 91.261719 243.714844 C 92.070312 244.523438 93.132812 244.929688 94.191406 244.929688 C 95.253906 244.929688 96.316406 244.523438 97.125 243.714844 L 119.824219 221.015625 C 121.445312 219.398438 121.445312 216.773438 119.824219 215.152344 Z M 119.824219 215.152344 "/><g clip-rule="nonzero" clip-path="url(#6627f6dc65)"><path style=" stroke:none;fill-rule:nonzero;fill:#f4f1f0;fill-opacity:1;" d="M 186.960938 267.125 L 169.632812 284.457031 C 168.011719 286.078125 168.011719 288.699219 169.632812 290.320312 C 170.441406 291.128906 171.5 291.535156 172.5625 291.535156 C 173.625 291.535156 174.683594 291.128906 175.492188 290.320312 L 192.824219 272.988281 C 194.445312 271.367188 194.445312 268.746094 192.824219 267.125 C 191.203125 265.503906 188.582031 265.503906 186.960938 267.125 Z M 186.960938 267.125 "/></g><path style=" stroke:none;fill-rule:nonzero;fill:#f4f1f0;fill-opacity:1;" d="M 156.789062 257.980469 L 134.089844 280.679688 C 132.46875 282.300781 132.46875 284.921875 134.089844 286.542969 C 134.898438 287.351562 135.957031 287.757812 137.019531 287.757812 C 138.082031 287.757812 139.144531 287.351562 139.953125 286.542969 L 162.648438 263.84375 C 164.269531 262.222656 164.269531 259.601562 162.648438 257.980469 C 161.027344 256.359375 158.410156 256.359375 156.789062 257.980469 Z M 156.789062 257.980469 "/></g></svg>