<svg xmlns="http://www.w3.org/2000/svg" xmlns:xlink="http://www.w3.org/1999/xlink" width="500" zoomAndPan="magnify" viewBox="0 0 375 374.999991" height="500" preserveAspectRatio="xMidYMid meet" version="1.2"><defs><clipPath id="e90cfeaacf"><path d="M 251 179 L 301.890625 179 L 301.890625 195 L 251 195 Z M 251 179 "/></clipPath></defs><g id="0b32eecdc3"><path style=" stroke:none;fill-rule:nonzero;fill:#17a2b8;fill-opacity:1;" d="M 351.777344 240.496094 C 342.617188 277.382812 320.929688 302.949219 286.710938 317.199219 C 252.492188 331.445312 218.976562 337.867188 186.15625 336.46875 C 153.339844 335.070312 125.863281 323.367188 103.730469 301.363281 C 81.59375 279.355469 62.449219 254.488281 46.296875 226.757812 C 30.140625 199.027344 27.472656 169.324219 38.28125 137.652344 C 49.09375 105.976562 66.96875 77.164062 91.898438 51.214844 C 116.832031 25.265625 147.171875 14.964844 182.914062 20.304688 C 218.65625 25.648438 253.382812 36.015625 287.09375 51.40625 C 320.800781 66.796875 342.300781 92.9375 351.585938 129.828125 C 360.871094 166.714844 360.933594 203.605469 351.777344 240.496094 Z M 351.777344 240.496094 "/><path style=" stroke:none;fill-rule:nonzero;fill:#fbc114;fill-opacity:1;" d="M 369.769531 159.710938 C 357.355469 88.757812 304.996094 28.1875 238.570312 10.949219 C 208.757812 2.953125 178.078125 7.289062 147.886719 12.058594 C 132.683594 18.105469 117.941406 25.476562 103.007812 32.195312 C 30.996094 76.453125 0.722656 179.710938 38.339844 259.011719 C 69.210938 318.851562 130.488281 364.300781 196.589844 357.390625 C 213.066406 359.125 226.238281 358.773438 241.578125 351.210938 C 261.714844 346.117188 282.472656 335.492188 300.660156 323.082031 C 336.40625 297.226562 364.105469 249.011719 369.308594 203.832031 C 369.90625 193.398438 370.175781 190.769531 368.929688 182.828125 C 368.984375 178.710938 370.203125 166.40625 369.769531 159.710938 Z M 367.382812 198.925781 C 364.675781 221.800781 358.628906 247.195312 344.644531 267.167969 C 330.632812 288.851562 316.132812 312.105469 293.371094 324.082031 C 237.621094 361.539062 163.929688 367.472656 106.097656 331.535156 C 29.667969 282.292969 0.15625 181.285156 46.308594 97.808594 C 70.1875 56.535156 94.605469 35.9375 137.183594 19.511719 C 190.679688 -0.0273438 254.425781 5.960938 299.085938 45.097656 C 335.484375 72.199219 358.984375 114.777344 367.628906 160.578125 C 367.355469 173.371094 367.519531 186.242188 367.382812 198.925781 Z M 367.382812 198.925781 "/><path style=" stroke:none;fill-rule:nonzero;fill:#fbc114;fill-opacity:1;" d="M 355.054688 187.328125 C 354.621094 126.132812 320.984375 60.707031 260.574219 36.914062 C 250.980469 33.0625 241.007812 30.652344 230.765625 27.265625 C 226.808594 25.535156 222.707031 24.289062 218.453125 23.527344 C 214.203125 22.765625 209.925781 22.511719 205.613281 22.765625 C 168.429688 22.765625 133.496094 25.175781 103.386719 50.410156 C 31.753906 96.5625 9.371094 204.023438 60.320312 272.34375 C 89.484375 320.34375 136.042969 340.613281 191.195312 345.277344 C 213.148438 345.003906 234.722656 338.472656 255.019531 330.992188 C 255.210938 330.992188 255.589844 330.832031 255.507812 330.992188 C 254.207031 332.132812 259.03125 330.074219 261.6875 328.878906 C 271.851562 323.460938 285.023438 318.609375 293.207031 311.019531 C 328.738281 281.886719 356.949219 233.101562 355.054688 187.328125 Z M 352.34375 196.8125 C 349.46875 240.609375 323.425781 282.046875 289.546875 310.125 C 235.5625 345.359375 168.972656 352.703125 111.976562 319.71875 C 0.589844 252.804688 14.789062 86.101562 134.28125 35.664062 C 150.082031 29.214844 166.804688 24.609375 184.121094 25.746094 C 208.160156 23.035156 228.625 27.859375 250.710938 35.71875 C 317.921875 57.644531 356.597656 131.171875 352.476562 196.8125 Z M 352.34375 196.8125 "/><path style=" stroke:none;fill-rule:nonzero;fill:#f4f1f0;fill-opacity:1;" d="M 225.839844 123.097656 C 223.953125 125.414062 221.9375 127.660156 220.199219 130.0625 C 217.925781 133.226562 216.039062 136.632812 213.640625 139.714844 C 211.957031 141.882812 209.828125 143.828125 207.644531 145.585938 C 205.429688 147.371094 202.792969 147.550781 200.296875 145.886719 C 198.0625 144.386719 195.644531 143.757812 192.851562 143.710938 C 190.984375 143.667969 189.15625 142.839844 187.269531 142.519531 C 181.722656 141.582031 176.191406 141.273438 170.613281 142.5625 C 168.65625 143.011719 166.488281 143.070312 164.472656 142.851562 C 163.324219 142.730469 161.898438 141.933594 161.28125 141.042969 C 157.308594 135.363281 151.789062 130.683594 148.621094 124.484375 C 148.144531 123.546875 147.253906 122.789062 146.515625 121.898438 C 144.191406 122.320312 143.902344 124.054688 143.0625 125.421875 C 140.609375 129.40625 138.074219 133.339844 135.546875 137.269531 C 135.027344 138.089844 134.429688 138.859375 133.859375 139.648438 C 131.425781 143 129.078125 146.414062 126.515625 149.6875 C 125.675781 150.757812 124.367188 151.535156 123.179688 152.332031 C 121.871094 153.210938 120.484375 154.179688 118.796875 152.910156 C 117.113281 151.644531 116.460938 150.007812 117.449219 148.210938 C 119.238281 144.957031 120.605469 141.234375 123.28125 138.726562 C 126.8125 135.414062 128.757812 131.351562 131.304688 127.609375 C 134.078125 123.507812 136.035156 118.933594 138.230469 114.511719 C 138.960938 113.046875 139.300781 111.417969 139.820312 109.863281 C 140.96875 106.386719 144.789062 105.359375 147.746094 107.777344 C 148.171875 108.136719 148.574219 108.574219 148.84375 109.042969 C 151.316406 113.324219 153.722656 117.648438 156.25 121.917969 C 157.136719 123.425781 158.175781 124.894531 159.34375 126.230469 C 160.628906 127.707031 162.386719 128.867188 163.503906 130.421875 C 164.851562 132.300781 166.589844 132.539062 168.796875 132.621094 C 176.3125 132.917969 183.828125 133.347656 191.324219 133.886719 C 193.199219 134.015625 195.046875 134.664062 196.875 135.195312 C 201.386719 136.523438 203.832031 135.804688 206.226562 132.140625 C 210.328125 125.863281 214.371094 119.574219 220.101562 114.34375 C 221.519531 113.046875 222.15625 111.070312 223.304688 109.492188 C 225.660156 106.226562 228.464844 105.929688 231.191406 108.921875 C 232.449219 110.3125 233.195312 112.199219 233.746094 113.972656 C 235.929688 120.992188 237.867188 128.078125 240.042969 135.09375 C 240.972656 138.078125 242.289062 140.964844 243.347656 143.917969 C 243.707031 144.9375 244.054688 146.035156 243.996094 147.082031 C 243.867188 149.429688 241.890625 150.625 239.394531 150.097656 C 237.070312 149.609375 235.300781 148.460938 234.59375 146.3125 C 232.738281 140.625 230.96875 134.914062 229.125 129.226562 C 228.476562 127.21875 227.707031 125.253906 226.996094 123.265625 C 226.597656 123.207031 226.21875 123.15625 225.839844 123.097656 Z M 225.839844 123.097656 "/><path style=" stroke:none;fill-rule:nonzero;fill:#f4f1f0;fill-opacity:1;" d="M 197.394531 261.390625 C 194.765625 261.582031 192.132812 261.78125 189.496094 261.941406 C 188.769531 261.980469 188 261.988281 187.292969 261.832031 C 180.882812 260.324219 174.496094 258.746094 168.085938 257.257812 C 165.09375 256.558594 161.9375 256.320312 159.082031 255.332031 C 153.445312 253.375 147.90625 251.128906 142.433594 248.792969 C 140.457031 247.957031 138.671875 246.660156 136.984375 245.351562 C 133.710938 242.816406 130.488281 240.21875 127.433594 237.476562 C 126.203125 236.367188 125.347656 234.851562 124.566406 233.402344 C 123.578125 231.554688 124.097656 229.101562 125.425781 228.132812 C 126.742188 227.164062 129.148438 227.464844 131.136719 228.902344 C 131.835938 229.398438 132.511719 229.949219 133.070312 230.578125 C 137.734375 235.878906 143.5625 239.703125 150.539062 241.9375 C 156.65625 243.894531 162.875 245.601562 169.046875 247.457031 C 177.230469 249.933594 185.863281 250.0625 194.269531 251.308594 C 197.601562 251.800781 201.394531 251.03125 204.6875 250.042969 C 212.394531 247.738281 219.972656 245.050781 227.496094 242.296875 C 229.492188 241.566406 231.171875 240.050781 232.925781 238.824219 C 236.101562 236.605469 237.726562 236.675781 240.613281 239.261719 C 243.347656 241.71875 243.976562 244.960938 241.78125 247.265625 C 239.746094 249.414062 237.339844 251.21875 234.023438 251.609375 C 232.886719 251.75 231.6875 251.988281 230.671875 252.457031 C 227.148438 254.074219 223.792969 256.042969 220.179688 257.449219 C 212.953125 260.253906 205.308594 261.601562 197.394531 261.390625 Z M 197.394531 261.390625 "/><path style=" stroke:none;fill-rule:nonzero;fill:#f4f1f0;fill-opacity:1;" d="M 186.902344 225.386719 C 184.875 226.097656 182.96875 226.765625 181.0625 227.433594 C 178.25 228.421875 175.554688 228.324219 173.058594 226.644531 C 171.378906 225.527344 170.550781 223.261719 171.082031 221.605469 C 171.648438 219.816406 173.238281 219.648438 174.90625 219.390625 C 176.472656 219.148438 178.199219 218.929688 179.503906 218.179688 C 182.96875 216.203125 183.097656 212.640625 180.164062 210.117188 C 178.789062 208.929688 177.417969 207.621094 176.492188 206.144531 C 174.964844 203.726562 175.441406 201.882812 177.578125 199.914062 C 180.492188 197.238281 187.070312 196.609375 190.425781 198.695312 C 193.421875 200.5625 194.476562 203.867188 192.730469 206.933594 C 190.675781 210.523438 190.503906 214.226562 191.652344 217.980469 C 192.589844 221.035156 194.328125 221.722656 197.683594 220.867188 C 201.414062 219.90625 202.960938 220.476562 203.980469 223.210938 C 205.277344 226.683594 204.558594 228.523438 201.265625 229.898438 C 197.222656 231.597656 193.460938 230.988281 190.066406 228.480469 C 189.046875 227.734375 188.25 226.726562 186.902344 225.386719 Z M 186.902344 225.386719 "/><path style=" stroke:none;fill-rule:nonzero;fill:#f4f1f0;fill-opacity:1;" d="M 129.628906 189.714844 C 125.445312 188.894531 121.273438 188.078125 117.089844 187.269531 C 108.4375 185.589844 99.785156 183.90625 91.121094 182.238281 C 87.867188 181.617188 86.4375 179.621094 86.128906 176.777344 C 85.859375 174.3125 86.976562 173.132812 89.652344 173.304688 C 91.398438 173.414062 93.125 173.875 94.863281 174.171875 C 105.3125 175.960938 115.785156 177.675781 126.214844 179.574219 C 129.527344 180.171875 132.832031 180.960938 134.308594 184.472656 C 135.707031 187.796875 134.808594 189.445312 131.003906 189.605469 C 130.566406 189.625 130.117188 189.554688 129.679688 189.523438 C 129.65625 189.585938 129.648438 189.652344 129.628906 189.714844 Z M 129.628906 189.714844 "/><g clip-rule="nonzero" clip-path="url(#e90cfeaacf)"><path style=" stroke:none;fill-rule:nonzero;fill:#f4f1f0;fill-opacity:1;" d="M 258.082031 193.804688 C 256.902344 193.804688 255.625 194.066406 254.566406 193.738281 C 253.429688 193.378906 251.902344 192.617188 251.640625 191.761719 C 251.394531 190.960938 252.3125 189.40625 253.210938 188.855469 C 254.894531 187.828125 256.863281 187 258.828125 186.589844 C 267.003906 184.921875 275.238281 183.476562 283.433594 181.878906 C 287.464844 181.101562 291.476562 180.210938 295.480469 179.3125 C 297.546875 178.84375 299.222656 179.214844 300.621094 180.761719 C 301.828125 182.109375 301.769531 183.554688 300.960938 184.921875 C 300.511719 185.671875 299.664062 186.398438 298.804688 186.730469 C 297.1875 187.347656 295.449219 187.796875 293.722656 188.105469 C 285.628906 189.542969 277.523438 190.941406 269.410156 192.300781 C 265.667969 192.929688 261.894531 193.457031 258.140625 194.035156 C 258.121094 193.964844 258.101562 193.886719 258.082031 193.804688 Z M 258.082031 193.804688 "/></g><path style=" stroke:none;fill-rule:nonzero;fill:#f4f1f0;fill-opacity:1;" d="M 258.019531 202.03125 C 266.605469 203.117188 275.199219 204.148438 283.761719 205.34375 C 285.769531 205.625 287.714844 206.402344 289.613281 207.121094 C 291.886719 207.980469 293.605469 212.421875 292.597656 214.488281 C 291.847656 216.035156 289.851562 216.804688 287.675781 216.003906 C 280.738281 213.441406 273.421875 212.949219 266.09375 212.222656 C 262.960938 211.914062 259.9375 210.566406 256.882812 209.648438 C 256.332031 209.488281 255.792969 209.1875 255.367188 208.839844 C 254.019531 207.742188 252.691406 206.542969 253.367188 204.6875 C 254.097656 202.691406 255.863281 202.160156 258.019531 202.03125 Z M 258.019531 202.03125 "/><path style=" stroke:none;fill-rule:nonzero;fill:#f4f1f0;fill-opacity:1;" d="M 130.296875 198.488281 C 131.296875 198.9375 133.132812 199.484375 134.578125 200.503906 C 136.214844 201.652344 137.644531 203.308594 137.023438 205.375 C 136.425781 207.359375 134.300781 207.550781 132.382812 207.898438 C 124.007812 209.398438 115.652344 210.984375 107.269531 212.441406 C 105.871094 212.679688 104.316406 212.632812 102.9375 212.3125 C 100.773438 211.804688 99.273438 209.714844 99.253906 207.742188 C 99.234375 205.8125 100.253906 204.644531 103.097656 204.015625 C 111.261719 202.21875 119.457031 200.554688 127.640625 198.847656 C 128.222656 198.726562 128.808594 198.6875 130.296875 198.488281 Z M 130.296875 198.488281 "/><path style=" stroke:none;fill-rule:nonzero;fill:#f4f1f0;fill-opacity:1;" d="M 224.832031 181.679688 C 224.753906 182.488281 224.742188 183.304688 224.59375 184.09375 C 223.792969 188.457031 220.089844 190.921875 215.527344 190.152344 C 209.710938 189.175781 206.925781 185.972656 207.375 181.378906 C 207.695312 178.074219 209.929688 176.019531 212.195312 173.921875 C 212.84375 173.324219 214.011719 172.996094 214.980469 172.894531 C 219.761719 172.40625 225.132812 177.257812 224.832031 181.679688 Z M 224.832031 181.679688 "/><path style=" stroke:none;fill-rule:nonzero;fill:#f4f1f0;fill-opacity:1;" d="M 175.511719 176.488281 C 175.332031 181.269531 171.242188 185.492188 167.019531 185.253906 C 161.839844 184.953125 158.003906 181.527344 158.195312 177.355469 C 158.414062 172.707031 162 169.730469 167.148438 169.941406 C 172.308594 170.160156 175.652344 172.773438 175.511719 176.488281 Z M 175.511719 176.488281 "/></g></svg>