<svg xmlns="http://www.w3.org/2000/svg" xmlns:xlink="http://www.w3.org/1999/xlink" width="500" zoomAndPan="magnify" viewBox="0 0 375 374.999991" height="500" preserveAspectRatio="xMidYMid meet" version="1.2"><defs><clipPath id="47ed9125fc"><path d="M 88.007812 69.011719 L 299 69.011719 L 299 153 L 88.007812 153 Z M 88.007812 69.011719 "/></clipPath></defs><g id="53a3891caa"><path style=" stroke:none;fill-rule:nonzero;fill:#17a2b8;fill-opacity:1;" d="M 351.777344 240.496094 C 342.617188 277.382812 320.929688 302.949219 286.710938 317.199219 C 252.492188 331.445312 218.976562 337.867188 186.15625 336.46875 C 153.339844 335.070312 125.863281 323.367188 103.730469 301.363281 C 81.59375 279.355469 62.449219 254.488281 46.296875 226.757812 C 30.140625 199.027344 27.472656 169.324219 38.28125 137.652344 C 49.09375 105.976562 66.96875 77.164062 91.898438 51.214844 C 116.832031 25.265625 147.171875 14.964844 182.914062 20.304688 C 218.65625 25.648438 253.382812 36.015625 287.09375 51.40625 C 320.800781 66.796875 342.300781 92.9375 351.585938 129.828125 C 360.871094 166.714844 360.933594 203.605469 351.777344 240.496094 Z M 351.777344 240.496094 "/><path style=" stroke:none;fill-rule:nonzero;fill:#fbc114;fill-opacity:1;" d="M 369.769531 159.710938 C 357.355469 88.757812 304.996094 28.1875 238.570312 10.949219 C 208.757812 2.953125 178.078125 7.289062 147.886719 12.058594 C 132.683594 18.105469 117.941406 25.476562 103.007812 32.195312 C 30.996094 76.453125 0.722656 179.710938 38.339844 259.011719 C 69.210938 318.851562 130.488281 364.300781 196.589844 357.390625 C 213.066406 359.125 226.238281 358.773438 241.578125 351.210938 C 261.714844 346.117188 282.472656 335.492188 300.660156 323.082031 C 336.40625 297.226562 364.105469 249.011719 369.308594 203.832031 C 369.90625 193.398438 370.175781 190.769531 368.929688 182.828125 C 368.984375 178.710938 370.203125 166.40625 369.769531 159.710938 Z M 367.382812 198.925781 C 364.675781 221.800781 358.628906 247.195312 344.644531 267.167969 C 330.632812 288.851562 316.132812 312.105469 293.371094 324.082031 C 237.621094 361.539062 163.929688 367.472656 106.097656 331.535156 C 29.667969 282.292969 0.15625 181.285156 46.308594 97.808594 C 70.1875 56.535156 94.605469 35.9375 137.183594 19.511719 C 190.679688 -0.0273438 254.425781 5.960938 299.085938 45.097656 C 335.484375 72.199219 358.984375 114.777344 367.628906 160.578125 C 367.355469 173.371094 367.519531 186.242188 367.382812 198.925781 Z M 367.382812 198.925781 "/><path style=" stroke:none;fill-rule:nonzero;fill:#fbc114;fill-opacity:1;" d="M 355.054688 187.328125 C 354.621094 126.132812 320.984375 60.707031 260.574219 36.914062 C 250.980469 33.0625 241.007812 30.652344 230.765625 27.265625 C 226.808594 25.535156 222.707031 24.289062 218.453125 23.527344 C 214.203125 22.765625 209.925781 22.511719 205.613281 22.765625 C 168.429688 22.765625 133.496094 25.175781 103.386719 50.410156 C 31.753906 96.5625 9.371094 204.023438 60.320312 272.34375 C 89.484375 320.34375 136.042969 340.613281 191.195312 345.277344 C 213.148438 345.003906 234.722656 338.472656 255.019531 330.992188 C 255.210938 330.992188 255.589844 330.832031 255.507812 330.992188 C 254.207031 332.132812 259.03125 330.074219 261.6875 328.878906 C 271.851562 323.460938 285.023438 318.609375 293.207031 311.019531 C 328.738281 281.886719 356.949219 233.101562 355.054688 187.328125 Z M 352.34375 196.8125 C 349.46875 240.609375 323.425781 282.046875 289.546875 310.125 C 235.5625 345.359375 168.972656 352.703125 111.976562 319.71875 C 0.589844 252.804688 14.789062 86.101562 134.28125 35.664062 C 150.082031 29.214844 166.804688 24.609375 184.121094 25.746094 C 208.160156 23.035156 228.625 27.859375 250.710938 35.71875 C 317.921875 57.644531 356.597656 131.171875 352.476562 196.8125 Z M 352.34375 196.8125 "/><path style=" stroke:none;fill-rule:nonzero;fill:#f4f1f0;fill-opacity:1;" d="M 298.191406 203.699219 C 298.191406 203.691406 298.191406 203.691406 298.191406 203.699219 C 298.1875 203.675781 298.179688 203.65625 298.179688 203.640625 C 298.164062 203.535156 298.136719 203.433594 298.105469 203.332031 C 298.09375 203.296875 298.078125 203.261719 298.0625 203.226562 C 298.03125 203.140625 297.996094 203.0625 297.953125 202.984375 C 297.9375 202.953125 297.921875 202.917969 297.898438 202.886719 C 297.839844 202.792969 297.773438 202.695312 297.699219 202.613281 C 297.695312 202.605469 297.6875 202.597656 297.683594 202.589844 C 297.601562 202.5 297.511719 202.417969 297.417969 202.34375 C 297.386719 202.316406 297.355469 202.296875 297.324219 202.273438 C 297.25 202.222656 297.175781 202.171875 297.09375 202.128906 C 297.0625 202.109375 297.027344 202.09375 296.988281 202.078125 C 296.878906 202.023438 296.761719 201.976562 296.636719 201.945312 C 296.636719 201.945312 296.636719 201.945312 296.628906 201.945312 C 296.628906 201.945312 296.628906 201.945312 296.625 201.945312 C 296.617188 201.945312 296.613281 201.945312 296.601562 201.941406 C 296.488281 201.910156 296.371094 201.894531 296.253906 201.882812 C 296.210938 201.875 296.164062 201.875 296.121094 201.875 C 296.035156 201.875 295.957031 201.875 295.871094 201.886719 C 295.832031 201.894531 295.789062 201.894531 295.742188 201.902344 C 295.625 201.925781 295.507812 201.949219 295.394531 201.988281 C 295.371094 202 295.347656 202.007812 295.328125 202.019531 C 295.238281 202.058594 295.148438 202.09375 295.0625 202.140625 C 295.027344 202.164062 294.992188 202.183594 294.957031 202.203125 C 294.882812 202.253906 294.8125 202.300781 294.746094 202.359375 C 294.714844 202.386719 294.683594 202.40625 294.65625 202.433594 C 294.570312 202.507812 294.496094 202.589844 294.421875 202.675781 C 294.410156 202.6875 294.40625 202.695312 294.394531 202.703125 C 288.109375 210.859375 280.914062 217.660156 273.03125 222.925781 C 272.054688 223.578125 271.796875 224.890625 272.445312 225.863281 C 273.097656 226.835938 274.410156 227.097656 275.382812 226.449219 C 280.921875 222.75 286.117188 218.328125 290.925781 213.257812 C 288.167969 220.664062 284.5625 227.738281 280.152344 234.375 C 273.855469 243.863281 266.085938 252.210938 257.066406 259.175781 C 248.035156 266.15625 238.007812 271.554688 227.246094 275.21875 C 216.546875 278.875 205.308594 280.738281 193.851562 280.753906 C 182.386719 280.738281 171.148438 278.875 160.449219 275.21875 C 149.691406 271.554688 139.65625 266.15625 130.628906 259.171875 C 121.609375 252.207031 113.84375 243.859375 107.542969 234.367188 C 101.226562 224.867188 96.554688 214.460938 93.660156 203.449219 C 93.363281 202.316406 92.203125 201.644531 91.074219 201.941406 C 89.941406 202.238281 89.269531 203.394531 89.566406 204.527344 C 92.578125 215.996094 97.441406 226.828125 104.015625 236.714844 C 110.574219 246.589844 118.65625 255.273438 128.039062 262.527344 C 137.441406 269.792969 147.882812 275.414062 159.082031 279.230469 C 170.222656 283.035156 181.921875 284.976562 193.855469 284.992188 C 205.78125 284.976562 217.476562 283.039062 228.617188 279.230469 C 239.816406 275.414062 250.261719 269.796875 259.660156 262.527344 C 269.042969 255.273438 277.132812 246.59375 283.683594 236.714844 C 288.261719 229.828125 292.003906 222.488281 294.871094 214.792969 C 295.125 222.164062 294.601562 229.558594 293.269531 236.878906 C 293.0625 238.027344 293.824219 239.132812 294.972656 239.339844 C 295.101562 239.359375 295.226562 239.371094 295.355469 239.371094 C 296.359375 239.371094 297.25 238.65625 297.433594 237.628906 C 299.492188 226.382812 299.742188 214.964844 298.191406 203.699219 Z M 298.191406 203.699219 "/><g clip-rule="nonzero" clip-path="url(#47ed9125fc)"><path style=" stroke:none;fill-rule:nonzero;fill:#f4f1f0;fill-opacity:1;" d="M 89.53125 150.339844 C 89.53125 150.355469 89.542969 150.378906 89.542969 150.394531 C 89.558594 150.5 89.582031 150.605469 89.613281 150.707031 C 89.625 150.742188 89.640625 150.777344 89.652344 150.8125 C 89.683594 150.898438 89.722656 150.976562 89.761719 151.054688 C 89.777344 151.085938 89.796875 151.121094 89.816406 151.152344 C 89.875 151.25 89.945312 151.347656 90.015625 151.433594 C 90.023438 151.4375 90.027344 151.441406 90.027344 151.449219 C 90.109375 151.539062 90.199219 151.621094 90.292969 151.695312 C 90.324219 151.722656 90.355469 151.742188 90.382812 151.765625 C 90.457031 151.816406 90.53125 151.867188 90.609375 151.90625 C 90.640625 151.925781 90.679688 151.945312 90.710938 151.960938 C 90.820312 152.015625 90.945312 152.0625 91.066406 152.09375 C 91.066406 152.09375 91.066406 152.09375 91.070312 152.09375 C 91.070312 152.09375 91.070312 152.09375 91.074219 152.09375 C 91.144531 152.109375 91.21875 152.125 91.289062 152.136719 C 91.304688 152.140625 91.324219 152.144531 91.339844 152.144531 C 91.429688 152.15625 91.527344 152.164062 91.617188 152.164062 C 91.765625 152.164062 91.90625 152.140625 92.042969 152.113281 C 92.082031 152.109375 92.117188 152.097656 92.152344 152.089844 C 92.261719 152.054688 92.371094 152.019531 92.472656 151.972656 C 92.503906 151.957031 92.53125 151.945312 92.5625 151.933594 C 92.691406 151.871094 92.8125 151.792969 92.921875 151.707031 C 92.945312 151.691406 92.964844 151.671875 92.988281 151.648438 C 93.082031 151.570312 93.167969 151.480469 93.246094 151.382812 C 93.257812 151.367188 93.277344 151.359375 93.289062 151.34375 C 99.582031 143.1875 106.769531 136.378906 114.660156 131.109375 C 115.632812 130.457031 115.894531 129.144531 115.242188 128.171875 C 114.589844 127.195312 113.277344 126.9375 112.304688 127.582031 C 106.769531 131.28125 101.570312 135.707031 96.761719 140.777344 C 99.519531 133.367188 103.121094 126.296875 107.53125 119.660156 C 113.828125 110.167969 121.597656 101.824219 130.617188 94.859375 C 139.648438 87.875 149.683594 82.476562 160.4375 78.808594 C 171.164062 75.152344 182.402344 73.289062 193.859375 73.273438 C 205.324219 73.289062 216.5625 75.152344 227.261719 78.808594 C 238.019531 82.472656 248.046875 87.871094 257.082031 94.859375 C 266.101562 101.824219 273.867188 110.167969 280.167969 119.664062 C 286.484375 129.171875 291.152344 139.570312 294.046875 150.585938 C 294.34375 151.71875 295.503906 152.390625 296.636719 152.09375 C 297.765625 151.796875 298.441406 150.636719 298.144531 149.511719 C 295.132812 138.042969 290.269531 127.210938 283.695312 117.320312 C 277.136719 107.4375 269.054688 98.757812 259.671875 91.507812 C 250.269531 84.234375 239.828125 78.621094 228.628906 74.804688 C 217.488281 70.992188 205.789062 69.054688 193.859375 69.039062 C 181.9375 69.054688 170.238281 71 159.097656 74.804688 C 147.898438 78.621094 137.457031 84.242188 128.054688 91.507812 C 118.671875 98.757812 110.589844 107.445312 104.03125 117.320312 C 99.453125 124.207031 95.710938 131.546875 92.84375 139.242188 C 92.589844 131.871094 93.113281 124.476562 94.449219 117.15625 C 94.652344 116.007812 93.890625 114.902344 92.742188 114.695312 C 91.589844 114.484375 90.492188 115.25 90.28125 116.398438 C 88.230469 127.644531 87.980469 139.0625 89.53125 150.339844 C 89.53125 150.335938 89.53125 150.335938 89.53125 150.339844 Z M 89.53125 150.339844 "/></g><path style=" stroke:none;fill-rule:nonzero;fill:#f4f1f0;fill-opacity:1;" d="M 237.546875 133.890625 C 237.527344 133.90625 237.503906 133.917969 237.488281 133.933594 L 180.253906 174.207031 L 159.121094 153.359375 C 150.527344 145.285156 139.878906 147.164062 133.625 152.332031 C 127.152344 157.671875 123.46875 167.570312 129.828125 177.652344 C 129.839844 177.667969 129.851562 177.683594 129.859375 177.699219 L 158.890625 221.035156 C 159.375 221.75 159.890625 222.4375 160.433594 223.070312 C 164.289062 227.605469 169.679688 230.363281 175.605469 230.839844 C 176.210938 230.886719 176.8125 230.914062 177.417969 230.914062 C 182.699219 230.914062 187.753906 229.054688 191.816406 225.589844 L 261.269531 166.339844 C 261.566406 166.085938 261.847656 165.847656 262.082031 165.605469 L 262.105469 165.625 C 271.765625 156.761719 270.261719 145.128906 264.777344 138.074219 C 259.320312 131.054688 248.480469 126.75 237.546875 133.890625 Z M 259.261719 162.484375 C 257.675781 163.839844 190.605469 221.050781 189.921875 221.632812 L 189.066406 222.363281 C 185.398438 225.492188 180.734375 227 175.941406 226.621094 C 171.140625 226.234375 166.773438 224 163.648438 220.328125 C 163.214844 219.8125 162.792969 219.257812 162.402344 218.675781 L 133.386719 175.367188 C 128.421875 167.472656 131.273438 159.753906 136.3125 155.597656 C 141.351562 151.441406 149.460938 150.09375 156.183594 156.40625 L 178.539062 178.460938 C 179.269531 179.179688 180.40625 179.277344 181.242188 178.683594 L 239.890625 137.417969 C 248.613281 131.738281 256.992188 134.957031 261.425781 140.660156 C 265.898438 146.417969 266.964844 155.394531 259.261719 162.484375 Z M 259.261719 162.484375 "/></g></svg>