<svg xmlns="http://www.w3.org/2000/svg" xmlns:xlink="http://www.w3.org/1999/xlink" width="500" zoomAndPan="magnify" viewBox="0 0 375 374.999991" height="500" preserveAspectRatio="xMidYMid meet" version="1.2"><defs><clipPath id="4132113615"><path d="M 91 61.480469 L 286.515625 61.480469 L 286.515625 305.980469 L 91 305.980469 Z M 91 61.480469 "/></clipPath></defs><g id="a5a8d26c2d"><path style=" stroke:none;fill-rule:nonzero;fill:#17a2b8;fill-opacity:1;" d="M 351.777344 240.496094 C 342.617188 277.382812 320.929688 302.949219 286.710938 317.199219 C 252.492188 331.445312 218.976562 337.867188 186.15625 336.46875 C 153.339844 335.070312 125.863281 323.367188 103.730469 301.363281 C 81.59375 279.355469 62.449219 254.488281 46.296875 226.757812 C 30.140625 199.027344 27.472656 169.324219 38.28125 137.652344 C 49.09375 105.976562 66.96875 77.164062 91.898438 51.214844 C 116.832031 25.265625 147.171875 14.964844 182.914062 20.304688 C 218.65625 25.648438 253.382812 36.015625 287.09375 51.40625 C 320.800781 66.796875 342.300781 92.9375 351.585938 129.828125 C 360.871094 166.714844 360.933594 203.605469 351.777344 240.496094 Z M 351.777344 240.496094 "/><path style=" stroke:none;fill-rule:nonzero;fill:#fbc114;fill-opacity:1;" d="M 369.769531 159.710938 C 357.355469 88.757812 304.996094 28.1875 238.570312 10.949219 C 208.757812 2.953125 178.078125 7.289062 147.886719 12.058594 C 132.683594 18.105469 117.941406 25.476562 103.007812 32.195312 C 30.996094 76.453125 0.722656 179.710938 38.339844 259.011719 C 69.210938 318.851562 130.488281 364.300781 196.589844 357.390625 C 213.066406 359.125 226.238281 358.773438 241.578125 351.210938 C 261.714844 346.117188 282.472656 335.492188 300.660156 323.082031 C 336.40625 297.226562 364.105469 249.011719 369.308594 203.832031 C 369.90625 193.398438 370.175781 190.769531 368.929688 182.828125 C 368.984375 178.710938 370.203125 166.40625 369.769531 159.710938 Z M 367.382812 198.925781 C 364.675781 221.800781 358.628906 247.195312 344.644531 267.167969 C 330.632812 288.851562 316.132812 312.105469 293.371094 324.082031 C 237.621094 361.539062 163.929688 367.472656 106.097656 331.535156 C 29.667969 282.292969 0.15625 181.285156 46.308594 97.808594 C 70.1875 56.535156 94.605469 35.9375 137.183594 19.511719 C 190.679688 -0.0273438 254.425781 5.960938 299.085938 45.097656 C 335.484375 72.199219 358.984375 114.777344 367.628906 160.578125 C 367.355469 173.371094 367.519531 186.242188 367.382812 198.925781 Z M 367.382812 198.925781 "/><path style=" stroke:none;fill-rule:nonzero;fill:#fbc114;fill-opacity:1;" d="M 355.054688 187.328125 C 354.621094 126.132812 320.984375 60.707031 260.574219 36.914062 C 250.980469 33.0625 241.007812 30.652344 230.765625 27.265625 C 226.808594 25.535156 222.707031 24.289062 218.453125 23.527344 C 214.203125 22.765625 209.925781 22.511719 205.613281 22.765625 C 168.429688 22.765625 133.496094 25.175781 103.386719 50.410156 C 31.753906 96.5625 9.371094 204.023438 60.320312 272.34375 C 89.484375 320.34375 136.042969 340.613281 191.195312 345.277344 C 213.148438 345.003906 234.722656 338.472656 255.019531 330.992188 C 255.210938 330.992188 255.589844 330.832031 255.507812 330.992188 C 254.207031 332.132812 259.03125 330.074219 261.6875 328.878906 C 271.851562 323.460938 285.023438 318.609375 293.207031 311.019531 C 328.738281 281.886719 356.949219 233.101562 355.054688 187.328125 Z M 352.34375 196.8125 C 349.46875 240.609375 323.425781 282.046875 289.546875 310.125 C 235.5625 345.359375 168.972656 352.703125 111.976562 319.71875 C 0.589844 252.804688 14.789062 86.101562 134.28125 35.664062 C 150.082031 29.214844 166.804688 24.609375 184.121094 25.746094 C 208.160156 23.035156 228.625 27.859375 250.710938 35.71875 C 317.921875 57.644531 356.597656 131.171875 352.476562 196.8125 Z M 352.34375 196.8125 "/><path style=" stroke:none;fill-rule:nonzero;fill:#f4f1f0;fill-opacity:1;" d="M 137.597656 125.300781 C 139.785156 126.554688 142.914062 125.84375 144.261719 123.488281 C 145.597656 121.144531 144.785156 118.164062 142.445312 116.824219 C 134.925781 112.523438 130.253906 104.433594 130.253906 95.71875 C 130.253906 87.003906 134.925781 78.917969 142.445312 74.617188 C 144.785156 73.273438 145.597656 70.292969 144.261719 67.949219 C 142.917969 65.613281 139.933594 64.804688 137.597656 66.136719 C 127.042969 72.175781 120.488281 83.511719 120.488281 95.71875 C 120.488281 107.925781 127.042969 119.261719 137.597656 125.300781 Z M 137.597656 125.300781 "/><path style=" stroke:none;fill-rule:nonzero;fill:#f4f1f0;fill-opacity:1;" d="M 215.726562 116.824219 C 213.386719 118.164062 212.574219 121.144531 213.910156 123.484375 C 215.167969 125.691406 218.382812 126.558594 220.578125 125.300781 C 231.128906 119.261719 237.683594 107.925781 237.683594 95.71875 C 237.683594 83.511719 231.128906 72.175781 220.578125 66.136719 C 218.230469 64.804688 215.25 65.613281 213.910156 67.949219 C 212.574219 70.292969 213.386719 73.273438 215.726562 74.617188 C 223.246094 78.917969 227.917969 87.003906 227.917969 95.71875 C 227.917969 104.433594 223.246094 112.523438 215.726562 116.824219 Z M 215.726562 116.824219 "/><g clip-rule="nonzero" clip-path="url(#4132113615)"><path style=" stroke:none;fill-rule:nonzero;fill:#f4f1f0;fill-opacity:1;" d="M 266.855469 159.199219 C 262.910156 159.199219 259.132812 160.363281 255.914062 162.523438 C 253.230469 154.910156 245.925781 149.433594 237.355469 149.433594 C 233.421875 149.433594 229.632812 150.597656 226.371094 152.777344 C 223.703125 145.152344 216.410156 139.667969 207.851562 139.667969 C 204.324219 139.667969 200.933594 140.585938 197.960938 142.308594 L 197.960938 124.128906 C 207.441406 117.804688 213.269531 107.207031 213.269531 95.71875 C 213.269531 76.871094 197.933594 61.535156 179.085938 61.535156 C 160.238281 61.535156 144.902344 76.871094 144.902344 95.71875 C 144.902344 106.472656 150.148438 116.664062 158.691406 123.03125 C 158.691406 152.488281 158.691406 208.722656 158.691406 208.722656 L 125.65625 185.644531 C 120.527344 182.0625 114.089844 180.765625 107.976562 182.074219 C 101.84375 183.390625 96.480469 187.253906 93.257812 192.667969 C 89.265625 199.375 91.203125 208.027344 97.664062 212.367188 C 111.496094 221.660156 124.054688 232.765625 135 245.375 L 148.546875 260.980469 C 151.246094 264.09375 154.480469 266.609375 158.15625 268.464844 C 165.570312 272.199219 170.171875 279.714844 170.171875 288.078125 L 170.171875 300.8125 C 170.171875 303.507812 172.359375 305.695312 175.054688 305.695312 L 266.855469 305.695312 C 269.554688 305.695312 271.738281 303.507812 271.738281 300.8125 L 271.738281 275.417969 C 271.738281 271.535156 273.679688 267.957031 276.953125 265.828125 C 282.941406 261.886719 286.515625 255.25 286.515625 248.074219 L 286.515625 178.734375 C 286.515625 167.960938 277.695312 159.199219 266.855469 159.199219 Z M 154.671875 95.71875 C 154.671875 82.257812 165.625 71.304688 179.085938 71.304688 C 192.546875 71.304688 203.5 82.257812 203.5 95.71875 C 203.5 101.4375 201.472656 106.855469 197.960938 111.152344 L 197.960938 105.484375 C 197.960938 94.714844 189.140625 85.953125 178.300781 85.953125 C 167.65625 85.953125 158.691406 94.808594 158.691406 105.484375 C 158.691406 105.496094 158.691406 106.796875 158.691406 109.003906 C 156.144531 105.089844 154.671875 100.488281 154.671875 95.71875 Z M 276.75 248.074219 C 276.75 251.898438 274.769531 255.570312 271.605469 257.65625 C 265.574219 261.578125 261.972656 268.21875 261.972656 275.417969 L 261.972656 295.929688 L 179.941406 295.929688 L 179.941406 288.078125 C 179.941406 276.003906 173.277344 265.148438 162.554688 259.742188 C 160.019531 258.464844 157.789062 256.730469 155.925781 254.578125 L 142.375 238.972656 C 130.867188 225.714844 117.65625 214.035156 103.109375 204.261719 C 100.953125 202.808594 100.3125 199.914062 101.652344 197.660156 C 103.515625 194.527344 106.492188 192.382812 110.03125 191.621094 C 113.554688 190.863281 117.109375 191.589844 120.0625 193.652344 L 160.777344 222.09375 C 163.960938 224.324219 168.457031 221.972656 168.457031 218.089844 C 168.457031 217.746094 168.457031 105.484375 168.457031 105.484375 C 168.457031 100.164062 172.984375 95.71875 178.300781 95.71875 C 183.757812 95.71875 188.195312 100.097656 188.195312 105.484375 L 188.195312 198.265625 C 188.195312 200.960938 190.378906 203.148438 193.078125 203.148438 C 195.773438 203.148438 197.960938 200.960938 197.960938 198.265625 L 197.960938 159.199219 C 197.960938 153.8125 202.496094 149.433594 207.855469 149.433594 C 213.28125 149.433594 217.695312 153.8125 217.695312 159.199219 L 217.695312 198.265625 C 217.695312 200.960938 219.882812 203.148438 222.578125 203.148438 C 225.277344 203.148438 227.460938 200.960938 227.460938 198.265625 L 227.460938 168.964844 C 227.460938 163.632812 232.035156 159.199219 237.355469 159.199219 C 242.8125 159.199219 247.246094 163.582031 247.246094 168.964844 L 247.246094 198.265625 C 247.246094 200.960938 249.433594 203.148438 252.128906 203.148438 C 254.828125 203.148438 257.015625 200.960938 257.015625 198.265625 L 257.015625 178.734375 C 257.015625 173.421875 261.640625 168.964844 266.855469 168.964844 C 272.3125 168.964844 276.75 173.347656 276.75 178.734375 Z M 276.75 248.074219 "/></g></g></svg>