<svg xmlns="http://www.w3.org/2000/svg" xmlns:xlink="http://www.w3.org/1999/xlink" width="500" zoomAndPan="magnify" viewBox="0 0 375 374.999991" height="500" preserveAspectRatio="xMidYMid meet" version="1.2"><defs><clipPath id="617d8ff71a"><path d="M 92.339844 75.648438 L 308.339844 75.648438 L 308.339844 291.648438 L 92.339844 291.648438 Z M 92.339844 75.648438 "/></clipPath></defs><g id="6a8a503ee7"><path style=" stroke:none;fill-rule:nonzero;fill:#17a2b8;fill-opacity:1;" d="M 351.777344 240.496094 C 342.617188 277.382812 320.929688 302.949219 286.710938 317.199219 C 252.492188 331.445312 218.976562 337.867188 186.15625 336.46875 C 153.339844 335.070312 125.863281 323.367188 103.730469 301.363281 C 81.59375 279.355469 62.449219 254.488281 46.296875 226.757812 C 30.140625 199.027344 27.472656 169.324219 38.28125 137.652344 C 49.09375 105.976562 66.96875 77.164062 91.898438 51.214844 C 116.832031 25.265625 147.171875 14.964844 182.914062 20.304688 C 218.65625 25.648438 253.382812 36.015625 287.09375 51.40625 C 320.800781 66.796875 342.300781 92.9375 351.585938 129.828125 C 360.871094 166.714844 360.933594 203.605469 351.777344 240.496094 Z M 351.777344 240.496094 "/><path style=" stroke:none;fill-rule:nonzero;fill:#fbc114;fill-opacity:1;" d="M 369.769531 159.710938 C 357.355469 88.757812 304.996094 28.1875 238.570312 10.949219 C 208.757812 2.953125 178.078125 7.289062 147.886719 12.058594 C 132.683594 18.105469 117.941406 25.476562 103.007812 32.195312 C 30.996094 76.453125 0.722656 179.710938 38.339844 259.011719 C 69.210938 318.851562 130.488281 364.300781 196.589844 357.390625 C 213.066406 359.125 226.238281 358.773438 241.578125 351.210938 C 261.714844 346.117188 282.472656 335.492188 300.660156 323.082031 C 336.40625 297.226562 364.105469 249.011719 369.308594 203.832031 C 369.90625 193.398438 370.175781 190.769531 368.929688 182.828125 C 368.984375 178.710938 370.203125 166.40625 369.769531 159.710938 Z M 367.382812 198.925781 C 364.675781 221.800781 358.628906 247.195312 344.644531 267.167969 C 330.632812 288.851562 316.132812 312.105469 293.371094 324.082031 C 237.621094 361.539062 163.929688 367.472656 106.097656 331.535156 C 29.667969 282.292969 0.15625 181.285156 46.308594 97.808594 C 70.1875 56.535156 94.605469 35.9375 137.183594 19.511719 C 190.679688 -0.0273438 254.425781 5.960938 299.085938 45.097656 C 335.484375 72.199219 358.984375 114.777344 367.628906 160.578125 C 367.355469 173.371094 367.519531 186.242188 367.382812 198.925781 Z M 367.382812 198.925781 "/><path style=" stroke:none;fill-rule:nonzero;fill:#fbc114;fill-opacity:1;" d="M 355.054688 187.328125 C 354.621094 126.132812 320.984375 60.707031 260.574219 36.914062 C 250.980469 33.0625 241.007812 30.652344 230.765625 27.265625 C 226.808594 25.535156 222.707031 24.289062 218.453125 23.527344 C 214.203125 22.765625 209.925781 22.511719 205.613281 22.765625 C 168.429688 22.765625 133.496094 25.175781 103.386719 50.410156 C 31.753906 96.5625 9.371094 204.023438 60.320312 272.34375 C 89.484375 320.34375 136.042969 340.613281 191.195312 345.277344 C 213.148438 345.003906 234.722656 338.472656 255.019531 330.992188 C 255.210938 330.992188 255.589844 330.832031 255.507812 330.992188 C 254.207031 332.132812 259.03125 330.074219 261.6875 328.878906 C 271.851562 323.460938 285.023438 318.609375 293.207031 311.019531 C 328.738281 281.886719 356.949219 233.101562 355.054688 187.328125 Z M 352.34375 196.8125 C 349.46875 240.609375 323.425781 282.046875 289.546875 310.125 C 235.5625 345.359375 168.972656 352.703125 111.976562 319.71875 C 0.589844 252.804688 14.789062 86.101562 134.28125 35.664062 C 150.082031 29.214844 166.804688 24.609375 184.121094 25.746094 C 208.160156 23.035156 228.625 27.859375 250.710938 35.71875 C 317.921875 57.644531 356.597656 131.171875 352.476562 196.8125 Z M 352.34375 196.8125 "/><g clip-rule="nonzero" clip-path="url(#617d8ff71a)"><path style=" stroke:none;fill-rule:nonzero;fill:#f4f1f0;fill-opacity:1;" d="M 290.339844 205.25 L 257.941406 205.25 L 257.941406 176.449219 C 257.941406 175.976562 257.988281 175.507812 258.078125 175.046875 C 258.171875 174.582031 258.308594 174.132812 258.488281 173.695312 C 258.671875 173.257812 258.890625 172.84375 259.15625 172.449219 C 259.417969 172.054688 259.714844 171.691406 260.050781 171.359375 C 260.382812 171.023438 260.75 170.726562 261.140625 170.464844 C 261.535156 170.199219 261.949219 169.980469 262.386719 169.796875 C 262.824219 169.617188 263.273438 169.480469 263.738281 169.386719 C 264.199219 169.296875 264.667969 169.25 265.140625 169.25 C 265.613281 169.25 266.082031 169.296875 266.546875 169.386719 C 267.011719 169.480469 267.460938 169.617188 267.898438 169.796875 C 268.332031 169.980469 268.75 170.199219 269.140625 170.464844 C 269.535156 170.726562 269.898438 171.023438 270.234375 171.359375 C 270.566406 171.691406 270.867188 172.054688 271.128906 172.449219 C 271.390625 172.84375 271.613281 173.257812 271.792969 173.695312 C 271.972656 174.132812 272.109375 174.582031 272.203125 175.046875 C 272.296875 175.507812 272.339844 175.976562 272.339844 176.449219 L 272.339844 187.25 C 272.339844 187.957031 272.410156 188.660156 272.550781 189.355469 C 272.6875 190.050781 272.890625 190.726562 273.164062 191.382812 C 273.433594 192.039062 273.769531 192.660156 274.160156 193.25 C 274.554688 193.839844 275.003906 194.386719 275.503906 194.886719 C 276.007812 195.386719 276.550781 195.835938 277.140625 196.230469 C 277.730469 196.625 278.351562 196.957031 279.007812 197.226562 C 279.664062 197.5 280.339844 197.703125 281.035156 197.84375 C 281.730469 197.980469 282.433594 198.050781 283.140625 198.050781 C 283.851562 198.050781 284.554688 197.980469 285.25 197.84375 C 285.945312 197.703125 286.621094 197.5 287.273438 197.226562 C 287.929688 196.957031 288.550781 196.625 289.140625 196.230469 C 289.730469 195.835938 290.277344 195.386719 290.777344 194.886719 C 291.28125 194.386719 291.726562 193.839844 292.121094 193.25 C 292.515625 192.660156 292.847656 192.039062 293.121094 191.382812 C 293.390625 190.726562 293.59375 190.050781 293.734375 189.355469 C 293.871094 188.660156 293.941406 187.957031 293.941406 187.25 L 293.941406 176.449219 C 293.945312 175.351562 293.886719 174.261719 293.765625 173.171875 C 293.644531 172.082031 293.460938 171 293.21875 169.933594 C 292.972656 168.863281 292.667969 167.8125 292.300781 166.777344 C 291.9375 165.746094 291.515625 164.734375 291.03125 163.75 C 290.550781 162.765625 290.015625 161.8125 289.425781 160.886719 C 288.835938 159.964844 288.195312 159.078125 287.503906 158.226562 C 286.808594 157.375 286.070312 156.566406 285.285156 155.800781 C 284.5 155.035156 283.675781 154.316406 282.808594 153.648438 C 281.941406 152.976562 281.039062 152.355469 280.101562 151.789062 C 279.164062 151.222656 278.195312 150.710938 277.199219 150.253906 C 276.203125 149.796875 275.183594 149.398438 274.140625 149.058594 C 273.097656 148.71875 272.039062 148.441406 270.964844 148.222656 C 269.890625 148.003906 268.804688 147.847656 267.714844 147.753906 C 266.621094 147.660156 265.527344 147.628906 264.429688 147.660156 C 263.335938 147.691406 262.246094 147.785156 261.160156 147.941406 C 260.074219 148.097656 259 148.316406 257.941406 148.597656 L 257.941406 90.050781 C 257.941406 89.105469 257.847656 88.167969 257.664062 87.242188 C 257.480469 86.3125 257.207031 85.414062 256.84375 84.539062 C 256.484375 83.664062 256.039062 82.835938 255.515625 82.050781 C 254.988281 81.261719 254.390625 80.535156 253.722656 79.867188 C 253.054688 79.199219 252.328125 78.601562 251.542969 78.078125 C 250.753906 77.550781 249.925781 77.109375 249.050781 76.746094 C 248.179688 76.382812 247.277344 76.109375 246.351562 75.925781 C 245.421875 75.742188 244.488281 75.648438 243.542969 75.648438 L 106.742188 75.648438 C 105.796875 75.648438 104.859375 75.742188 103.933594 75.925781 C 103.003906 76.109375 102.105469 76.382812 101.230469 76.746094 C 100.355469 77.109375 99.527344 77.550781 98.742188 78.078125 C 97.957031 78.601562 97.226562 79.199219 96.558594 79.867188 C 95.890625 80.535156 95.292969 81.261719 94.769531 82.050781 C 94.242188 82.835938 93.800781 83.664062 93.4375 84.539062 C 93.074219 85.414062 92.800781 86.3125 92.617188 87.242188 C 92.433594 88.167969 92.339844 89.105469 92.339844 90.050781 L 92.339844 234.050781 C 92.339844 234.996094 92.433594 235.929688 92.617188 236.859375 C 92.800781 237.785156 93.074219 238.6875 93.4375 239.558594 C 93.800781 240.433594 94.242188 241.265625 94.769531 242.050781 C 95.292969 242.835938 95.890625 243.5625 96.558594 244.230469 C 97.226562 244.902344 97.957031 245.496094 98.742188 246.023438 C 99.527344 246.546875 100.355469 246.992188 101.230469 247.355469 C 102.105469 247.714844 103.003906 247.988281 103.933594 248.171875 C 104.859375 248.359375 105.796875 248.449219 106.742188 248.449219 L 221.941406 248.449219 L 221.941406 273.648438 C 221.941406 274.238281 221.972656 274.828125 222.03125 275.414062 C 222.089844 276 222.175781 276.582031 222.289062 277.160156 C 222.40625 277.738281 222.550781 278.308594 222.722656 278.871094 C 222.894531 279.4375 223.089844 279.992188 223.316406 280.535156 C 223.542969 281.078125 223.796875 281.609375 224.074219 282.128906 C 224.351562 282.648438 224.652344 283.15625 224.980469 283.644531 C 225.308594 284.132812 225.660156 284.609375 226.035156 285.0625 C 226.40625 285.519531 226.804688 285.953125 227.21875 286.371094 C 227.636719 286.789062 228.074219 287.183594 228.527344 287.558594 C 228.984375 287.929688 229.457031 288.28125 229.945312 288.609375 C 230.4375 288.9375 230.941406 289.238281 231.460938 289.519531 C 231.980469 289.796875 232.511719 290.046875 233.054688 290.273438 C 233.601562 290.5 234.15625 290.699219 234.71875 290.871094 C 235.28125 291.042969 235.851562 291.183594 236.429688 291.300781 C 237.007812 291.414062 237.589844 291.503906 238.179688 291.5625 C 238.765625 291.621094 239.351562 291.648438 239.941406 291.648438 L 290.339844 291.648438 C 290.929688 291.648438 291.519531 291.621094 292.105469 291.5625 C 292.691406 291.503906 293.273438 291.414062 293.851562 291.300781 C 294.429688 291.183594 295 291.042969 295.5625 290.871094 C 296.128906 290.699219 296.683594 290.5 297.226562 290.273438 C 297.769531 290.046875 298.304688 289.796875 298.824219 289.519531 C 299.34375 289.238281 299.847656 288.9375 300.335938 288.609375 C 300.828125 288.28125 301.300781 287.929688 301.753906 287.558594 C 302.210938 287.183594 302.644531 286.789062 303.0625 286.371094 C 303.480469 285.953125 303.875 285.519531 304.25 285.0625 C 304.625 284.609375 304.972656 284.132812 305.300781 283.644531 C 305.628906 283.15625 305.933594 282.648438 306.210938 282.128906 C 306.488281 281.609375 306.738281 281.078125 306.964844 280.535156 C 307.191406 279.992188 307.390625 279.4375 307.5625 278.871094 C 307.734375 278.308594 307.875 277.738281 307.992188 277.160156 C 308.109375 276.582031 308.195312 276 308.253906 275.414062 C 308.3125 274.828125 308.339844 274.238281 308.339844 273.648438 L 308.339844 223.25 C 308.339844 222.660156 308.3125 222.074219 308.253906 221.484375 C 308.195312 220.898438 308.109375 220.316406 307.992188 219.738281 C 307.875 219.160156 307.734375 218.589844 307.5625 218.027344 C 307.390625 217.464844 307.191406 216.910156 306.964844 216.363281 C 306.738281 215.820312 306.488281 215.289062 306.210938 214.769531 C 305.933594 214.25 305.628906 213.746094 305.300781 213.253906 C 304.972656 212.765625 304.625 212.292969 304.25 211.835938 C 303.875 211.382812 303.480469 210.945312 303.0625 210.527344 C 302.644531 210.113281 302.210938 209.714844 301.753906 209.34375 C 301.300781 208.96875 300.828125 208.617188 300.335938 208.289062 C 299.847656 207.960938 299.34375 207.660156 298.824219 207.382812 C 298.304688 207.101562 297.769531 206.851562 297.226562 206.625 C 296.683594 206.398438 296.128906 206.199219 295.5625 206.03125 C 295 205.859375 294.429688 205.714844 293.851562 205.597656 C 293.273438 205.484375 292.691406 205.398438 292.105469 205.339844 C 291.519531 205.28125 290.929688 205.25 290.339844 205.25 Z M 286.742188 176.449219 L 286.742188 187.25 C 286.742188 187.726562 286.648438 188.1875 286.46875 188.628906 C 286.285156 189.070312 286.023438 189.457031 285.6875 189.796875 C 285.347656 190.132812 284.960938 190.394531 284.519531 190.574219 C 284.078125 190.757812 283.617188 190.851562 283.140625 190.851562 C 282.664062 190.851562 282.203125 190.757812 281.765625 190.574219 C 281.324219 190.394531 280.933594 190.132812 280.597656 189.796875 C 280.257812 189.457031 280 189.070312 279.816406 188.628906 C 279.632812 188.1875 279.542969 187.726562 279.542969 187.25 L 279.542969 176.449219 C 279.542969 175.503906 279.449219 174.566406 279.265625 173.640625 C 279.082031 172.714844 278.808594 171.8125 278.445312 170.9375 C 278.082031 170.066406 277.640625 169.234375 277.113281 168.449219 C 276.589844 167.664062 275.992188 166.9375 275.324219 166.265625 C 274.65625 165.597656 273.929688 165 273.140625 164.476562 C 272.355469 163.953125 271.527344 163.507812 270.652344 163.144531 C 269.777344 162.785156 268.878906 162.511719 267.949219 162.328125 C 267.023438 162.140625 266.085938 162.050781 265.140625 162.050781 C 264.195312 162.050781 263.257812 162.140625 262.332031 162.328125 C 261.40625 162.511719 260.503906 162.785156 259.632812 163.144531 C 258.757812 163.507812 257.925781 163.953125 257.140625 164.476562 C 256.355469 165 255.628906 165.597656 254.960938 166.265625 C 254.289062 166.9375 253.695312 167.664062 253.167969 168.449219 C 252.644531 169.234375 252.199219 170.066406 251.835938 170.9375 C 251.476562 171.8125 251.203125 172.714844 251.019531 173.640625 C 250.832031 174.566406 250.742188 175.503906 250.742188 176.449219 L 250.742188 205.25 L 243.542969 205.25 L 243.542969 176.449219 C 243.542969 175.742188 243.578125 175.035156 243.644531 174.332031 C 243.714844 173.628906 243.820312 172.929688 243.957031 172.234375 C 244.09375 171.542969 244.265625 170.855469 244.472656 170.179688 C 244.675781 169.503906 244.914062 168.835938 245.1875 168.183594 C 245.457031 167.53125 245.757812 166.890625 246.09375 166.265625 C 246.425781 165.644531 246.789062 165.039062 247.183594 164.449219 C 247.574219 163.859375 247.996094 163.292969 248.445312 162.746094 C 248.894531 162.199219 249.367188 161.675781 249.867188 161.175781 C 250.367188 160.675781 250.890625 160.203125 251.4375 159.753906 C 251.984375 159.304688 252.554688 158.882812 253.140625 158.488281 C 253.730469 158.097656 254.335938 157.734375 254.960938 157.398438 C 255.582031 157.066406 256.222656 156.765625 256.875 156.492188 C 257.527344 156.222656 258.195312 155.984375 258.871094 155.78125 C 259.546875 155.574219 260.234375 155.402344 260.925781 155.265625 C 261.621094 155.125 262.320312 155.023438 263.023438 154.953125 C 263.726562 154.882812 264.433594 154.851562 265.140625 154.851562 C 265.847656 154.851562 266.554688 154.882812 267.257812 154.953125 C 267.960938 155.023438 268.660156 155.125 269.355469 155.265625 C 270.050781 155.402344 270.734375 155.574219 271.410156 155.78125 C 272.089844 155.984375 272.753906 156.222656 273.40625 156.492188 C 274.0625 156.765625 274.699219 157.066406 275.324219 157.398438 C 275.949219 157.734375 276.554688 158.097656 277.140625 158.488281 C 277.730469 158.882812 278.296875 159.304688 278.84375 159.753906 C 279.390625 160.203125 279.914062 160.675781 280.414062 161.175781 C 280.914062 161.675781 281.390625 162.199219 281.839844 162.746094 C 282.289062 163.292969 282.707031 163.859375 283.101562 164.449219 C 283.496094 165.039062 283.859375 165.644531 284.191406 166.265625 C 284.523438 166.890625 284.828125 167.53125 285.097656 168.183594 C 285.367188 168.835938 285.605469 169.503906 285.8125 170.179688 C 286.015625 170.855469 286.1875 171.542969 286.328125 172.234375 C 286.464844 172.929688 286.566406 173.628906 286.636719 174.332031 C 286.707031 175.035156 286.742188 175.742188 286.742188 176.449219 Z M 221.941406 223.25 L 221.941406 226.851562 L 113.941406 226.851562 L 113.941406 111.648438 L 236.339844 111.648438 L 236.339844 205.609375 C 235.332031 205.816406 234.351562 206.109375 233.390625 206.484375 C 232.433594 206.859375 231.515625 207.316406 230.632812 207.847656 C 229.753906 208.382812 228.925781 208.984375 228.148438 209.660156 C 227.371094 210.335938 226.65625 211.070312 226.003906 211.871094 C 225.355469 212.667969 224.777344 213.511719 224.269531 214.410156 C 223.765625 215.304688 223.335938 216.238281 222.992188 217.207031 C 222.644531 218.179688 222.382812 219.171875 222.207031 220.183594 C 222.03125 221.199219 221.941406 222.21875 221.941406 223.25 Z M 106.742188 241.25 C 106.269531 241.25 105.800781 241.203125 105.335938 241.109375 C 104.875 241.019531 104.421875 240.882812 103.984375 240.703125 C 103.550781 240.519531 103.132812 240.300781 102.742188 240.035156 C 102.347656 239.773438 101.984375 239.476562 101.648438 239.140625 C 101.316406 238.804688 101.019531 238.441406 100.753906 238.050781 C 100.492188 237.65625 100.269531 237.242188 100.089844 236.804688 C 99.910156 236.367188 99.773438 235.917969 99.679688 235.453125 C 99.585938 234.992188 99.542969 234.523438 99.542969 234.050781 L 99.542969 90.050781 C 99.542969 89.578125 99.585938 89.109375 99.679688 88.644531 C 99.773438 88.179688 99.910156 87.730469 100.089844 87.292969 C 100.269531 86.859375 100.492188 86.441406 100.753906 86.050781 C 101.019531 85.65625 101.316406 85.292969 101.648438 84.957031 C 101.984375 84.625 102.347656 84.324219 102.742188 84.0625 C 103.132812 83.800781 103.550781 83.578125 103.984375 83.398438 C 104.421875 83.21875 104.875 83.082031 105.335938 82.988281 C 105.800781 82.894531 106.269531 82.851562 106.742188 82.851562 L 243.542969 82.851562 C 244.015625 82.851562 244.484375 82.894531 244.945312 82.988281 C 245.410156 83.082031 245.859375 83.21875 246.296875 83.398438 C 246.734375 83.578125 247.148438 83.800781 247.542969 84.0625 C 247.933594 84.324219 248.296875 84.625 248.632812 84.957031 C 248.96875 85.292969 249.265625 85.65625 249.527344 86.050781 C 249.789062 86.441406 250.011719 86.859375 250.195312 87.292969 C 250.375 87.730469 250.511719 88.179688 250.601562 88.644531 C 250.695312 89.109375 250.742188 89.578125 250.742188 90.050781 L 250.742188 151.542969 C 248.019531 153.128906 245.621094 155.101562 243.542969 157.464844 L 243.542969 111.648438 C 243.542969 111.175781 243.496094 110.707031 243.402344 110.246094 C 243.3125 109.78125 243.175781 109.332031 242.992188 108.894531 C 242.8125 108.457031 242.589844 108.042969 242.328125 107.648438 C 242.066406 107.257812 241.765625 106.894531 241.433594 106.558594 C 241.097656 106.222656 240.734375 105.925781 240.339844 105.664062 C 239.949219 105.402344 239.535156 105.179688 239.097656 104.996094 C 238.660156 104.816406 238.210938 104.679688 237.746094 104.589844 C 237.28125 104.496094 236.8125 104.449219 236.339844 104.449219 L 113.941406 104.449219 C 113.46875 104.449219 113 104.496094 112.535156 104.589844 C 112.074219 104.679688 111.621094 104.816406 111.1875 104.996094 C 110.75 105.179688 110.335938 105.402344 109.941406 105.664062 C 109.546875 105.925781 109.183594 106.222656 108.851562 106.558594 C 108.515625 106.894531 108.21875 107.257812 107.953125 107.648438 C 107.691406 108.042969 107.46875 108.457031 107.289062 108.894531 C 107.109375 109.332031 106.972656 109.78125 106.878906 110.246094 C 106.789062 110.707031 106.742188 111.175781 106.742188 111.648438 L 106.742188 226.851562 C 106.742188 227.324219 106.789062 227.789062 106.878906 228.253906 C 106.972656 228.71875 107.109375 229.167969 107.289062 229.605469 C 107.46875 230.042969 107.691406 230.457031 107.953125 230.851562 C 108.21875 231.242188 108.515625 231.605469 108.851562 231.941406 C 109.183594 232.273438 109.546875 232.574219 109.941406 232.835938 C 110.335938 233.097656 110.75 233.320312 111.1875 233.5 C 111.621094 233.683594 112.074219 233.820312 112.535156 233.910156 C 113 234.003906 113.46875 234.050781 113.941406 234.050781 L 221.941406 234.050781 L 221.941406 241.25 Z M 301.140625 273.648438 C 301.140625 274.359375 301.074219 275.0625 300.933594 275.757812 C 300.796875 276.453125 300.589844 277.128906 300.320312 277.78125 C 300.046875 278.4375 299.714844 279.058594 299.320312 279.648438 C 298.925781 280.238281 298.480469 280.785156 297.976562 281.285156 C 297.476562 281.789062 296.929688 282.234375 296.339844 282.628906 C 295.753906 283.023438 295.128906 283.355469 294.472656 283.628906 C 293.820312 283.898438 293.144531 284.105469 292.449219 284.242188 C 291.753906 284.378906 291.050781 284.449219 290.339844 284.449219 L 239.941406 284.449219 C 239.230469 284.449219 238.53125 284.378906 237.835938 284.242188 C 237.140625 284.105469 236.464844 283.898438 235.808594 283.628906 C 235.152344 283.355469 234.53125 283.023438 233.941406 282.628906 C 233.351562 282.234375 232.804688 281.789062 232.304688 281.285156 C 231.804688 280.785156 231.355469 280.238281 230.960938 279.648438 C 230.566406 279.058594 230.234375 278.4375 229.964844 277.78125 C 229.691406 277.128906 229.488281 276.453125 229.347656 275.757812 C 229.210938 275.0625 229.140625 274.359375 229.140625 273.648438 L 229.140625 223.25 C 229.140625 222.539062 229.210938 221.839844 229.347656 221.144531 C 229.488281 220.445312 229.691406 219.773438 229.964844 219.117188 C 230.234375 218.460938 230.566406 217.839844 230.960938 217.25 C 231.355469 216.660156 231.804688 216.113281 232.304688 215.613281 C 232.804688 215.113281 233.351562 214.664062 233.941406 214.269531 C 234.53125 213.875 235.152344 213.542969 235.808594 213.273438 C 236.464844 213 237.140625 212.796875 237.835938 212.65625 C 238.53125 212.519531 239.230469 212.449219 239.941406 212.449219 L 290.339844 212.449219 C 291.050781 212.449219 291.753906 212.519531 292.449219 212.65625 C 293.144531 212.796875 293.820312 213 294.472656 213.273438 C 295.128906 213.542969 295.753906 213.875 296.339844 214.269531 C 296.929688 214.664062 297.476562 215.113281 297.976562 215.613281 C 298.480469 216.113281 298.925781 216.660156 299.320312 217.25 C 299.714844 217.839844 300.046875 218.460938 300.320312 219.117188 C 300.589844 219.773438 300.796875 220.445312 300.933594 221.144531 C 301.074219 221.839844 301.140625 222.539062 301.140625 223.25 Z M 301.140625 273.648438 "/></g><path style=" stroke:none;fill-rule:nonzero;fill:#f4f1f0;fill-opacity:1;" d="M 274.5 230.28125 C 274.027344 229.875 273.527344 229.5 273 229.160156 C 272.476562 228.820312 271.933594 228.511719 271.367188 228.242188 C 270.804688 227.972656 270.222656 227.742188 269.628906 227.546875 C 269.035156 227.351562 268.429688 227.195312 267.816406 227.082031 C 267.199219 226.964844 266.582031 226.890625 265.957031 226.855469 C 265.332031 226.820312 264.707031 226.828125 264.082031 226.871094 C 263.460938 226.917969 262.84375 227.007812 262.230469 227.132812 C 261.617188 227.261719 261.015625 227.425781 260.425781 227.632812 C 259.832031 227.835938 259.257812 228.078125 258.699219 228.359375 C 258.140625 228.640625 257.601562 228.957031 257.082031 229.308594 C 256.566406 229.65625 256.070312 230.039062 255.605469 230.453125 C 255.136719 230.871094 254.695312 231.3125 254.285156 231.785156 C 253.875 232.257812 253.496094 232.753906 253.152344 233.273438 C 252.804688 233.796875 252.496094 234.339844 252.21875 234.898438 C 251.945312 235.460938 251.707031 236.039062 251.507812 236.632812 C 251.308594 237.226562 251.148438 237.828125 251.027344 238.441406 C 250.816406 239.472656 250.726562 240.515625 250.75 241.570312 C 250.773438 242.625 250.910156 243.660156 251.164062 244.683594 C 251.417969 245.707031 251.777344 246.6875 252.25 247.628906 C 252.722656 248.574219 253.289062 249.453125 253.957031 250.269531 L 251.703125 261.425781 C 251.597656 261.949219 251.550781 262.476562 251.5625 263.007812 C 251.574219 263.542969 251.644531 264.066406 251.773438 264.582031 C 251.902344 265.097656 252.082031 265.59375 252.320312 266.070312 C 252.558594 266.546875 252.847656 266.992188 253.183594 267.402344 C 253.519531 267.816406 253.898438 268.1875 254.316406 268.515625 C 254.738281 268.84375 255.1875 269.121094 255.667969 269.351562 C 256.148438 269.578125 256.648438 269.753906 257.167969 269.871094 C 257.6875 269.988281 258.210938 270.046875 258.746094 270.050781 L 271.539062 270.050781 C 272.074219 270.050781 272.601562 269.992188 273.121094 269.875 C 273.640625 269.757812 274.144531 269.585938 274.625 269.355469 C 275.109375 269.128906 275.5625 268.847656 275.980469 268.519531 C 276.402344 268.191406 276.78125 267.820312 277.121094 267.40625 C 277.457031 266.992188 277.746094 266.546875 277.984375 266.070312 C 278.222656 265.589844 278.40625 265.09375 278.535156 264.574219 C 278.664062 264.054688 278.730469 263.53125 278.742188 262.996094 C 278.753906 262.460938 278.707031 261.933594 278.597656 261.410156 L 276.355469 250.300781 L 276.214844 250.425781 C 276.816406 249.703125 277.339844 248.933594 277.785156 248.109375 C 278.234375 247.285156 278.601562 246.425781 278.878906 245.53125 C 279.160156 244.636719 279.351562 243.722656 279.453125 242.789062 C 279.554688 241.859375 279.566406 240.925781 279.488281 239.992188 C 279.40625 239.054688 279.238281 238.136719 278.976562 237.238281 C 278.71875 236.335938 278.375 235.46875 277.945312 234.636719 C 277.515625 233.800781 277.007812 233.015625 276.425781 232.28125 C 275.84375 231.546875 275.195312 230.875 274.484375 230.265625 Z M 269.3125 251.738281 L 271.539062 262.851562 L 258.746094 262.851562 L 260.996094 251.691406 C 261.21875 250.648438 261.203125 249.613281 260.953125 248.578125 C 260.699219 247.542969 260.234375 246.617188 259.558594 245.796875 C 258.871094 244.960938 258.398438 244.015625 258.136719 242.964844 C 257.878906 241.914062 257.855469 240.855469 258.070312 239.796875 C 258.222656 239.089844 258.472656 238.417969 258.820312 237.785156 C 259.171875 237.15625 259.605469 236.585938 260.125 236.082031 C 260.640625 235.582031 261.222656 235.164062 261.867188 234.835938 C 262.507812 234.503906 263.183594 234.273438 263.894531 234.148438 C 264.308594 234.082031 264.722656 234.050781 265.140625 234.050781 C 266 234.042969 266.832031 234.1875 267.636719 234.484375 C 268.441406 234.777344 269.171875 235.207031 269.820312 235.761719 C 270.625 236.449219 271.242188 237.269531 271.683594 238.230469 C 272.125 239.1875 272.34375 240.195312 272.339844 241.25 C 272.347656 242.96875 271.800781 244.488281 270.703125 245.8125 C 270.027344 246.640625 269.566406 247.574219 269.320312 248.613281 C 269.070312 249.652344 269.0625 250.695312 269.296875 251.738281 Z M 269.3125 251.738281 "/><path style=" stroke:none;fill-rule:nonzero;fill:#f4f1f0;fill-opacity:1;" d="M 113.941406 97.25 L 117.542969 97.25 C 118.019531 97.25 118.476562 97.160156 118.917969 96.976562 C 119.359375 96.792969 119.75 96.53125 120.085938 96.195312 C 120.425781 95.859375 120.683594 95.46875 120.867188 95.027344 C 121.050781 94.585938 121.140625 94.128906 121.140625 93.648438 C 121.140625 93.171875 121.050781 92.714844 120.867188 92.273438 C 120.683594 91.832031 120.425781 91.441406 120.085938 91.105469 C 119.75 90.765625 119.359375 90.507812 118.917969 90.324219 C 118.476562 90.140625 118.019531 90.050781 117.542969 90.050781 L 113.941406 90.050781 C 113.464844 90.050781 113.003906 90.140625 112.5625 90.324219 C 112.121094 90.507812 111.734375 90.765625 111.394531 91.105469 C 111.058594 91.441406 110.796875 91.832031 110.617188 92.273438 C 110.433594 92.714844 110.339844 93.171875 110.339844 93.648438 C 110.339844 94.128906 110.433594 94.585938 110.617188 95.027344 C 110.796875 95.46875 111.058594 95.859375 111.394531 96.195312 C 111.734375 96.53125 112.121094 96.792969 112.5625 96.976562 C 113.003906 97.160156 113.464844 97.25 113.941406 97.25 Z M 113.941406 97.25 "/><path style=" stroke:none;fill-rule:nonzero;fill:#f4f1f0;fill-opacity:1;" d="M 131.941406 97.25 L 135.542969 97.25 C 136.019531 97.25 136.476562 97.160156 136.917969 96.976562 C 137.359375 96.792969 137.75 96.53125 138.085938 96.195312 C 138.425781 95.859375 138.683594 95.46875 138.867188 95.027344 C 139.050781 94.585938 139.140625 94.128906 139.140625 93.648438 C 139.140625 93.171875 139.050781 92.714844 138.867188 92.273438 C 138.683594 91.832031 138.425781 91.441406 138.085938 91.105469 C 137.75 90.765625 137.359375 90.507812 136.917969 90.324219 C 136.476562 90.140625 136.019531 90.050781 135.542969 90.050781 L 131.941406 90.050781 C 131.464844 90.050781 131.003906 90.140625 130.5625 90.324219 C 130.121094 90.507812 129.734375 90.765625 129.394531 91.105469 C 129.058594 91.441406 128.796875 91.832031 128.617188 92.273438 C 128.433594 92.714844 128.339844 93.171875 128.339844 93.648438 C 128.339844 94.128906 128.433594 94.585938 128.617188 95.027344 C 128.796875 95.46875 129.058594 95.859375 129.394531 96.195312 C 129.734375 96.53125 130.121094 96.792969 130.5625 96.976562 C 131.003906 97.160156 131.464844 97.25 131.941406 97.25 Z M 131.941406 97.25 "/><path style=" stroke:none;fill-rule:nonzero;fill:#f4f1f0;fill-opacity:1;" d="M 149.941406 97.25 L 153.542969 97.25 C 154.019531 97.25 154.476562 97.160156 154.917969 96.976562 C 155.359375 96.792969 155.75 96.53125 156.085938 96.195312 C 156.425781 95.859375 156.683594 95.46875 156.867188 95.027344 C 157.050781 94.585938 157.140625 94.128906 157.140625 93.648438 C 157.140625 93.171875 157.050781 92.714844 156.867188 92.273438 C 156.683594 91.832031 156.425781 91.441406 156.085938 91.105469 C 155.75 90.765625 155.359375 90.507812 154.917969 90.324219 C 154.476562 90.140625 154.019531 90.050781 153.542969 90.050781 L 149.941406 90.050781 C 149.464844 90.050781 149.003906 90.140625 148.5625 90.324219 C 148.121094 90.507812 147.734375 90.765625 147.394531 91.105469 C 147.058594 91.441406 146.796875 91.832031 146.617188 92.273438 C 146.433594 92.714844 146.339844 93.171875 146.339844 93.648438 C 146.339844 94.128906 146.433594 94.585938 146.617188 95.027344 C 146.796875 95.46875 147.058594 95.859375 147.394531 96.195312 C 147.734375 96.53125 148.121094 96.792969 148.5625 96.976562 C 149.003906 97.160156 149.464844 97.25 149.941406 97.25 Z M 149.941406 97.25 "/><path style=" stroke:none;fill-rule:nonzero;fill:#f4f1f0;fill-opacity:1;" d="M 214.742188 97.25 L 236.339844 97.25 C 236.820312 97.25 237.277344 97.160156 237.71875 96.976562 C 238.160156 96.792969 238.550781 96.53125 238.886719 96.195312 C 239.226562 95.859375 239.484375 95.46875 239.667969 95.027344 C 239.851562 94.585938 239.941406 94.128906 239.941406 93.648438 C 239.941406 93.171875 239.851562 92.714844 239.667969 92.273438 C 239.484375 91.832031 239.226562 91.441406 238.886719 91.105469 C 238.550781 90.765625 238.160156 90.507812 237.71875 90.324219 C 237.277344 90.140625 236.820312 90.050781 236.339844 90.050781 L 214.742188 90.050781 C 214.265625 90.050781 213.804688 90.140625 213.363281 90.324219 C 212.921875 90.507812 212.535156 90.765625 212.195312 91.105469 C 211.859375 91.441406 211.597656 91.832031 211.414062 92.273438 C 211.234375 92.714844 211.140625 93.171875 211.140625 93.648438 C 211.140625 94.128906 211.234375 94.585938 211.414062 95.027344 C 211.597656 95.46875 211.859375 95.859375 212.195312 96.195312 C 212.535156 96.53125 212.921875 96.792969 213.363281 96.976562 C 213.804688 97.160156 214.265625 97.25 214.742188 97.25 Z M 214.742188 97.25 "/><path style=" stroke:none;fill-rule:nonzero;fill:#f4f1f0;fill-opacity:1;" d="M 152.574219 145.195312 C 152.246094 144.84375 151.867188 144.574219 151.433594 144.375 C 151 144.175781 150.542969 144.070312 150.066406 144.054688 C 149.589844 144.035156 149.128906 144.113281 148.679688 144.277344 C 148.234375 144.445312 147.835938 144.691406 147.488281 145.019531 L 127.019531 164.074219 C 126.660156 164.402344 126.339844 164.765625 126.054688 165.160156 C 125.773438 165.554688 125.53125 165.976562 125.335938 166.421875 C 125.140625 166.867188 124.992188 167.328125 124.890625 167.804688 C 124.792969 168.28125 124.742188 168.761719 124.742188 169.25 C 124.742188 169.738281 124.792969 170.21875 124.890625 170.695312 C 124.992188 171.171875 125.140625 171.632812 125.335938 172.078125 C 125.53125 172.523438 125.773438 172.945312 126.054688 173.339844 C 126.339844 173.734375 126.660156 174.097656 127.019531 174.425781 L 147.488281 193.480469 C 147.835938 193.792969 148.234375 194.03125 148.679688 194.1875 C 149.121094 194.34375 149.578125 194.410156 150.046875 194.390625 C 150.515625 194.367188 150.964844 194.257812 151.390625 194.0625 C 151.820312 193.863281 152.191406 193.59375 152.515625 193.25 C 152.835938 192.90625 153.078125 192.515625 153.246094 192.074219 C 153.414062 191.636719 153.492188 191.179688 153.480469 190.710938 C 153.46875 190.238281 153.371094 189.789062 153.183594 189.359375 C 152.996094 188.925781 152.734375 188.546875 152.398438 188.21875 L 131.941406 169.335938 L 152.410156 150.28125 C 152.757812 149.953125 153.03125 149.574219 153.226562 149.140625 C 153.425781 148.703125 153.53125 148.25 153.546875 147.769531 C 153.558594 147.292969 153.484375 146.832031 153.316406 146.386719 C 153.148438 145.941406 152.898438 145.542969 152.574219 145.195312 Z M 152.574219 145.195312 "/><path style=" stroke:none;fill-rule:nonzero;fill:#f4f1f0;fill-opacity:1;" d="M 202.796875 145.019531 C 202.445312 144.707031 202.046875 144.46875 201.605469 144.3125 C 201.160156 144.15625 200.707031 144.085938 200.234375 144.109375 C 199.765625 144.128906 199.316406 144.242188 198.890625 144.4375 C 198.464844 144.636719 198.089844 144.90625 197.769531 145.25 C 197.449219 145.59375 197.203125 145.984375 197.035156 146.425781 C 196.871094 146.863281 196.792969 147.320312 196.800781 147.789062 C 196.8125 148.257812 196.914062 148.710938 197.101562 149.140625 C 197.289062 149.574219 197.550781 149.953125 197.886719 150.28125 L 218.339844 169.164062 L 197.871094 188.21875 C 197.511719 188.539062 197.226562 188.921875 197.015625 189.359375 C 196.808594 189.796875 196.695312 190.253906 196.671875 190.738281 C 196.648438 191.222656 196.722656 191.691406 196.890625 192.148438 C 197.054688 192.601562 197.304688 193.007812 197.636719 193.359375 C 197.964844 193.714844 198.351562 193.992188 198.792969 194.191406 C 199.234375 194.386719 199.699219 194.492188 200.183594 194.503906 C 200.667969 194.515625 201.136719 194.433594 201.585938 194.253906 C 202.035156 194.078125 202.4375 193.820312 202.78125 193.480469 L 223.25 174.425781 C 223.605469 174.097656 223.929688 173.734375 224.210938 173.339844 C 224.496094 172.945312 224.734375 172.523438 224.933594 172.078125 C 225.128906 171.632812 225.277344 171.171875 225.375 170.695312 C 225.476562 170.21875 225.527344 169.738281 225.527344 169.25 C 225.527344 168.761719 225.476562 168.28125 225.375 167.804688 C 225.277344 167.328125 225.128906 166.867188 224.933594 166.421875 C 224.734375 165.976562 224.496094 165.554688 224.210938 165.160156 C 223.929688 164.765625 223.605469 164.402344 223.25 164.074219 Z M 202.796875 145.019531 "/><path style=" stroke:none;fill-rule:nonzero;fill:#f4f1f0;fill-opacity:1;" d="M 187.550781 144.425781 C 187.125 144.214844 186.671875 144.089844 186.195312 144.058594 C 185.71875 144.023438 185.253906 144.082031 184.800781 144.234375 C 184.347656 144.382812 183.941406 144.617188 183.582031 144.929688 C 183.21875 145.242188 182.933594 145.613281 182.71875 146.039062 L 161.121094 189.242188 C 160.90625 189.667969 160.785156 190.121094 160.75 190.59375 C 160.71875 191.070312 160.777344 191.535156 160.925781 191.988281 C 161.078125 192.441406 161.3125 192.847656 161.625 193.207031 C 161.9375 193.570312 162.308594 193.855469 162.734375 194.070312 C 163.160156 194.28125 163.613281 194.40625 164.089844 194.4375 C 164.566406 194.472656 165.027344 194.414062 165.480469 194.261719 C 165.933594 194.113281 166.339844 193.878906 166.703125 193.566406 C 167.0625 193.253906 167.351562 192.886719 167.5625 192.457031 L 189.164062 149.257812 C 189.378906 148.832031 189.5 148.378906 189.535156 147.902344 C 189.566406 147.425781 189.507812 146.960938 189.359375 146.507812 C 189.207031 146.054688 188.976562 145.648438 188.660156 145.289062 C 188.347656 144.929688 187.976562 144.640625 187.550781 144.425781 Z M 187.550781 144.425781 "/></g></svg>