<svg xmlns="http://www.w3.org/2000/svg" xmlns:xlink="http://www.w3.org/1999/xlink" width="500" zoomAndPan="magnify" viewBox="0 0 375 374.999991" height="500" preserveAspectRatio="xMidYMid meet" version="1.2"><defs><clipPath id="212a3de700"><path d="M 125.757812 74 L 265 74 L 265 282 L 125.757812 282 Z M 125.757812 74 "/></clipPath></defs><g id="26928fd080"><path style=" stroke:none;fill-rule:nonzero;fill:#17a2b8;fill-opacity:1;" d="M 351.777344 240.496094 C 342.617188 277.382812 320.929688 302.949219 286.710938 317.199219 C 252.492188 331.445312 218.976562 337.867188 186.15625 336.46875 C 153.339844 335.070312 125.863281 323.367188 103.730469 301.363281 C 81.59375 279.355469 62.449219 254.488281 46.296875 226.757812 C 30.140625 199.027344 27.472656 169.324219 38.28125 137.652344 C 49.09375 105.976562 66.96875 77.164062 91.898438 51.214844 C 116.832031 25.265625 147.171875 14.964844 182.914062 20.304688 C 218.65625 25.648438 253.382812 36.015625 287.09375 51.40625 C 320.800781 66.796875 342.300781 92.9375 351.585938 129.828125 C 360.871094 166.714844 360.933594 203.605469 351.777344 240.496094 Z M 351.777344 240.496094 "/><path style=" stroke:none;fill-rule:nonzero;fill:#fbc114;fill-opacity:1;" d="M 369.769531 159.710938 C 357.355469 88.757812 304.996094 28.1875 238.570312 10.949219 C 208.757812 2.953125 178.078125 7.289062 147.886719 12.058594 C 132.683594 18.105469 117.941406 25.476562 103.007812 32.195312 C 30.996094 76.453125 0.722656 179.710938 38.339844 259.011719 C 69.210938 318.851562 130.488281 364.300781 196.589844 357.390625 C 213.066406 359.125 226.238281 358.773438 241.578125 351.210938 C 261.714844 346.117188 282.472656 335.492188 300.660156 323.082031 C 336.40625 297.226562 364.105469 249.011719 369.308594 203.832031 C 369.90625 193.398438 370.175781 190.769531 368.929688 182.828125 C 368.984375 178.710938 370.203125 166.40625 369.769531 159.710938 Z M 367.382812 198.925781 C 364.675781 221.800781 358.628906 247.195312 344.644531 267.167969 C 330.632812 288.851562 316.132812 312.105469 293.371094 324.082031 C 237.621094 361.539062 163.929688 367.472656 106.097656 331.535156 C 29.667969 282.292969 0.15625 181.285156 46.308594 97.808594 C 70.1875 56.535156 94.605469 35.9375 137.183594 19.511719 C 190.679688 -0.0273438 254.425781 5.960938 299.085938 45.097656 C 335.484375 72.199219 358.984375 114.777344 367.628906 160.578125 C 367.355469 173.371094 367.519531 186.242188 367.382812 198.925781 Z M 367.382812 198.925781 "/><path style=" stroke:none;fill-rule:nonzero;fill:#fbc114;fill-opacity:1;" d="M 355.054688 187.328125 C 354.621094 126.132812 320.984375 60.707031 260.574219 36.914062 C 250.980469 33.0625 241.007812 30.652344 230.765625 27.265625 C 226.808594 25.535156 222.707031 24.289062 218.453125 23.527344 C 214.203125 22.765625 209.925781 22.511719 205.613281 22.765625 C 168.429688 22.765625 133.496094 25.175781 103.386719 50.410156 C 31.753906 96.5625 9.371094 204.023438 60.320312 272.34375 C 89.484375 320.34375 136.042969 340.613281 191.195312 345.277344 C 213.148438 345.003906 234.722656 338.472656 255.019531 330.992188 C 255.210938 330.992188 255.589844 330.832031 255.507812 330.992188 C 254.207031 332.132812 259.03125 330.074219 261.6875 328.878906 C 271.851562 323.460938 285.023438 318.609375 293.207031 311.019531 C 328.738281 281.886719 356.949219 233.101562 355.054688 187.328125 Z M 352.34375 196.8125 C 349.46875 240.609375 323.425781 282.046875 289.546875 310.125 C 235.5625 345.359375 168.972656 352.703125 111.976562 319.71875 C 0.589844 252.804688 14.789062 86.101562 134.28125 35.664062 C 150.082031 29.214844 166.804688 24.609375 184.121094 25.746094 C 208.160156 23.035156 228.625 27.859375 250.710938 35.71875 C 317.921875 57.644531 356.597656 131.171875 352.476562 196.8125 Z M 352.34375 196.8125 "/><g clip-rule="nonzero" clip-path="url(#212a3de700)"><path style=" stroke:none;fill-rule:nonzero;fill:#f4f1f0;fill-opacity:1;" d="M 264.867188 213.980469 C 264.648438 205.292969 264.023438 196.609375 262.984375 187.980469 C 262.105469 180.664062 261.253906 173.199219 258.15625 166.433594 C 255.730469 161.128906 251.972656 157.179688 247.488281 154.269531 C 250.328125 124.132812 240 89.851562 209.402344 78.023438 C 181.785156 67.347656 150.722656 84.152344 137.765625 109.085938 C 129.929688 124.164062 127.394531 141.597656 129.191406 158.398438 C 129.289062 159.316406 129.625 160.070312 130.082031 160.691406 C 128.890625 162.367188 127.882812 164.238281 127.089844 166.339844 C 126.835938 166.769531 126.65625 167.265625 126.570312 167.832031 C 126.417969 168.464844 126.398438 169.050781 126.496094 169.582031 C 126.621094 186.421875 125.832031 203.25 125.765625 220.085938 C 125.734375 228.476562 125.882812 236.871094 126.460938 245.242188 C 126.992188 252.992188 127.683594 260.898438 131.269531 267.925781 C 134.386719 274.027344 139.710938 278.765625 146.40625 280.496094 C 154.191406 282.507812 162.828125 281.550781 170.777344 281.441406 C 188.078125 281.199219 205.402344 280.691406 222.597656 278.695312 C 236.265625 277.109375 254.707031 276.667969 260.78125 261.855469 C 263.558594 255.082031 263.785156 247.257812 264.289062 240.042969 C 264.890625 231.375 265.085938 222.671875 264.867188 213.980469 Z M 166.863281 90.808594 C 177.285156 84.792969 189.976562 82.089844 201.800781 85.023438 C 214.070312 88.066406 224.070312 96.878906 230.355469 107.644531 C 237.859375 120.496094 239.769531 135.496094 238.867188 150.148438 C 236.082031 149.199219 233.179688 148.515625 230.242188 148.042969 C 232.28125 130.371094 223.417969 109.351562 207.222656 100.871094 C 199.441406 96.796875 190.167969 95.539062 181.910156 98.945312 C 173.183594 102.546875 167.121094 110.164062 162.359375 118.039062 C 156.832031 127.179688 152.589844 137.855469 154.398438 148.554688 C 148.46875 149.207031 142.65625 150.757812 137.785156 153.664062 C 136.472656 129.425781 144.851562 103.507812 166.863281 90.808594 Z M 163.472656 148.191406 C 161.148438 137.878906 166.664062 127.472656 172.296875 119.113281 C 177.300781 111.6875 184.386719 105.144531 193.933594 105.964844 C 202.726562 106.722656 209.9375 112.632812 214.40625 119.90625 C 219.679688 128.488281 222.300781 137.242188 221.339844 147.207031 C 212.382812 146.886719 203.429688 147.84375 194.503906 148.492188 C 184.835938 149.195312 175.425781 148.777344 165.765625 148.265625 C 165.007812 148.230469 164.242188 148.210938 163.472656 148.191406 Z M 254.25 251.445312 C 253.367188 257.476562 251.453125 263.042969 245.410156 265.507812 C 239.265625 268.011719 231.972656 268.558594 225.453125 269.382812 C 210.191406 271.320312 194.804688 272.003906 179.433594 272.328125 C 171.882812 272.488281 164.3125 272.664062 156.761719 272.617188 C 150.503906 272.578125 144.566406 271.660156 140.699219 266.242188 C 136.261719 260.03125 135.863281 251.910156 135.375 244.558594 C 134.820312 236.179688 134.6875 227.777344 134.730469 219.378906 C 134.8125 202.730469 135.589844 186.085938 135.460938 169.433594 C 139.910156 156.953125 156.308594 156.671875 167.191406 157.324219 C 174.640625 157.769531 181.984375 158.199219 189.453125 157.792969 C 197.152344 157.378906 204.820312 156.511719 212.527344 156.214844 C 224.070312 155.761719 239.511719 155.949219 247.464844 165.9375 C 251.425781 170.910156 252.574219 177.566406 253.457031 183.683594 C 254.554688 191.320312 255.222656 199.039062 255.617188 206.746094 C 256.382812 221.503906 256.386719 236.789062 254.25 251.445312 Z M 254.25 251.445312 "/></g><path style=" stroke:none;fill-rule:nonzero;fill:#f4f1f0;fill-opacity:1;" d="M 209.761719 222.011719 C 216.65625 219.539062 221.71875 213.003906 222.507812 205.46875 C 223.554688 195.523438 217.695312 185.902344 209.40625 180.765625 C 201.121094 175.636719 190.207031 174.859375 181.683594 179.863281 C 173.535156 184.644531 168.042969 194.074219 169.238281 203.617188 C 170.300781 212.128906 176.023438 219.074219 183.664062 222.109375 C 179.949219 231.441406 176.234375 240.773438 172.519531 250.109375 C 171.140625 253.566406 175.058594 256.199219 178.035156 255.625 C 191.746094 252.976562 205.628906 251.808594 219.589844 252.023438 C 223.820312 252.085938 225.046875 247.226562 222.761719 244.367188 C 217.355469 237.597656 213.003906 230.035156 209.761719 222.011719 Z M 178.085938 199.371094 C 179.042969 191.816406 186.015625 185.804688 193.484375 185.433594 C 201.417969 185.042969 209.382812 189.910156 212.445312 197.285156 C 215.324219 204.207031 212.457031 214.125 203.703125 214.109375 C 200.9375 214.105469 198.425781 217 199.378906 219.785156 C 202.234375 228.121094 206.101562 235.894531 210.914062 243.148438 C 201.867188 243.390625 192.859375 244.214844 183.914062 245.59375 C 186.972656 237.898438 190.035156 230.203125 193.097656 222.511719 C 193.828125 221.691406 194.15625 220.53125 194.097656 219.351562 C 194.140625 218.566406 193.953125 217.871094 193.578125 217.296875 C 192.929688 215.949219 191.683594 214.859375 189.832031 214.667969 C 182.679688 213.925781 177.195312 206.378906 178.085938 199.371094 Z M 178.085938 199.371094 "/></g></svg>