<svg xmlns="http://www.w3.org/2000/svg" xmlns:xlink="http://www.w3.org/1999/xlink" width="500" zoomAndPan="magnify" viewBox="0 0 375 374.999991" height="500" preserveAspectRatio="xMidYMid meet" version="1.2"><defs><clipPath id="aa99eaef0a"><path d="M 86.28125 50.363281 L 301.53125 50.363281 L 301.53125 317 L 86.28125 317 Z M 86.28125 50.363281 "/></clipPath></defs><g id="a785eaf402"><path style=" stroke:none;fill-rule:nonzero;fill:#17a2b8;fill-opacity:1;" d="M 351.777344 240.496094 C 342.617188 277.382812 320.929688 302.949219 286.710938 317.199219 C 252.492188 331.445312 218.976562 337.867188 186.15625 336.46875 C 153.339844 335.070312 125.863281 323.367188 103.730469 301.363281 C 81.59375 279.355469 62.449219 254.488281 46.296875 226.757812 C 30.140625 199.027344 27.472656 169.324219 38.28125 137.652344 C 49.09375 105.976562 66.96875 77.164062 91.898438 51.214844 C 116.832031 25.265625 147.171875 14.964844 182.914062 20.304688 C 218.65625 25.648438 253.382812 36.015625 287.09375 51.40625 C 320.800781 66.796875 342.300781 92.9375 351.585938 129.828125 C 360.871094 166.714844 360.933594 203.605469 351.777344 240.496094 Z M 351.777344 240.496094 "/><path style=" stroke:none;fill-rule:nonzero;fill:#fbc114;fill-opacity:1;" d="M 369.769531 159.710938 C 357.355469 88.757812 304.996094 28.1875 238.570312 10.949219 C 208.757812 2.953125 178.078125 7.289062 147.886719 12.058594 C 132.683594 18.105469 117.941406 25.476562 103.007812 32.195312 C 30.996094 76.453125 0.722656 179.710938 38.339844 259.011719 C 69.210938 318.851562 130.488281 364.300781 196.589844 357.390625 C 213.066406 359.125 226.238281 358.773438 241.578125 351.210938 C 261.714844 346.117188 282.472656 335.492188 300.660156 323.082031 C 336.40625 297.226562 364.105469 249.011719 369.308594 203.832031 C 369.90625 193.398438 370.175781 190.769531 368.929688 182.828125 C 368.984375 178.710938 370.203125 166.40625 369.769531 159.710938 Z M 367.382812 198.925781 C 364.675781 221.800781 358.628906 247.195312 344.644531 267.167969 C 330.632812 288.851562 316.132812 312.105469 293.371094 324.082031 C 237.621094 361.539062 163.929688 367.472656 106.097656 331.535156 C 29.667969 282.292969 0.15625 181.285156 46.308594 97.808594 C 70.1875 56.535156 94.605469 35.9375 137.183594 19.511719 C 190.679688 -0.0273438 254.425781 5.960938 299.085938 45.097656 C 335.484375 72.199219 358.984375 114.777344 367.628906 160.578125 C 367.355469 173.371094 367.519531 186.242188 367.382812 198.925781 Z M 367.382812 198.925781 "/><path style=" stroke:none;fill-rule:nonzero;fill:#fbc114;fill-opacity:1;" d="M 355.054688 187.328125 C 354.621094 126.132812 320.984375 60.707031 260.574219 36.914062 C 250.980469 33.0625 241.007812 30.652344 230.765625 27.265625 C 226.808594 25.535156 222.707031 24.289062 218.453125 23.527344 C 214.203125 22.765625 209.925781 22.511719 205.613281 22.765625 C 168.429688 22.765625 133.496094 25.175781 103.386719 50.410156 C 31.753906 96.5625 9.371094 204.023438 60.320312 272.34375 C 89.484375 320.34375 136.042969 340.613281 191.195312 345.277344 C 213.148438 345.003906 234.722656 338.472656 255.019531 330.992188 C 255.210938 330.992188 255.589844 330.832031 255.507812 330.992188 C 254.207031 332.132812 259.03125 330.074219 261.6875 328.878906 C 271.851562 323.460938 285.023438 318.609375 293.207031 311.019531 C 328.738281 281.886719 356.949219 233.101562 355.054688 187.328125 Z M 352.34375 196.8125 C 349.46875 240.609375 323.425781 282.046875 289.546875 310.125 C 235.5625 345.359375 168.972656 352.703125 111.976562 319.71875 C 0.589844 252.804688 14.789062 86.101562 134.28125 35.664062 C 150.082031 29.214844 166.804688 24.609375 184.121094 25.746094 C 208.160156 23.035156 228.625 27.859375 250.710938 35.71875 C 317.921875 57.644531 356.597656 131.171875 352.476562 196.8125 Z M 352.34375 196.8125 "/><path style=" stroke:none;fill-rule:evenodd;fill:#f4f1f0;fill-opacity:1;" d="M 193.949219 239.304688 C 186 239.304688 178.28125 237.746094 171.015625 234.671875 C 164 231.703125 157.699219 227.457031 152.289062 222.046875 C 146.878906 216.636719 142.632812 210.335938 139.664062 203.320312 C 136.59375 196.054688 135.035156 188.339844 135.035156 180.386719 C 135.035156 172.433594 136.59375 164.71875 139.664062 157.453125 C 142.632812 150.4375 146.878906 144.136719 152.289062 138.726562 C 157.699219 133.316406 164 129.070312 171.015625 126.101562 C 178.28125 123.027344 186 121.46875 193.949219 121.46875 C 201.902344 121.46875 209.617188 123.027344 216.882812 126.101562 C 223.898438 129.070312 230.199219 133.316406 235.609375 138.726562 C 241.019531 144.136719 245.265625 150.4375 248.234375 157.453125 C 251.308594 164.71875 252.867188 172.433594 252.867188 180.386719 C 252.867188 188.339844 251.308594 196.054688 248.234375 203.320312 C 245.265625 210.335938 241.019531 216.636719 235.609375 222.046875 C 230.199219 227.457031 223.898438 231.703125 216.882812 234.671875 C 209.617188 237.746094 201.902344 239.304688 193.949219 239.304688 Z M 193.949219 129.789062 C 166.050781 129.789062 143.351562 152.488281 143.351562 180.386719 C 143.351562 208.285156 166.050781 230.984375 193.949219 230.984375 C 221.847656 230.984375 244.546875 208.285156 244.546875 180.386719 C 244.546875 152.488281 221.847656 129.789062 193.949219 129.789062 Z M 193.949219 129.789062 "/><path style=" stroke:none;fill-rule:evenodd;fill:#f4f1f0;fill-opacity:1;" d="M 180.640625 203.496094 C 180.636719 203.496094 180.636719 203.496094 180.636719 203.496094 C 179.535156 203.496094 178.476562 203.058594 177.695312 202.277344 L 158.75 183.328125 C 157.125 181.703125 157.125 179.070312 158.75 177.445312 C 160.371094 175.820312 163.007812 175.820312 164.632812 177.445312 L 180.636719 193.453125 L 215.59375 158.496094 C 217.21875 156.871094 219.851562 156.871094 221.476562 158.496094 C 223.101562 160.121094 223.101562 162.757812 221.476562 164.378906 L 183.578125 202.277344 C 182.800781 203.058594 181.742188 203.496094 180.640625 203.496094 Z M 180.640625 203.496094 "/><g clip-rule="nonzero" clip-path="url(#aa99eaef0a)"><path style=" stroke:none;fill-rule:evenodd;fill:#f4f1f0;fill-opacity:1;" d="M 193.949219 316.964844 C 193.363281 316.964844 192.773438 316.84375 192.226562 316.59375 C 177.402344 309.84375 163.3125 300.832031 150.351562 289.808594 C 137.601562 278.960938 126.316406 266.492188 116.808594 252.738281 C 107.171875 238.796875 99.652344 223.964844 94.46875 208.652344 C 89.066406 192.703125 86.328125 176.59375 86.328125 160.78125 L 86.328125 94.359375 C 86.328125 92.214844 87.953125 90.421875 90.085938 90.21875 C 138.03125 85.605469 164.484375 75.550781 191.183594 51.789062 C 192.761719 50.386719 195.136719 50.386719 196.714844 51.789062 C 223.414062 75.550781 249.871094 85.605469 297.8125 90.21875 C 299.945312 90.421875 301.574219 92.214844 301.574219 94.359375 L 301.574219 160.78125 C 301.574219 176.59375 298.835938 192.699219 293.433594 208.652344 C 288.246094 223.964844 280.730469 238.796875 271.089844 252.738281 C 261.582031 266.488281 250.296875 278.960938 237.546875 289.808594 C 224.585938 300.832031 210.5 309.84375 195.671875 316.59375 C 195.125 316.84375 194.539062 316.964844 193.949219 316.964844 Z M 94.644531 98.121094 L 94.644531 160.78125 C 94.644531 175.6875 97.238281 190.894531 102.347656 205.984375 C 107.285156 220.5625 114.453125 234.703125 123.652344 248.007812 C 141.644531 274.027344 166.554688 295.351562 193.949219 308.222656 C 221.34375 295.351562 246.253906 274.027344 264.246094 248.003906 C 273.445312 234.703125 280.613281 220.5625 285.550781 205.984375 C 290.664062 190.894531 293.253906 175.6875 293.253906 160.78125 L 293.253906 98.121094 C 247.265625 93.316406 220.5 83.171875 193.949219 60.421875 C 167.398438 83.171875 140.632812 93.316406 94.644531 98.121094 Z M 94.644531 98.121094 "/></g><path style=" stroke:none;fill-rule:evenodd;fill:#f4f1f0;fill-opacity:1;" d="M 193.949219 300.988281 C 193.308594 300.988281 192.667969 300.839844 192.078125 300.542969 C 166.8125 287.828125 143.804688 267.40625 127.289062 243.046875 C 118.847656 230.59375 112.265625 217.417969 107.726562 203.878906 C 102.953125 189.648438 100.535156 175.269531 100.535156 161.148438 L 100.535156 107.054688 C 100.535156 104.953125 102.101562 103.183594 104.191406 102.925781 C 122.753906 100.664062 137.503906 97.425781 150.605469 92.734375 C 165.351562 87.453125 178.6875 80.039062 191.378906 70.0625 C 192.886719 68.875 195.011719 68.875 196.519531 70.058594 C 209.210938 80.039062 222.550781 87.453125 237.292969 92.730469 C 250.394531 97.421875 265.144531 100.664062 283.707031 102.925781 C 285.792969 103.179688 287.363281 104.953125 287.363281 107.054688 L 287.363281 161.148438 C 287.363281 175.269531 284.945312 189.648438 280.171875 203.878906 C 275.632812 217.414062 269.050781 230.59375 260.609375 243.046875 C 244.09375 267.40625 221.082031 287.828125 195.820312 300.542969 C 195.230469 300.839844 194.589844 300.988281 193.949219 300.988281 Z M 108.855469 110.722656 L 108.855469 161.148438 C 108.855469 212.441406 143.746094 266.015625 193.949219 292.15625 C 244.152344 266.015625 279.046875 212.441406 279.046875 161.148438 L 279.046875 110.722656 C 261.542969 108.40625 247.308594 105.15625 234.488281 100.566406 C 219.882812 95.335938 206.589844 88.128906 193.949219 78.582031 C 181.3125 88.128906 168.015625 95.335938 153.410156 100.566406 C 140.59375 105.152344 126.355469 108.40625 108.855469 110.722656 Z M 108.855469 110.722656 "/></g></svg>